<?xml version="1.0" encoding="utf-8"?>
<!-- Generator: Adobe Illustrator 26.3.1, SVG Export Plug-In . SVG Version: 6.00 Build 0)  -->
<svg version="1.1" id="Layer_1" xmlns="http://www.w3.org/2000/svg" xmlns:xlink="http://www.w3.org/1999/xlink" x="0px" y="0px"
	 viewBox="0 0 657.1 182.5" style="enable-background:new 0 0 657.1 182.5;" xml:space="preserve">
<style type="text/css">
	.st0{clip-path:url(#SVGID_00000176725654884089775580000009330888143957163684_);}
	.st1{fill:#FFFFFF;}
	.st2{fill:none;stroke:#000000;stroke-width:0.25;}
	.st3{clip-path:url(#SVGID_00000166664846175634311060000002759279884076508603_);}
</style>
<image style="overflow:visible;" width="3213" height="700" xlink:href="Cofunded_transparent_white.png"  transform="matrix(0.1805 0 0 0.1805 38.9881 20.9397)">
</image>
<g id="Group_3072">
	<g>
		<g>
			<defs>
				<rect id="SVGID_1_" x="366.8" y="241.2" width="343.1" height="79.4"/>
			</defs>
			<clipPath id="SVGID_00000062167445894403264510000016816829119094018737_">
				<use xlink:href="#SVGID_1_"  style="overflow:visible;"/>
			</clipPath>
			<g style="clip-path:url(#SVGID_00000062167445894403264510000016816829119094018737_);">
				<rect x="366.8" y="241.2" class="st1" width="117.2" height="79"/>
				<polygon points="454.8,279.4 453.6,279.4 451.8,279.4 451.2,277.8 450.8,276.7 450.4,277.8 449.8,279.4 448,279.4 446.8,279.4 
					447.8,280.2 449.2,281.2 448.7,282.8 448.3,283.9 449.3,283.3 450.8,282.3 452.3,283.3 453.2,283.9 452.9,282.8 452.4,281.2 
					453.8,280.2 				"/>
				<polygon class="st2" points="454.8,279.4 453.6,279.4 451.8,279.4 451.2,277.8 450.8,276.7 450.4,277.8 449.8,279.4 448,279.4 
					446.8,279.4 447.8,280.2 449.2,281.2 448.7,282.8 448.3,283.9 449.3,283.3 450.8,282.3 452.3,283.3 453.2,283.9 452.9,282.8 
					452.4,281.2 453.8,280.2 				"/>
				<polygon points="445.8,268.4 445.3,270.1 445,271.2 445.9,270.5 447.4,269.5 448.9,270.5 449.9,271.2 449.5,270.1 449,268.4 
					450.4,267.4 451.4,266.7 450.2,266.7 448.4,266.6 447.8,265 447.4,264 447,265 446.4,266.6 444.6,266.7 443.4,266.7 
					444.4,267.4 				"/>
				<polygon class="st2" points="445.8,268.4 445.3,270.1 445,271.2 445.9,270.5 447.4,269.5 448.9,270.5 449.9,271.2 449.5,270.1 
					449,268.4 450.4,267.4 451.4,266.7 450.2,266.7 448.4,266.6 447.8,265 447.4,264 447,265 446.4,266.6 444.6,266.7 443.4,266.7 
					444.4,267.4 				"/>
				<polygon points="439.2,257.4 438.6,255.8 438.2,254.7 437.8,255.8 437.2,257.4 435.4,257.4 434.2,257.4 435.2,258.2 
					436.6,259.2 436.1,260.8 435.7,261.9 436.7,261.3 438.2,260.3 439.7,261.3 440.7,261.9 440.3,260.8 439.8,259.2 441.2,258.2 
					442.2,257.4 441,257.4 				"/>
				<polygon class="st2" points="439.2,257.4 438.6,255.8 438.2,254.7 437.8,255.8 437.2,257.4 435.4,257.4 434.2,257.4 
					435.2,258.2 436.6,259.2 436.1,260.8 435.7,261.9 436.7,261.3 438.2,260.3 439.7,261.3 440.7,261.9 440.3,260.8 439.8,259.2 
					441.2,258.2 442.2,257.4 441,257.4 				"/>
				<polygon points="426.3,254 425.7,252.4 425.3,251.3 424.9,252.4 424.3,254 422.5,254 421.3,254 422.3,254.7 423.7,255.8 
					423.2,257.4 422.8,258.5 423.8,257.9 425.3,256.9 426.8,257.9 427.7,258.5 427.4,257.4 426.9,255.8 428.3,254.7 429.3,254 
					428.1,254 				"/>
				<polygon class="st2" points="426.3,254 425.7,252.4 425.3,251.3 424.9,252.4 424.3,254 422.5,254 421.3,254 422.3,254.7 
					423.7,255.8 423.2,257.4 422.8,258.5 423.8,257.9 425.3,256.9 426.8,257.9 427.7,258.5 427.4,257.4 426.9,255.8 428.3,254.7 
					429.3,254 428.1,254 				"/>
				<polygon points="413.5,257.4 412.9,255.8 412.5,254.7 412.1,255.8 411.6,257.4 409.7,257.4 408.5,257.4 409.5,258.2 
					410.9,259.2 410.4,260.8 410.1,261.9 411,261.3 412.5,260.3 414,261.3 415,261.9 414.6,260.8 414.1,259.2 415.5,258.2 
					416.6,257.4 415.3,257.4 				"/>
				<polygon class="st2" points="413.5,257.4 412.9,255.8 412.5,254.7 412.1,255.8 411.6,257.4 409.7,257.4 408.5,257.4 
					409.5,258.2 410.9,259.2 410.4,260.8 410.1,261.9 411,261.3 412.5,260.3 414,261.3 415,261.9 414.6,260.8 414.1,259.2 
					415.5,258.2 416.6,257.4 415.3,257.4 				"/>
				<polygon points="404.2,266.5 403.6,264.9 403.2,263.9 402.9,264.9 402.3,266.5 400.5,266.6 399.2,266.6 400.2,267.3 
					401.7,268.4 401.1,270 400.8,271.1 401.7,270.4 403.2,269.5 404.7,270.4 405.7,271.1 405.3,270 404.8,268.4 406.2,267.3 
					407.2,266.6 406,266.6 				"/>
				<polygon class="st2" points="404.2,266.5 403.6,264.9 403.2,263.9 402.9,264.9 402.3,266.5 400.5,266.6 399.2,266.6 
					400.2,267.3 401.7,268.4 401.1,270 400.8,271.1 401.7,270.4 403.2,269.5 404.7,270.4 405.7,271.1 405.3,270 404.8,268.4 
					406.2,267.3 407.2,266.6 406,266.6 				"/>
				<polygon points="401.2,283.2 402.2,283.9 401.9,282.8 401.3,281.2 402.8,280.1 403.8,279.4 402.5,279.4 400.7,279.3 
					400.1,277.7 399.8,276.7 399.4,277.7 398.8,279.3 397,279.4 395.8,279.4 396.8,280.1 398.2,281.2 397.7,282.8 397.3,283.9 
					398.3,283.2 399.8,282.2 				"/>
				<polygon class="st2" points="401.2,283.2 402.2,283.9 401.9,282.8 401.3,281.2 402.8,280.1 403.8,279.4 402.5,279.4 
					400.7,279.3 400.1,277.7 399.8,276.7 399.4,277.7 398.8,279.3 397,279.4 395.8,279.4 396.8,280.1 398.2,281.2 397.7,282.8 
					397.3,283.9 398.3,283.2 399.8,282.2 				"/>
				<polygon points="404.2,292 403.6,290.4 403.2,289.3 402.8,290.4 402.2,292 400.4,292 399.2,292 400.2,292.8 401.6,293.8 
					401.1,295.4 400.7,296.5 401.7,295.9 403.2,294.9 404.7,295.9 405.6,296.5 405.3,295.4 404.8,293.8 406.2,292.8 407.2,292 
					406,292 				"/>
				<polygon class="st2" points="404.2,292 403.6,290.4 403.2,289.3 402.8,290.4 402.2,292 400.4,292 399.2,292 400.2,292.8 
					401.6,293.8 401.1,295.4 400.7,296.5 401.7,295.9 403.2,294.9 404.7,295.9 405.6,296.5 405.3,295.4 404.8,293.8 406.2,292.8 
					407.2,292 406,292 				"/>
				<polygon points="413.4,301.2 412.8,299.6 412.4,298.6 412,299.6 411.4,301.2 409.6,301.3 408.4,301.3 409.4,302 410.8,303 
					410.3,304.7 410,305.8 410.9,305.1 412.4,304.1 413.9,305.1 414.9,305.8 414.5,304.7 414,303 415.4,302 416.4,301.3 
					415.2,301.3 				"/>
				<polygon class="st2" points="413.4,301.2 412.8,299.6 412.4,298.6 412,299.6 411.4,301.2 409.6,301.3 408.4,301.3 409.4,302 
					410.8,303 410.3,304.7 410,305.8 410.9,305.1 412.4,304.1 413.9,305.1 414.9,305.8 414.5,304.7 414,303 415.4,302 416.4,301.3 
					415.2,301.3 				"/>
				<polygon points="426.3,304.7 425.7,303 425.3,302 424.9,303 424.3,304.7 422.5,304.7 421.3,304.7 422.3,305.4 423.7,306.5 
					423.2,308.1 422.8,309.2 423.8,308.5 425.3,307.5 426.8,308.5 427.7,309.2 427.4,308.1 426.9,306.5 428.3,305.4 429.3,304.7 
					428.1,304.7 				"/>
				<polygon class="st2" points="426.3,304.7 425.7,303 425.3,302 424.9,303 424.3,304.7 422.5,304.7 421.3,304.7 422.3,305.4 
					423.7,306.5 423.2,308.1 422.8,309.2 423.8,308.5 425.3,307.5 426.8,308.5 427.7,309.2 427.4,308.1 426.9,306.5 428.3,305.4 
					429.3,304.7 428.1,304.7 				"/>
				<polygon points="439,301.3 438.5,299.7 438.1,298.6 437.7,299.7 437.1,301.3 435.3,301.3 434.1,301.3 435.1,302.1 436.5,303.1 
					436,304.7 435.6,305.8 436.6,305.2 438.1,304.2 439.6,305.2 440.5,305.8 440.2,304.7 439.7,303.1 441.1,302.1 442.1,301.3 
					440.8,301.3 				"/>
				<polygon class="st2" points="439,301.3 438.5,299.7 438.1,298.6 437.7,299.7 437.1,301.3 435.3,301.3 434.1,301.3 435.1,302.1 
					436.5,303.1 436,304.7 435.6,305.8 436.6,305.2 438.1,304.2 439.6,305.2 440.5,305.8 440.2,304.7 439.7,303.1 441.1,302.1 
					442.1,301.3 440.8,301.3 				"/>
				<polygon points="448.3,292.1 447.7,290.5 447.4,289.4 447,290.5 446.4,292.1 444.6,292.1 443.4,292.1 444.4,292.9 445.8,293.9 
					445.3,295.5 444.9,296.6 445.9,296 447.4,295 448.8,296 449.8,296.6 449.4,295.5 448.9,293.9 450.4,292.9 451.4,292.1 
					450.1,292.1 				"/>
				<polygon class="st2" points="448.3,292.1 447.7,290.5 447.4,289.4 447,290.5 446.4,292.1 444.6,292.1 443.4,292.1 444.4,292.9 
					445.8,293.9 445.3,295.5 444.9,296.6 445.9,296 447.4,295 448.8,296 449.8,296.6 449.4,295.5 448.9,293.9 450.4,292.9 
					451.4,292.1 450.1,292.1 				"/>
				<g>
					<g>
						<defs>
							<rect id="SVGID_00000160149387240381796210000016112096907202308487_" x="366.8" y="241.2" width="343.1" height="79.4"/>
						</defs>
						<clipPath id="SVGID_00000124863875435907281170000013137274271963323071_">
							<use xlink:href="#SVGID_00000160149387240381796210000016112096907202308487_"  style="overflow:visible;"/>
						</clipPath>
						<g style="clip-path:url(#SVGID_00000124863875435907281170000013137274271963323071_);">
							<path class="st1" d="M509.1,257l2.3,0.6c-0.3,1.6-1.2,3.1-2.5,4.2c-1.3,1-2.9,1.5-4.5,1.5c-1.6,0.1-3.1-0.3-4.5-1.1
								c-1.2-0.8-2.1-1.9-2.6-3.2c-0.6-1.4-0.9-3-0.9-4.5c0-1.6,0.3-3.2,1-4.6c0.6-1.3,1.6-2.3,2.9-3c1.3-0.7,2.7-1,4.1-1
								c1.5,0,3,0.4,4.3,1.3c1.2,0.9,2,2.2,2.4,3.6l-2.2,0.5c-0.3-1.1-0.9-2-1.7-2.7c-0.8-0.6-1.8-0.9-2.8-0.8c-1.2,0-2.3,0.3-3.2,1
								c-0.9,0.6-1.5,1.5-1.8,2.5c-0.4,1-0.5,2.1-0.5,3.3c0,1.3,0.2,2.6,0.6,3.8c0.4,1,1,1.9,2,2.4c0.9,0.5,1.9,0.8,2.9,0.8
								c1.2,0,2.3-0.4,3.2-1.1C508.4,259.4,509,258.2,509.1,257"/>
							<path class="st1" d="M513.1,256.8c-0.1-1.9,0.5-3.7,1.9-5c1.1-0.9,2.5-1.4,3.9-1.4c1.6-0.1,3.1,0.5,4.1,1.7
								c1.1,1.2,1.7,2.9,1.6,4.5c0.1,1.3-0.2,2.6-0.7,3.7c-0.5,0.9-1.2,1.6-2.1,2.1c-0.9,0.5-1.9,0.8-3,0.8c-1.5,0.1-3-0.5-4.1-1.6
								C513.6,260.3,513.1,258.6,513.1,256.8 M515.3,256.8c-0.1,1.3,0.3,2.5,1,3.5c1.2,1.4,3.4,1.6,4.8,0.4l0,0
								c0.1-0.1,0.2-0.2,0.3-0.3c0.8-1,1.1-2.3,1-3.6c0.1-1.2-0.3-2.4-1-3.4c-1.2-1.4-3.4-1.6-4.8-0.3l0,0c-0.1,0.1-0.2,0.2-0.3,0.3
								C515.6,254.4,515.2,255.6,515.3,256.8"/>
							<path class="st1" d="M527.5,263v-10.7h-1.8v-1.6h1.8v-1.3c0-0.6,0-1.2,0.2-1.8c0.2-0.5,0.6-1,1.1-1.3
								c0.6-0.4,1.4-0.5,2.1-0.5c0.6,0,1.3,0.1,1.9,0.2l-0.3,1.8c-0.4-0.1-0.8-0.1-1.2-0.1c-0.5,0-1,0.1-1.3,0.4
								c-0.3,0.4-0.5,1-0.4,1.5v1.1h2.4v1.6h-2.4v10.6L527.5,263z"/>
							<path class="st1" d="M533.6,246h2.1v2.4h-2.1V246z M533.6,250.7h2.1V263h-2.1V250.7z"/>
							<path class="st1" d="M538.9,263v-12.3h1.9v1.7c0.9-1.3,2.3-2.1,3.9-2c0.7,0,1.4,0.1,2,0.4c0.5,0.2,1,0.6,1.4,1
								c0.3,0.5,0.5,1,0.6,1.5c0.1,0.7,0.1,1.3,0.1,2v7.6h-2v-7.4c0-0.6-0.1-1.3-0.2-1.9c-0.2-0.4-0.5-0.8-0.9-1
								c-0.4-0.3-0.9-0.4-1.5-0.4c-0.8,0-1.6,0.3-2.3,0.8c-0.8,0.9-1.1,2-1,3.2v6.7h-2V263z"/>
							<path class="st1" d="M560,261.4c-0.7,0.6-1.4,1.1-2.3,1.4c-0.7,0.3-1.5,0.4-2.3,0.4c-1.1,0.1-2.2-0.3-3.1-1
								c-0.7-0.6-1.2-1.6-1.1-2.5c0-1.1,0.5-2.2,1.5-2.8c0.5-0.3,1-0.5,1.5-0.7c0.6-0.1,1.2-0.2,1.8-0.3c1.3-0.1,2.5-0.4,3.7-0.7
								v-0.5c0.1-0.7-0.1-1.3-0.6-1.8c-0.7-0.5-1.5-0.8-2.4-0.7c-0.8-0.1-1.5,0.1-2.2,0.5c-0.5,0.5-0.9,1.1-1,1.8l-2-0.3
								c0.1-0.8,0.5-1.5,0.9-2.1c0.5-0.6,1.2-1,1.9-1.2c0.9-0.3,1.8-0.4,2.8-0.4c0.9,0,1.7,0.1,2.6,0.4c0.6,0.2,1.1,0.5,1.5,0.9
								c0.3,0.4,0.5,0.9,0.6,1.4c0.1,0.6,0.1,1.3,0.1,1.9v2.8c0,1.2,0,2.4,0.1,3.7c0.1,0.5,0.3,1,0.5,1.5h-2.1
								C560.2,262.5,560.1,262,560,261.4 M559.9,256.8c-1.1,0.4-2.2,0.6-3.4,0.8c-0.6,0.1-1.2,0.2-1.8,0.4c-0.3,0.1-0.6,0.4-0.8,0.7
								c-0.5,0.8-0.4,1.8,0.3,2.4c0.5,0.4,1.2,0.6,1.8,0.6c0.7,0,1.5-0.2,2.1-0.5c0.6-0.3,1.1-0.8,1.4-1.4c0.3-0.7,0.4-1.4,0.3-2.1
								L559.9,256.8z"/>
							<path class="st1" d="M565.2,263v-12.3h1.9v1.7c0.9-1.3,2.3-2.1,3.9-2c0.7,0,1.4,0.1,2,0.4c0.5,0.2,1,0.6,1.4,1
								c0.3,0.5,0.5,1,0.6,1.5c0.1,0.7,0.1,1.4,0.1,2v7.5H573v-7.5c0-0.6,0-1.3-0.2-1.9c-0.2-0.4-0.5-0.8-0.9-1
								c-0.4-0.3-0.9-0.4-1.4-0.4c-0.8,0-1.6,0.3-2.3,0.8c-0.8,0.9-1.1,2-1,3.2v6.7h-2V263z"/>
							<path class="st1" d="M586.3,258.5l2,0.3c-0.2,1.3-0.8,2.5-1.7,3.3c-0.9,0.8-2.2,1.2-3.4,1.2c-1.5,0.1-3-0.5-4-1.7
								c-1.1-1.3-1.6-3-1.5-4.7c0-1.2,0.2-2.4,0.7-3.5c0.4-1,1.1-1.8,2-2.3s1.9-0.7,2.9-0.7c1.2-0.1,2.3,0.3,3.3,1
								c0.9,0.7,1.5,1.7,1.6,2.9l-2,0.3c-0.1-0.7-0.5-1.4-1-1.9c-0.5-0.4-1.1-0.6-1.8-0.6c-1,0-1.9,0.4-2.5,1.1
								c-0.7,1-1.1,2.3-1,3.6c-0.1,1.3,0.2,2.5,1,3.6c0.6,0.7,1.5,1.2,2.5,1.1c0.8,0,1.5-0.2,2-0.7
								C585.9,260.1,586.3,259.3,586.3,258.5"/>
							<path class="st1" d="M590.2,246h2.1v2.4h-2.1V246z M590.2,250.7h2.1V263h-2.1V250.7z"/>
							<path class="st1" d="M603.4,261.4c-0.7,0.6-1.4,1.1-2.3,1.4c-0.7,0.3-1.5,0.4-2.3,0.4c-1.1,0.1-2.2-0.3-3.1-1
								c-0.7-0.6-1.2-1.6-1.1-2.5c0-1.1,0.5-2.2,1.5-2.8c0.5-0.3,1-0.5,1.5-0.7c0.6-0.1,1.2-0.3,1.8-0.3c1.3-0.1,2.5-0.4,3.7-0.7
								c0-0.3,0-0.5,0-0.5c0.1-0.7-0.1-1.3-0.6-1.8c-0.7-0.5-1.5-0.8-2.4-0.7c-0.8-0.1-1.5,0.1-2.2,0.5c-0.5,0.5-0.9,1.1-1,1.8
								l-2-0.3c0.1-0.8,0.5-1.5,0.9-2.1c0.5-0.6,1.2-1,1.9-1.2c0.9-0.3,1.8-0.5,2.8-0.4c0.9,0,1.7,0.1,2.6,0.4
								c0.6,0.2,1.1,0.5,1.4,0.9c0.3,0.4,0.6,0.9,0.6,1.4c0.1,0.6,0.1,1.3,0.1,1.9v2.8c0,1.2,0,2.4,0.1,3.7c0.1,0.5,0.3,1,0.5,1.5
								h-2.2C603.6,262.5,603.5,262,603.4,261.4 M603.3,256.8c-1.1,0.4-2.2,0.6-3.4,0.8c-0.6,0.1-1.2,0.2-1.8,0.4
								c-0.3,0.1-0.6,0.4-0.8,0.7c-0.5,0.8-0.3,1.8,0.4,2.4c0.5,0.4,1.2,0.6,1.8,0.6c0.7,0,1.5-0.2,2.1-0.5c0.6-0.3,1.1-0.8,1.4-1.4
								c0.3-0.7,0.4-1.4,0.3-2.1V256.8z"/>
							<path class="st1" d="M616.5,263v-1.5c-0.7,1.2-2,1.9-3.4,1.8c-1,0-1.9-0.3-2.7-0.8c-0.8-0.6-1.5-1.3-1.9-2.3
								c-0.5-1-0.7-2.2-0.7-3.3s0.2-2.3,0.6-3.3c0.7-1.9,2.5-3.1,4.5-3.1c1.3,0,2.6,0.6,3.4,1.7v-6.1h2.1V263H616.5z M610,256.8
								c-0.1,1.3,0.3,2.5,1,3.5c0.6,0.7,1.4,1.1,2.3,1.1c0.9,0,1.7-0.4,2.3-1.1c0.7-1,1.1-2.2,1-3.4c0.1-1.3-0.2-2.6-1-3.7
								c-0.6-0.7-1.5-1.2-2.4-1.1c-0.9,0-1.7,0.4-2.3,1.1C610.2,254.3,609.9,255.6,610,256.8"/>
							<path class="st1" d="M621,256.8c-0.2-1.9,0.5-3.7,1.9-5c1.1-0.9,2.5-1.4,3.9-1.4c1.5-0.1,3.1,0.5,4.1,1.7
								c1.1,1.2,1.7,2.9,1.6,4.5c0.1,1.3-0.2,2.6-0.7,3.7c-0.5,0.9-1.2,1.6-2.1,2.1c-0.9,0.5-1.9,0.8-3,0.8
								c-1.5,0.1-3.1-0.5-4.2-1.6C621.4,260.3,620.8,258.6,621,256.8 M623.1,256.8c-0.1,1.3,0.3,2.5,1,3.5c1.2,1.4,3.4,1.6,4.8,0.4
								l0,0c0.1-0.1,0.2-0.2,0.3-0.3c0.8-1,1.1-2.3,1-3.6c0.1-1.2-0.3-2.4-1-3.4c-1.2-1.4-3.4-1.6-4.8-0.3l0,0
								c-0.1,0.1-0.2,0.2-0.3,0.3C623.4,254.4,623,255.6,623.1,256.8"/>
							<path class="st1" d="M641.4,267.6v-17h1.9v1.6c0.4-0.6,0.9-1.1,1.5-1.4s1.3-0.5,2-0.5c1,0,2,0.3,2.8,0.8
								c0.8,0.6,1.4,1.3,1.8,2.3c0.8,2.1,0.8,4.5-0.1,6.6c-0.8,1.9-2.6,3.1-4.7,3.1c-0.6,0-1.3-0.1-1.9-0.4c-0.5-0.3-1-0.7-1.4-1.1
								v6C643.3,267.6,641.4,267.6,641.4,267.6z M643.3,256.9c-0.1,1.2,0.2,2.5,1,3.5c0.6,0.7,1.4,1.1,2.3,1.1
								c0.9,0,1.8-0.4,2.4-1.1c0.7-1.1,1.1-2.3,1-3.6c0.1-1.2-0.2-2.5-1-3.5c-0.5-0.7-1.4-1.1-2.3-1.1c-0.9,0-1.8,0.5-2.3,1.2
								C643.6,254.4,643.3,255.7,643.3,256.9L643.3,256.9z"/>
							<path class="st1" d="M653.8,256.8c-0.1-1.9,0.5-3.7,1.9-5c1.1-0.9,2.5-1.4,3.9-1.4c1.5-0.1,3,0.5,4.1,1.7s1.7,2.9,1.6,4.5
								c0.1,1.3-0.2,2.6-0.7,3.7c-0.5,0.9-1.2,1.6-2.1,2.1c-0.9,0.5-1.9,0.8-3,0.8c-1.5,0.1-3-0.5-4.1-1.6
								C654.3,260.3,653.8,258.6,653.8,256.8 M656,256.8c-0.1,1.3,0.3,2.5,1,3.5c1.2,1.4,3.4,1.6,4.8,0.4l0,0
								c0.1-0.1,0.2-0.2,0.3-0.3c0.8-1,1.1-2.3,1-3.6c0.1-1.2-0.3-2.4-1-3.4c-1.2-1.4-3.4-1.6-4.8-0.3l0,0c-0.1,0.1-0.2,0.2-0.3,0.3
								C656.3,254.4,655.9,255.6,656,256.8L656,256.8z"/>
							<path class="st1" d="M667.7,263v-12.3h1.9v1.9c0.3-0.6,0.8-1.2,1.3-1.7c0.4-0.3,0.9-0.4,1.3-0.4c0.8,0,1.5,0.2,2.1,0.7
								l-0.7,1.9c-0.5-0.3-1-0.4-1.5-0.5c-0.4,0-0.9,0.1-1.2,0.4c-0.4,0.3-0.6,0.7-0.8,1.1c-0.2,0.8-0.4,1.6-0.3,2.4v6.4L667.7,263z
								"/>
							<path class="st1" d="M690.6,259l2.2,0.3c-0.3,1.2-1,2.2-1.9,2.9c-1,0.7-2.3,1.1-3.5,1c-1.6,0.1-3.1-0.5-4.3-1.7
								c-1.1-1.3-1.6-3-1.5-4.7c-0.1-1.7,0.5-3.5,1.6-4.8c1.1-1.1,2.6-1.8,4.1-1.7c1.5-0.1,3,0.6,4,1.7c1.1,1.3,1.7,3,1.6,4.7
								c0,0.1,0,0.3,0,0.5h-9.2c0,1.1,0.4,2.2,1.1,3.1c0.7,0.7,1.6,1.1,2.6,1.1c0.7,0,1.4-0.2,2-0.6
								C690,260.4,690.4,259.8,690.6,259 M683.8,255.6h6.8c0-0.8-0.3-1.6-0.8-2.3c-0.6-0.8-1.6-1.3-2.6-1.2c-0.9,0-1.8,0.3-2.4,1
								C684.1,253.8,683.8,254.7,683.8,255.6"/>
							<rect x="695.3" y="246" class="st1" width="2.1" height="16.9"/>
							<path class="st1" d="M496.8,294.2v-17h1.9v1.6c0.4-0.6,0.9-1.1,1.5-1.4c0.6-0.3,1.4-0.4,2.1-0.4c1,0,2,0.3,2.8,0.8
								c0.8,0.6,1.4,1.3,1.8,2.3c0.9,2.1,0.9,4.5,0,6.6c-0.4,0.9-1.1,1.7-2,2.3c-0.8,0.5-1.7,0.8-2.7,0.8c-0.6,0-1.3-0.1-1.9-0.4
								c-0.5-0.3-1-0.7-1.4-1.1v6L496.8,294.2z M498.7,283.4c-0.1,1.2,0.2,2.5,1,3.5c0.5,0.7,1.4,1.1,2.3,1.1c0.9,0,1.8-0.4,2.4-1.1
								c0.7-1.1,1.1-2.3,1-3.6c0.1-1.2-0.2-2.5-1-3.5c-0.5-0.7-1.4-1.1-2.3-1.1c-0.9,0-1.8,0.5-2.4,1.2
								C498.9,280.9,498.6,282.2,498.7,283.4"/>
							<path class="st1" d="M509.9,289.4v-12.2h1.9v1.9c0.3-0.7,0.8-1.2,1.3-1.7c0.4-0.3,0.9-0.4,1.3-0.4c0.8,0,1.5,0.2,2.1,0.7
								l-0.7,1.9c-0.5-0.3-1-0.4-1.5-0.5c-0.4,0-0.9,0.1-1.2,0.4c-0.4,0.3-0.6,0.7-0.8,1.1c-0.2,0.8-0.4,1.6-0.3,2.4v6.4H509.9z"/>
							<path class="st1" d="M517,283.3c-0.1-1.9,0.5-3.7,1.9-5c1.1-0.9,2.5-1.4,3.9-1.3c1.5-0.1,3,0.5,4.1,1.7
								c1.1,1.2,1.7,2.9,1.6,4.5c0.1,1.3-0.2,2.6-0.7,3.7c-0.5,0.9-1.2,1.6-2.1,2.1c-0.9,0.5-1.9,0.8-3,0.7
								c-1.6,0.1-3.1-0.5-4.2-1.7C517.5,286.8,516.9,285.1,517,283.3 M519.2,283.3c-0.1,1.3,0.3,2.5,1,3.5c1.2,1.4,3.4,1.6,4.8,0.4
								l0,0c0.1-0.1,0.2-0.2,0.3-0.3c0.8-1,1.1-2.3,1-3.6c0.1-1.2-0.3-2.4-1-3.4c-1.2-1.4-3.4-1.6-4.8-0.4l0,0l-0.3,0.3
								C519.4,280.9,519.1,282.1,519.2,283.3"/>
							<path class="st1" d="M530.7,290.5l2,0.3c0,0.5,0.3,1,0.7,1.4c0.6,0.4,1.4,0.6,2.1,0.6c0.8,0.1,1.6-0.1,2.3-0.6
								c0.5-0.4,0.9-1,1.1-1.6c0.1-0.9,0.2-1.8,0.1-2.7c-0.8,1-2.1,1.6-3.4,1.6c-1.5,0.1-3-0.6-3.9-1.8c-0.9-1.3-1.4-2.8-1.4-4.4
								c0-1.1,0.2-2.2,0.6-3.2c0.4-0.9,1-1.7,1.8-2.3s1.8-0.8,2.8-0.8c1.4,0,2.7,0.6,3.6,1.7v-1.5h1.9v10.6c0.1,1.4-0.1,2.8-0.6,4.1
								c-0.4,0.8-1.1,1.5-1.9,1.9c-1,0.5-2,0.7-3.1,0.7c-1.3,0.1-2.5-0.3-3.6-1C531,292.7,530.5,291.6,530.7,290.5 M532.4,283.1
								c-0.1,1.3,0.2,2.5,1,3.5c1.1,1.3,3.2,1.5,4.5,0.3c0.1-0.1,0.2-0.2,0.3-0.3c0.7-1,1.1-2.2,1-3.5c0.1-1.2-0.3-2.4-1-3.4
								c-0.6-0.7-1.5-1.1-2.4-1.1s-1.8,0.4-2.3,1.1C532.6,280.7,532.3,281.9,532.4,283.1"/>
							<path class="st1" d="M544.1,289.4v-12.2h1.9v1.9c0.3-0.7,0.8-1.3,1.3-1.7c0.4-0.3,0.9-0.4,1.3-0.4c0.8,0,1.5,0.2,2.1,0.7
								l-0.7,1.9c-0.5-0.3-1-0.4-1.5-0.5c-0.4,0-0.9,0.1-1.2,0.4c-0.4,0.3-0.6,0.7-0.8,1.1c-0.2,0.8-0.4,1.6-0.3,2.4v6.4H544.1z"/>
							<path class="st1" d="M560,287.9c-0.7,0.6-1.4,1.1-2.3,1.4c-0.7,0.3-1.5,0.4-2.3,0.4c-1.1,0.1-2.2-0.3-3.1-1
								c-0.7-0.6-1.2-1.6-1.1-2.5c0-1.1,0.5-2.2,1.5-2.8c0.5-0.3,1-0.5,1.5-0.7c0.6-0.1,1.2-0.3,1.8-0.3c1.3-0.1,2.5-0.4,3.7-0.7
								v-0.5c0.1-0.7-0.1-1.3-0.6-1.8c-0.7-0.5-1.5-0.8-2.4-0.7c-0.8-0.1-1.5,0.1-2.2,0.5c-0.5,0.5-0.9,1.1-1,1.8l-2-0.3
								c0.1-0.8,0.5-1.5,0.9-2.1c0.5-0.6,1.1-1,1.8-1.2c0.9-0.3,1.8-0.5,2.8-0.4c0.9,0,1.7,0.1,2.6,0.4c0.6,0.2,1.1,0.5,1.5,0.9
								c0.3,0.4,0.5,0.9,0.6,1.4c0.1,0.6,0.1,1.3,0.1,1.9v2.8c0,1.2,0,2.4,0.1,3.7c0.1,0.5,0.3,1,0.5,1.5h-2
								C560.1,289,560,288.5,560,287.9 M559.8,283.3c-1.1,0.4-2.2,0.6-3.4,0.8c-0.6,0.1-1.2,0.2-1.8,0.4c-0.3,0.1-0.6,0.4-0.8,0.7
								c-0.5,0.8-0.4,1.8,0.3,2.4c0.5,0.4,1.2,0.6,1.8,0.6c0.7,0,1.5-0.2,2.1-0.5c0.6-0.3,1.1-0.8,1.4-1.4c0.3-0.7,0.4-1.4,0.3-2.1
								L559.8,283.3z"/>
							<path class="st1" d="M565.2,289.4v-12.2h1.9v1.7c0.8-1.3,2.2-2,3.7-2c0.8,0,1.6,0.2,2.3,0.6c0.6,0.4,1,0.9,1.2,1.6
								c0.8-1.3,2.2-2.1,3.8-2.1c1-0.1,2.1,0.3,2.8,1c0.7,0.9,1.1,2,1,3.1v8.4h-2.1v-7.7c0-0.6,0-1.2-0.2-1.8
								c-0.1-0.4-0.4-0.7-0.7-0.9c-0.4-0.2-0.8-0.3-1.2-0.3c-0.8,0-1.6,0.3-2.1,0.9c-0.6,0.8-0.9,1.8-0.9,2.8v7.1h-2.1v-7.9
								c0.1-0.7-0.1-1.5-0.5-2.1c-0.4-0.5-1-0.7-1.7-0.7c-0.6,0-1.1,0.2-1.6,0.5c-0.5,0.3-0.9,0.8-1.1,1.4c-0.3,0.8-0.4,1.7-0.3,2.6
								v6.3h-2.2V289.4z"/>
							<path class="st1" d="M592.9,287.9c-0.7,0.6-1.4,1.1-2.3,1.4c-0.7,0.3-1.5,0.4-2.3,0.4c-1.1,0.1-2.2-0.3-3.1-1
								c-1.1-1.1-1.4-2.8-0.7-4.2c0.3-0.5,0.6-0.9,1.1-1.2c0.5-0.3,1-0.5,1.5-0.7c0.6-0.1,1.2-0.3,1.8-0.3c1.3-0.1,2.5-0.4,3.7-0.7
								v-0.5c0.1-0.7-0.1-1.3-0.6-1.8c-0.7-0.5-1.5-0.8-2.4-0.7c-0.8-0.1-1.5,0.1-2.2,0.5c-0.5,0.5-0.9,1.1-1,1.8l-2-0.3
								c0.1-0.8,0.4-1.5,0.9-2.1s1.1-1,1.8-1.2c0.9-0.3,1.8-0.5,2.8-0.4c0.9,0,1.7,0.1,2.6,0.4c0.6,0.2,1.1,0.5,1.5,0.9
								c0.3,0.4,0.5,0.9,0.6,1.4c0.1,0.6,0.1,1.3,0.1,1.9v2.8c0,1.2,0,2.4,0.1,3.7c0.1,0.5,0.3,1,0.5,1.5h-2.2
								C593.1,289,592.9,288.5,592.9,287.9 M592.7,283.3c-1.1,0.4-2.2,0.6-3.4,0.8c-0.6,0.1-1.2,0.2-1.8,0.4
								c-0.3,0.1-0.6,0.4-0.8,0.7c-0.5,0.8-0.3,1.8,0.3,2.4c0.5,0.4,1.2,0.6,1.8,0.6c0.7,0,1.5-0.2,2.1-0.5c0.6-0.3,1.1-0.8,1.4-1.4
								c0.3-0.7,0.4-1.4,0.3-2.1L592.7,283.3z"/>
							<polygon class="st1" points="604.9,289.4 604.9,272.5 617.2,272.5 617.2,274.5 607.2,274.5 607.2,279.7 616.5,279.7 
								616.5,281.7 607.2,281.7 607.2,287.4 617.6,287.4 617.6,289.4 							"/>
							<path class="st1" d="M620.4,289.4v-12.2h1.9v1.9c0.3-0.7,0.8-1.2,1.3-1.7c0.4-0.3,0.9-0.4,1.3-0.4c0.8,0,1.5,0.2,2.1,0.7
								l-0.7,1.9c-0.5-0.3-1-0.4-1.5-0.5c-0.4,0-0.9,0.1-1.2,0.4c-0.4,0.3-0.6,0.7-0.8,1.1c-0.2,0.8-0.4,1.6-0.4,2.4v6.4H620.4z"/>
							<path class="st1" d="M636.3,287.9c-0.7,0.6-1.4,1.1-2.3,1.4c-0.7,0.3-1.5,0.4-2.3,0.4c-1.1,0.1-2.2-0.3-3.1-1
								c-0.7-0.6-1.1-1.6-1.1-2.5c0-1.1,0.5-2.2,1.5-2.8c0.5-0.3,1-0.5,1.5-0.7c0.6-0.1,1.2-0.3,1.8-0.3c1.3-0.1,2.5-0.4,3.7-0.7
								c0-0.3,0-0.5,0-0.5c0.1-0.7-0.1-1.3-0.6-1.8c-0.7-0.5-1.5-0.8-2.4-0.7c-0.8-0.1-1.5,0.1-2.2,0.5c-0.5,0.5-0.9,1.1-1,1.8
								l-2-0.3c0.1-0.8,0.5-1.5,0.9-2.1c0.5-0.6,1.1-1,1.8-1.2c0.9-0.3,1.8-0.5,2.8-0.4c0.9,0,1.7,0.1,2.6,0.4
								c0.6,0.2,1.1,0.5,1.5,0.9c0.3,0.4,0.6,0.9,0.6,1.4c0.1,0.6,0.1,1.3,0.1,1.9v2.8c0,1.2,0,2.4,0.1,3.7c0.1,0.5,0.3,1,0.5,1.5
								h-2.2C636.4,289,636.2,288.5,636.3,287.9 M636,283.3c-1.1,0.4-2.2,0.6-3.4,0.8c-0.6,0.1-1.2,0.2-1.8,0.4
								c-0.9,0.4-1.4,1.4-1,2.3c0.1,0.3,0.3,0.5,0.5,0.7c0.5,0.4,1.2,0.6,1.8,0.6c0.7,0,1.5-0.2,2.1-0.5c0.6-0.3,1.1-0.8,1.4-1.4
								c0.3-0.7,0.4-1.4,0.3-2.1L636,283.3z"/>
							<path class="st1" d="M640.6,285.8l2.1-0.3c0.1,0.7,0.4,1.4,1,1.9c0.7,0.5,1.5,0.7,2.3,0.7c0.8,0.1,1.5-0.1,2.1-0.6
								c0.4-0.3,0.7-0.9,0.7-1.4s-0.2-0.9-0.6-1.1c-0.7-0.3-1.4-0.6-2.1-0.7c-1.1-0.2-2.1-0.6-3.2-1c-1.1-0.5-1.8-1.6-1.8-2.8
								c0-0.5,0.1-1,0.4-1.5c0.3-0.5,0.6-0.8,1-1.1s0.8-0.5,1.3-0.6c0.6-0.2,1.2-0.2,1.8-0.2c0.9,0,1.7,0.1,2.5,0.4
								c0.6,0.2,1.2,0.6,1.6,1.1c0.4,0.6,0.6,1.2,0.7,1.9l-2,0.3c-0.1-0.6-0.3-1.1-0.8-1.5s-1.2-0.6-1.9-0.5c-0.7-0.1-1.4,0.1-2,0.5
								c-0.4,0.3-0.6,0.7-0.6,1.1c0,0.3,0.1,0.5,0.2,0.7c0.2,0.3,0.5,0.4,0.8,0.6c0.2,0.1,0.8,0.3,1.8,0.5c1,0.3,2.1,0.6,3.1,1
								c1.2,0.4,1.9,1.6,1.9,2.9c0,0.7-0.2,1.4-0.6,2c-0.4,0.6-1,1.1-1.8,1.4c-0.8,0.4-1.7,0.5-2.6,0.5c-1.3,0.1-2.6-0.3-3.6-1
								C641.3,288,640.7,286.9,640.6,285.8"/>
							<path class="st1" d="M653.2,289.4v-12.2h1.9v1.7c0.8-1.3,2.3-2,3.8-2c0.8,0,1.6,0.2,2.3,0.6c0.5,0.4,0.9,0.9,1.1,1.5
								c0.8-1.3,2.3-2.1,3.8-2.1c1-0.1,2.1,0.3,2.8,1c0.7,0.9,1.1,2,1,3.1v8.4h-2.1v-7.7c0-0.6,0-1.2-0.2-1.8
								c-0.1-0.4-0.4-0.7-0.7-0.9c-0.4-0.2-0.8-0.4-1.2-0.3c-0.8,0-1.6,0.3-2.1,0.9c-0.6,0.8-0.9,1.8-0.9,2.8v7.1h-2.1v-7.9
								c0.1-0.7-0.1-1.5-0.5-2.1c-0.4-0.5-1-0.7-1.7-0.7c-0.6,0-1.1,0.2-1.6,0.5s-0.9,0.8-1.1,1.4c-0.3,0.8-0.4,1.7-0.3,2.6v6.3
								h-2.2V289.4z"/>
							<path class="st1" d="M681,289.4v-1.8c-0.9,1.3-2.3,2.1-3.9,2.1c-0.7,0-1.4-0.1-2-0.4c-0.6-0.2-1.1-0.6-1.4-1
								c-0.3-0.5-0.5-1-0.6-1.5c-0.1-0.6-0.1-1.3-0.1-1.9v-7.6h2.1v6.8c0,0.7,0,1.5,0.1,2.2c0.1,0.5,0.4,1,0.8,1.3
								c0.5,0.3,1,0.5,1.6,0.5s1.2-0.2,1.7-0.5c0.5-0.3,0.9-0.8,1.1-1.3c0.3-0.8,0.4-1.6,0.3-2.4v-6.6h2.1v12.3H681V289.4z"/>
							<path class="st1" d="M685.3,285.8l2.1-0.3c0.1,0.7,0.4,1.4,1,1.9c0.7,0.5,1.5,0.7,2.3,0.7c0.8,0.1,1.5-0.1,2.1-0.6
								c0.4-0.3,0.7-0.8,0.7-1.4c0-0.5-0.2-0.9-0.6-1.1c-0.7-0.3-1.4-0.6-2.1-0.7c-1.1-0.2-2.1-0.6-3.2-1c-1.6-0.7-2.2-2.6-1.5-4.1
								c0-0.1,0.1-0.1,0.1-0.2c0.2-0.5,0.6-0.8,1-1.1s0.8-0.5,1.3-0.6c0.6-0.2,1.2-0.2,1.8-0.2c0.9,0,1.7,0.1,2.5,0.4
								c0.6,0.2,1.2,0.6,1.6,1.1c0.4,0.6,0.6,1.2,0.7,1.9l-2,0.3c-0.1-0.6-0.4-1.1-0.8-1.5c-0.5-0.4-1.2-0.6-1.9-0.5
								c-0.7-0.1-1.4,0.1-2.1,0.5c-0.4,0.3-0.6,0.7-0.6,1.1c0,0.3,0.1,0.5,0.3,0.7c0.2,0.3,0.5,0.4,0.8,0.6c0.2,0.1,0.8,0.3,1.8,0.5
								c1,0.3,2.1,0.6,3.1,1c0.6,0.2,1,0.6,1.4,1.1c0.3,0.5,0.5,1.1,0.5,1.8c0,0.7-0.2,1.4-0.6,2c-0.4,0.6-1,1.1-1.7,1.4
								c-0.8,0.4-1.7,0.5-2.6,0.5c-1.3,0.1-2.6-0.3-3.6-1C686,288.1,685.5,287,685.3,285.8"/>
							<polygon class="st1" points="702.3,286.7 702.3,282.1 697.7,282.1 697.7,280.1 702.3,280.1 702.3,275.5 704.3,275.5 
								704.3,280.1 708.9,280.1 708.9,282.1 704.3,282.1 704.3,286.7 							"/>
							<path class="st1" d="M504.8,315.9v-1.5c-0.7,1.2-2,1.9-3.4,1.8c-1,0-1.9-0.3-2.7-0.8c-0.8-0.6-1.5-1.3-1.9-2.3
								c-0.5-1-0.7-2.2-0.7-3.3s0.2-2.3,0.6-3.3c0.4-0.9,1-1.7,1.8-2.3c0.8-0.5,1.8-0.8,2.7-0.8c1.3,0,2.6,0.6,3.4,1.7V299h2.1v16.9
								H504.8z M498.2,309.8c-0.1,1.3,0.3,2.5,1,3.5c0.6,0.7,1.4,1.1,2.3,1.1c0.9,0,1.7-0.4,2.3-1.1c0.7-1,1.1-2.2,1-3.4
								c0.1-1.3-0.2-2.6-1-3.7c-0.6-0.7-1.5-1.1-2.4-1.1s-1.7,0.4-2.3,1.1C498.4,307.3,498.1,308.5,498.2,309.8"/>
							<path class="st1" d="M518.4,312l2.2,0.3c-0.3,1.2-0.9,2.2-1.9,2.9c-2.4,1.6-5.6,1.3-7.8-0.6c-1.1-1.3-1.7-3-1.6-4.7
								c-0.1-1.7,0.5-3.5,1.6-4.8c1.1-1.1,2.6-1.8,4.1-1.7c1.5,0,3,0.6,4,1.7c1.1,1.3,1.7,3,1.6,4.7v0.6h-9.2c0,1.1,0.4,2.2,1.1,3.1
								c0.7,0.7,1.6,1.1,2.6,1.1c0.7,0,1.4-0.2,2-0.6C517.7,313.4,518.1,312.7,518.4,312 M511.5,308.6h6.8c0-0.8-0.3-1.6-0.8-2.3
								c-0.6-0.8-1.6-1.2-2.6-1.2c-0.9,0-1.8,0.3-2.4,1C511.9,306.8,511.5,307.7,511.5,308.6"/>
							<rect x="529.6" y="299" class="st1" width="2.1" height="16.9"/>
							<path class="st1" d="M542.9,314.4c-0.7,0.6-1.4,1-2.3,1.4c-0.7,0.3-1.5,0.4-2.3,0.4c-1.1,0.1-2.2-0.3-3.1-1
								c-0.7-0.6-1.1-1.6-1.1-2.5c0-0.6,0.1-1.1,0.4-1.6c0.3-0.5,0.7-0.9,1.1-1.1c0.5-0.3,1-0.5,1.5-0.7c0.6-0.1,1.2-0.2,1.8-0.3
								c1.3-0.1,2.5-0.4,3.7-0.7v-0.6c0.1-0.7-0.1-1.3-0.6-1.8c-0.7-0.5-1.5-0.8-2.4-0.7c-0.8-0.1-1.5,0.1-2.2,0.5
								c-0.5,0.5-0.9,1.1-1,1.8l-2-0.3c0.1-0.8,0.5-1.5,0.9-2.1c0.5-0.6,1.1-1,1.8-1.2c0.9-0.3,1.8-0.5,2.8-0.4
								c0.9,0,1.7,0.1,2.6,0.4c1.1,0.3,1.9,1.2,2.1,2.3c0.1,0.6,0.1,1.3,0.1,1.9v2.8c0,1.2,0,2.5,0.1,3.7c0.1,0.5,0.3,1,0.5,1.5
								h-2.2C543.1,315.4,543,314.9,542.9,314.4 M542.8,309.8c-1.1,0.4-2.2,0.7-3.4,0.8c-0.6,0.1-1.2,0.2-1.8,0.4
								c-0.3,0.1-0.6,0.4-0.8,0.7c-0.5,0.8-0.3,1.8,0.3,2.4c0.5,0.4,1.2,0.6,1.8,0.6c0.7,0,1.5-0.2,2.1-0.5c0.6-0.3,1.1-0.8,1.4-1.4
								c0.3-0.7,0.4-1.4,0.3-2.1L542.8,309.8z"/>
							<path class="st1" d="M566,299h2.3v9.8c0,1.4-0.1,2.7-0.6,4.1c-0.4,1-1.1,1.9-2.1,2.4c-1.2,0.7-2.6,1-3.9,0.9
								c-1.3,0-2.7-0.2-3.9-0.8c-1-0.5-1.8-1.3-2.2-2.4c-0.5-1.4-0.7-2.8-0.7-4.2V299h2.3v9.8c-0.1,1.1,0.1,2.2,0.4,3.2
								c0.3,0.7,0.7,1.3,1.4,1.6c0.7,0.4,1.6,0.6,2.4,0.6c1.3,0.1,2.6-0.3,3.5-1.1c0.9-1.3,1.2-2.8,1-4.3L566,299z"/>
							<path class="st1" d="M571.7,315.9v-12.2h1.9v1.7c0.8-1.3,2.3-2.1,3.9-2c0.7,0,1.4,0.1,2,0.4c0.5,0.2,1,0.6,1.4,1
								c0.3,0.5,0.5,1,0.7,1.5c0.1,0.7,0.1,1.3,0.1,2v7.6h-2.1v-7.5c0-0.6,0-1.3-0.2-1.9c-0.2-0.4-0.5-0.8-0.9-1
								c-0.4-0.3-0.9-0.4-1.5-0.4c-0.8,0-1.6,0.3-2.3,0.9c-0.8,0.9-1.1,2-1,3.2v6.7H571.7z"/>
							<path class="st1" d="M584.9,299h2.1v2.4h-2.1V299z M584.9,303.7h2.1v12.2h-2.1V303.7z"/>
							<path class="st1" d="M589.4,309.9c-0.2-1.9,0.5-3.7,1.9-5c1.1-0.9,2.4-1.4,3.9-1.4c1.5-0.1,3,0.5,4.1,1.6
								c1.1,1.3,1.7,2.9,1.6,4.6c0.1,1.3-0.2,2.6-0.7,3.7c-0.5,0.9-1.2,1.6-2.1,2.1c-0.9,0.5-1.9,0.8-3,0.7
								c-1.6,0.1-3.1-0.5-4.2-1.6C589.8,313.3,589.3,311.6,589.4,309.9 M591.5,309.9c-0.1,1.3,0.3,2.5,1,3.5
								c1.2,1.4,3.4,1.6,4.8,0.4l0,0c0.1-0.1,0.2-0.2,0.3-0.3c0.8-1,1.1-2.3,1-3.6c0.1-1.2-0.3-2.4-1-3.4c-1.2-1.4-3.4-1.6-4.8-0.4
								l0,0c-0.1,0.1-0.2,0.2-0.3,0.3C591.8,307.4,591.4,308.6,591.5,309.9L591.5,309.9z M594,302.2l1.5-3.2h2.7l-2.5,3.2H594z"/>
							<path class="st1" d="M603.3,315.9v-12.2h1.9v1.7c0.8-1.3,2.3-2.1,3.9-2c0.7,0,1.4,0.1,2,0.4c0.6,0.2,1,0.6,1.4,1
								c0.3,0.5,0.5,1,0.6,1.5c0.1,0.7,0.1,1.3,0.1,2v7.6h-2v-7.5c0-0.6-0.1-1.3-0.2-1.9c-0.2-0.4-0.5-0.8-0.9-1
								c-0.4-0.3-0.9-0.4-1.5-0.4c-0.8,0-1.6,0.3-2.3,0.9c-0.8,0.9-1.1,2-1,3.2v6.7H603.3z"/>
							<polygon class="st1" points="623.4,315.9 623.4,299 635.6,299 635.6,301 625.6,301 625.6,306.2 635,306.2 635,308.2 
								625.6,308.2 625.6,313.9 636,313.9 636,315.9 							"/>
							<path class="st1" d="M646.8,315.9v-1.8c-0.8,1.3-2.3,2.1-3.9,2.1c-0.7,0-1.4-0.1-2-0.4c-0.6-0.2-1-0.6-1.4-1.1
								c-0.3-0.4-0.5-0.9-0.7-1.5c-0.1-0.6-0.1-1.3-0.1-1.9v-7.6h2.1v6.8c0,0.7,0,1.5,0.1,2.2c0.1,0.5,0.4,1,0.8,1.3
								c0.5,0.3,1,0.5,1.6,0.5s1.2-0.2,1.8-0.5c0.5-0.3,0.9-0.8,1.1-1.3c0.3-0.8,0.4-1.6,0.3-2.4v-6.6h2.1v12.2H646.8z"/>
							<path class="st1" d="M651.9,315.9v-12.2h1.9v1.9c0.3-0.7,0.8-1.2,1.3-1.7c0.4-0.3,0.9-0.4,1.3-0.4c0.8,0,1.5,0.2,2.1,0.7
								l-0.7,1.9c-0.5-0.3-1-0.4-1.5-0.4c-0.4,0-0.9,0.1-1.2,0.4c-0.4,0.3-0.6,0.7-0.8,1.1c-0.2,0.8-0.4,1.6-0.4,2.4v6.3H651.9z"/>
							<path class="st1" d="M659.1,309.9c-0.1-1.9,0.5-3.7,1.9-5c1.1-0.9,2.5-1.4,3.9-1.4c1.5-0.1,3.1,0.5,4.1,1.6
								c1.1,1.3,1.7,2.9,1.6,4.6c0.1,1.3-0.2,2.6-0.7,3.7c-0.5,0.9-1.2,1.6-2.1,2.1c-0.9,0.5-1.9,0.8-3,0.7
								c-1.6,0.1-3.1-0.5-4.2-1.6C659.5,313.3,658.9,311.6,659.1,309.9 M661.2,309.9c-0.1,1.3,0.3,2.5,1,3.5
								c1.2,1.4,3.4,1.6,4.8,0.4l0,0c0.1-0.1,0.2-0.2,0.3-0.3c0.8-1,1.1-2.3,1-3.6c0.1-1.2-0.3-2.4-1-3.4c-1.2-1.4-3.4-1.6-4.8-0.4
								l0,0c-0.1,0.1-0.2,0.2-0.3,0.3C661.5,307.4,661.1,308.6,661.2,309.9"/>
							<path class="st1" d="M673,320.6v-17h1.9v1.7c0.4-0.6,0.9-1.1,1.5-1.4c0.6-0.3,1.3-0.5,2.1-0.5c2,0,3.8,1.2,4.5,3.1
								c0.4,1,0.6,2.1,0.6,3.2c0,1.2-0.2,2.3-0.7,3.4c-0.8,1.9-2.6,3.1-4.7,3.1c-0.6,0-1.3-0.1-1.9-0.4c-0.5-0.3-1-0.7-1.4-1.1v6
								L673,320.6z M674.9,309.9c-0.1,1.3,0.3,2.5,1,3.5c0.5,0.7,1.4,1.1,2.3,1.1c0.9,0,1.8-0.4,2.4-1.1c0.7-1.1,1.1-2.3,1-3.6
								c0.1-1.2-0.3-2.5-1-3.5c-0.5-0.7-1.4-1.1-2.3-1.1c-0.9,0-1.8,0.4-2.4,1.2C675.1,307.3,674.8,308.6,674.9,309.9"/>
							<path class="st1" d="M694.5,312l2.2,0.3c-0.3,1.2-0.9,2.2-1.9,2.9c-2.4,1.6-5.6,1.3-7.8-0.6c-1.1-1.3-1.7-3-1.6-4.7
								c-0.1-1.7,0.5-3.5,1.6-4.8c1.1-1.1,2.6-1.8,4.1-1.7c1.5,0,3,0.6,4,1.7c1.1,1.3,1.7,3,1.6,4.7c0,0.1,0,0.3,0,0.6h-9.1
								c0,1.1,0.4,2.2,1.1,3.1c0.7,0.7,1.6,1.1,2.6,1.1c0.7,0,1.4-0.2,2-0.6C693.9,313.4,694.4,312.7,694.5,312 M687.8,308.6h6.8
								c0-0.8-0.3-1.6-0.8-2.3c-0.6-0.8-1.6-1.2-2.6-1.2c-0.9,0-1.8,0.3-2.4,1C688.1,306.8,687.8,307.7,687.8,308.6L687.8,308.6z"/>
							<path class="st1" d="M707.3,314.4c-0.7,0.6-1.4,1.1-2.3,1.4c-0.7,0.3-1.5,0.4-2.3,0.4c-1.1,0.1-2.2-0.3-3.1-1
								c-0.7-0.6-1.2-1.6-1.1-2.5c0-1.1,0.5-2.2,1.5-2.8c0.5-0.3,1-0.5,1.5-0.7c0.6-0.1,1.2-0.2,1.8-0.3c1.3-0.1,2.5-0.4,3.7-0.7
								c0-0.3,0-0.5,0-0.5c0.1-0.7-0.1-1.3-0.6-1.8c-0.7-0.5-1.5-0.8-2.4-0.7c-0.8-0.1-1.5,0.1-2.2,0.5c-0.5,0.5-0.9,1.1-1,1.8
								l-2-0.3c0.1-0.8,0.5-1.5,0.9-2.1c0.5-0.6,1.1-1,1.8-1.2c0.9-0.3,1.8-0.5,2.8-0.4c0.9,0,1.7,0.1,2.6,0.4
								c0.6,0.2,1.1,0.5,1.5,0.9c0.3,0.4,0.5,0.9,0.6,1.4c0.1,0.6,0.1,1.3,0.1,1.9v2.8c0,1.2,0,2.5,0.1,3.7c0.1,0.5,0.3,1,0.5,1.5
								h-2.2C707.4,315.4,707.3,314.9,707.3,314.4 M707.1,309.7c-1.1,0.4-2.2,0.7-3.4,0.8c-0.6,0.1-1.2,0.3-1.8,0.5
								c-0.3,0.1-0.6,0.4-0.8,0.7c-0.5,0.8-0.3,1.8,0.3,2.4c0.5,0.4,1.2,0.6,1.8,0.6c0.7,0,1.5-0.2,2.1-0.5c0.6-0.3,1.1-0.8,1.4-1.4
								c0.3-0.7,0.4-1.4,0.3-2.1L707.1,309.7z"/>
						</g>
					</g>
				</g>
			</g>
		</g>
	</g>
</g>
</svg>
