<svg xmlns="http://www.w3.org/2000/svg" xmlns:xlink="http://www.w3.org/1999/xlink" viewBox="0 0 728.94 124.05"><defs><style>.cls-1{fill:url(#linear-gradient);}.cls-2{fill:url(#linear-gradient-2);}.cls-3{fill:url(#linear-gradient-3);}.cls-4{fill:url(#linear-gradient-4);}.cls-5{fill:url(#linear-gradient-5);}.cls-6{fill:url(#linear-gradient-6);}.cls-7{fill:url(#linear-gradient-7);}.cls-8{fill:url(#linear-gradient-8);}.cls-60,.cls-9{fill:none;}.cls-10{clip-path:url(#clip-path);}.cls-11{fill:#1e1e28;}.cls-12{clip-path:url(#clip-path-4);}.cls-13{mask:url(#mask);}.cls-14{fill:url(#linear-gradient-9);}.cls-15{clip-path:url(#clip-path-5);}.cls-16{fill:url(#linear-gradient-10);}.cls-17{clip-path:url(#clip-path-6);}.cls-18{fill:url(#linear-gradient-11);}.cls-19{clip-path:url(#clip-path-7);}.cls-20{fill:url(#linear-gradient-12);}.cls-21{clip-path:url(#clip-path-8);}.cls-22{fill:url(#linear-gradient-13);}.cls-23{clip-path:url(#clip-path-9);}.cls-24{fill:url(#linear-gradient-14);}.cls-25{clip-path:url(#clip-path-10);}.cls-26{fill:url(#linear-gradient-15);}.cls-27{opacity:0.3;}.cls-28{clip-path:url(#clip-path-12);}.cls-29{clip-path:url(#clip-path-13);}.cls-30{mask:url(#mask-2);}.cls-31{fill:url(#linear-gradient-16);}.cls-32{clip-path:url(#clip-path-14);}.cls-33{clip-path:url(#clip-path-15);}.cls-34{mask:url(#mask-3);}.cls-35{fill:url(#linear-gradient-17);}.cls-36{clip-path:url(#clip-path-16);}.cls-37{fill:url(#linear-gradient-18);}.cls-38{clip-path:url(#clip-path-18);}.cls-39{clip-path:url(#clip-path-19);}.cls-40{mask:url(#mask-4);}.cls-41{fill:url(#linear-gradient-19);}.cls-42{opacity:0.2;}.cls-43{clip-path:url(#clip-path-20);}.cls-44{clip-path:url(#clip-path-21);}.cls-45{mask:url(#mask-5);}.cls-46{fill:url(#linear-gradient-20);}.cls-47{clip-path:url(#clip-path-22);}.cls-48{clip-path:url(#clip-path-23);}.cls-49{mask:url(#mask-6);}.cls-50{fill:url(#linear-gradient-21);}.cls-51{clip-path:url(#clip-path-24);}.cls-52{clip-path:url(#clip-path-25);}.cls-53{mask:url(#mask-7);}.cls-54{fill:url(#linear-gradient-22);}.cls-55{mask:url(#mask-8);}.cls-56{fill:url(#linear-gradient-23);}.cls-57{clip-path:url(#clip-path-27);}.cls-58{fill:#003e8f;}.cls-59{fill:#ffe81b;}.cls-60{stroke:#ffe81b;stroke-width:0.25px;}</style><linearGradient id="linear-gradient" x1="37.4" y1="-36.29" x2="37.88" y2="-36.29" gradientTransform="matrix(20.29, -8.27, -8.27, -20.29, -996.56, -361.44)" gradientUnits="userSpaceOnUse"><stop offset="0"/><stop offset="0"/><stop offset="1" stop-color="#fff"/></linearGradient><linearGradient id="linear-gradient-2" x1="45.35" y1="-37.92" x2="45.84" y2="-37.92" gradientTransform="matrix(23.83, 13.33, 13.33, -23.83, -562.58, -1448.25)" gradientUnits="userSpaceOnUse"><stop offset="0" stop-color="#fff"/><stop offset="0.1" stop-color="#ededed"/><stop offset="0.31" stop-color="#bfbfbf"/><stop offset="0.59" stop-color="#747474"/><stop offset="0.95" stop-color="#0e0e0e"/><stop offset="1"/></linearGradient><linearGradient id="linear-gradient-3" x1="39.09" y1="-34.35" x2="39.58" y2="-34.35" gradientTransform="matrix(22.49, -14.71, -14.71, -22.49, -1340.43, -120.01)" xlink:href="#linear-gradient-2"/><linearGradient id="linear-gradient-4" x1="37.96" y1="-26.83" x2="38.4" y2="-26.83" gradientTransform="matrix(0, -23.23, -23.23, 0, -547.84, 937.88)" xlink:href="#linear-gradient-2"/><linearGradient id="linear-gradient-5" x1="47.63" y1="-21.67" x2="48.12" y2="-21.67" gradientTransform="matrix(-20.29, -5.64, -5.64, 20.29, 915.62, 731.33)" xlink:href="#linear-gradient-2"/><linearGradient id="linear-gradient-6" x1="54.72" y1="-35.22" x2="55.16" y2="-35.22" gradientTransform="matrix(0, 18.42, 18.42, 0, 658.34, -978.37)" xlink:href="#linear-gradient-2"/><linearGradient id="linear-gradient-7" x1="52.68" y1="-30.6" x2="53.15" y2="-30.6" gradientTransform="matrix(-15.78, 23.3, 23.3, 15.78, 1583.09, -739.44)" xlink:href="#linear-gradient-2"/><linearGradient id="linear-gradient-8" x1="45.32" y1="-35.66" x2="45.81" y2="-35.66" gradientTransform="matrix(54.49, 38.33, 38.33, -54.49, -1057.83, -3678.2)" gradientUnits="userSpaceOnUse"><stop offset="0" stop-color="#fff"/><stop offset="1"/></linearGradient><clipPath id="clip-path" transform="translate(12.95 20.34)"><rect class="cls-9" width="313.57" height="85"/></clipPath><clipPath id="clip-path-4" transform="translate(12.95 20.34)"><path class="cls-9" d="M54.21,61.19l4.63,7.35a25.72,25.72,0,0,1,21.43-1.17l4.59-7.31a8.44,8.44,0,0,0-1-.5,36,36,0,0,0-13.11-2.49,35.31,35.31,0,0,0-16.58,4.12"/></clipPath><mask id="mask" x="62.8" y="67.58" width="39.37" height="31.14" maskUnits="userSpaceOnUse"><g transform="translate(12.95 20.34)"><polygon class="cls-1" points="49.85 58.7 80.49 47.24 89.22 66.91 58.58 78.38 49.85 58.7"/></g></mask><linearGradient id="linear-gradient-9" x1="37.4" y1="-36.29" x2="37.88" y2="-36.29" gradientTransform="matrix(20.29, -8.27, -8.27, -20.29, -983.6, -341.1)" gradientUnits="userSpaceOnUse"><stop offset="0" stop-color="#ff2e25"/><stop offset="0" stop-color="#ff2e25"/><stop offset="1" stop-color="#ff2e25"/></linearGradient><clipPath id="clip-path-5" transform="translate(12.95 20.34)"><path class="cls-9" d="M54.21,61.19C45.08,66,39.11,74.35,37.84,84a8.2,8.2,0,0,0,0,1H47A21.85,21.85,0,0,1,58.84,68.54a25.72,25.72,0,0,1,21.43-1.17l4.59-7.31a8.44,8.44,0,0,0-1-.5,36,36,0,0,0-13.11-2.49,35.31,35.31,0,0,0-16.58,4.12"/></clipPath><linearGradient id="linear-gradient-10" x1="42.77" y1="-33.12" x2="43.26" y2="-33.12" gradientTransform="matrix(68.39, -39.46, -39.46, -68.39, -4175.3, -475.87)" gradientUnits="userSpaceOnUse"><stop offset="0" stop-color="#e8235f"/><stop offset="1" stop-color="#ff2e25"/></linearGradient><clipPath id="clip-path-6" transform="translate(12.95 20.34)"><path class="cls-9" d="M1,59.56a10.16,10.16,0,0,0-1,.51l4.59,7.3A25.72,25.72,0,0,1,26,68.54,21.9,21.9,0,0,1,37.84,85H47a5.29,5.29,0,0,0,0-1C45.75,74.34,39.78,66,30.64,61.19a35.24,35.24,0,0,0-16.57-4.12A36,36,0,0,0,1,59.56"/></clipPath><linearGradient id="linear-gradient-11" x1="44.87" y1="-34.33" x2="45.36" y2="-34.33" gradientTransform="matrix(66.51, 37.2, 37.2, -66.51, -1685.38, -3869.54)" gradientUnits="userSpaceOnUse"><stop offset="0" stop-color="#362ed4"/><stop offset="1" stop-color="#e8235f"/></linearGradient><clipPath id="clip-path-7" transform="translate(12.95 20.34)"><path class="cls-9" d="M0,24.8A21.35,21.35,0,0,1,9.61,42.43,21.33,21.33,0,0,1,0,60.07l4.59,7.3s.76-.37,1-.51C14,61,18.85,52.13,18.85,42.43S14,23.83,5.55,18a8.05,8.05,0,0,0-1-.51Z"/></clipPath><linearGradient id="linear-gradient-12" x1="42.05" y1="-31.33" x2="42.49" y2="-31.33" gradientTransform="matrix(0, -59.21, -59.21, 0, -1832.37, 2569.45)" gradientUnits="userSpaceOnUse"><stop offset="0" stop-color="#362ed4"/><stop offset="1" stop-color="#0285dc"/></linearGradient><clipPath id="clip-path-8" transform="translate(12.95 20.34)"><path class="cls-9" d="M45.88,0c-.53,0-1.07,0-1.6,0H37.81l0,.89c1.27,9.63,7.24,17.94,16.38,22.79A35.36,35.36,0,0,0,70.79,27.8a35.84,35.84,0,0,0,10.68-1.65h0l.34-.11.72-.24c.46-.16.91-.32,1.37-.5a3.82,3.82,0,0,0,1-.51l-4.59-7.3c-.33.13-.67.24-1,.36s-.5.17-.75.24h0a25.58,25.58,0,0,1-19.68-1.78A21.88,21.88,0,0,1,47.05.11V0Z"/></clipPath><linearGradient id="linear-gradient-13" x1="45.32" y1="-35.66" x2="45.81" y2="-35.66" gradientTransform="matrix(54.49, 38.33, 38.33, -54.49, -1044.88, -3657.86)" gradientUnits="userSpaceOnUse"><stop offset="0" stop-color="#12d03d"/><stop offset="1" stop-color="#e8c300"/></linearGradient><clipPath id="clip-path-9" transform="translate(12.95 20.34)"><path class="cls-9" d="M79.31,18C70.85,23.83,66,32.74,66,42.43S70.85,61,79.31,66.86a2.77,2.77,0,0,0,1,.51l4.59-7.31a21,21,0,0,1,0-35.26l-4.59-7.3a5.9,5.9,0,0,0-1,.51"/></clipPath><linearGradient id="linear-gradient-14" x1="48.53" y1="-34.94" x2="48.97" y2="-34.94" gradientTransform="matrix(0, 46.84, 46.84, 0, 1724.74, -2221.47)" gradientUnits="userSpaceOnUse"><stop offset="0" stop-color="#e8c300"/><stop offset="0" stop-color="#e8c300"/><stop offset="1" stop-color="#ff2e25"/></linearGradient><clipPath id="clip-path-10" transform="translate(12.95 20.34)"><path class="cls-9" d="M37.82,0V.11A21.88,21.88,0,0,1,26,16.32,25.69,25.69,0,0,1,4.59,17.5L0,24.8a7.93,7.93,0,0,0,1,.51A35.93,35.93,0,0,0,14.07,27.8a35.39,35.39,0,0,0,16.57-4.12C39.78,18.83,45.75,10.52,47,.89l0-.51V0Z"/></clipPath><linearGradient id="linear-gradient-15" x1="42.64" y1="-34.28" x2="43.12" y2="-34.28" gradientTransform="matrix(63.51, -33.07, -33.07, -63.51, -3820.68, -724.23)" gradientUnits="userSpaceOnUse"><stop offset="0" stop-color="#0296dc"/><stop offset="1" stop-color="#12c03d"/></linearGradient><clipPath id="clip-path-12" transform="translate(12.95 20.34)"><rect class="cls-9" x="4.59" y="57.09" width="26.05" height="11.45"/></clipPath><clipPath id="clip-path-13" transform="translate(12.95 20.34)"><path class="cls-9" d="M14.79,57.09a31.41,31.41,0,0,1-9.24,9.77,9.91,9.91,0,0,1-1,.51A25.72,25.72,0,0,1,26,68.54l4.62-7.35a35.31,35.31,0,0,0-15.85-4.1"/></clipPath><mask id="mask-2" x="12.23" y="67.23" width="36.68" height="31.84" maskUnits="userSpaceOnUse"><g transform="translate(12.95 20.34)"><polygon class="cls-2" points="10.8 46.9 35.95 59.82 24.43 78.74 -0.72 65.81 10.8 46.9"/></g></mask><linearGradient id="linear-gradient-16" x1="45.35" y1="-37.92" x2="45.84" y2="-37.92" gradientTransform="matrix(23.83, 13.33, 13.33, -23.83, -549.62, -1427.91)" gradientUnits="userSpaceOnUse"><stop offset="0"/><stop offset="1"/></linearGradient><clipPath id="clip-path-14" transform="translate(12.95 20.34)"><rect class="cls-9" x="42.43" y="61.19" width="16.41" height="23.81"/></clipPath><clipPath id="clip-path-15" transform="translate(12.95 20.34)"><path class="cls-9" d="M54.21,61.19A31.93,31.93,0,0,0,42.43,71.75,28.91,28.91,0,0,1,47,84a5.32,5.32,0,0,1,0,1A21.85,21.85,0,0,1,58.84,68.54Z"/></clipPath><mask id="mask-3" x="43.51" y="74.62" width="40.16" height="37.62" maskUnits="userSpaceOnUse"><g transform="translate(12.95 20.34)"><polygon class="cls-3" points="30.55 68.32 53.92 54.28 70.71 77.86 47.35 91.9 30.55 68.32"/></g></mask><linearGradient id="linear-gradient-17" x1="39.09" y1="-34.35" x2="39.58" y2="-34.35" gradientTransform="matrix(22.49, -14.71, -14.71, -22.49, -1327.48, -99.67)" xlink:href="#linear-gradient-16"/><clipPath id="clip-path-16" transform="translate(12.95 20.34)"><path class="cls-9" d="M80.27,67.37l-.27-.1a1.63,1.63,0,0,0,.27.1"/></clipPath><linearGradient id="linear-gradient-18" x1="977.83" y1="-907.38" x2="978.28" y2="-907.38" gradientTransform="matrix(0, 0.15, 0.15, 0, 228.81, -58.63)" xlink:href="#linear-gradient-14"/><clipPath id="clip-path-18" transform="translate(12.95 20.34)"><rect class="cls-9" x="66" y="42.43" width="18.85" height="17.63"/></clipPath><clipPath id="clip-path-19" transform="translate(12.95 20.34)"><path class="cls-9" d="M75.25,42.43H66a28.5,28.5,0,0,0,4.06,14.66A35.84,35.84,0,0,1,83.9,59.56a8.44,8.44,0,0,1,1,.5,21.28,21.28,0,0,1-9.61-17.63"/></clipPath><mask id="mask-4" x="78.96" y="62.77" width="18.85" height="17.63" maskUnits="userSpaceOnUse"><g transform="translate(12.95 20.34)"><rect class="cls-4" x="66" y="42.43" width="18.85" height="17.63"/></g></mask><linearGradient id="linear-gradient-19" x1="37.96" y1="-26.83" x2="38.4" y2="-26.83" gradientTransform="matrix(0, -23.23, -23.23, 0, -534.89, 958.22)" xlink:href="#linear-gradient-16"/><clipPath id="clip-path-20" transform="translate(12.95 20.34)"><rect class="cls-9" x="54.22" y="16.32" width="26.05" height="11.46"/></clipPath><clipPath id="clip-path-21" transform="translate(12.95 20.34)"><path class="cls-9" d="M79.27,17.86c-.25.08-.5.17-.75.24h0a25.58,25.58,0,0,1-19.68-1.78l-4.62,7.36a35.23,35.23,0,0,0,15.84,4.1A31.44,31.44,0,0,1,79.31,18a5.9,5.9,0,0,1,1-.51c-.33.13-.67.24-1,.36"/></clipPath><mask id="mask-5" x="63.95" y="30.49" width="32.49" height="23.8" maskUnits="userSpaceOnUse"><g transform="translate(12.95 20.34)"><polygon class="cls-5" points="78.4 33.96 51 26.96 56.08 10.15 83.48 17.14 78.4 33.96"/></g></mask><linearGradient id="linear-gradient-20" x1="47.63" y1="-21.67" x2="48.12" y2="-21.67" gradientTransform="matrix(-20.29, -5.64, -5.64, 20.29, 928.58, 751.67)" xlink:href="#linear-gradient-16"/><clipPath id="clip-path-22" transform="translate(12.95 20.34)"><rect class="cls-9" y="24.8" width="18.85" height="17.63"/></clipPath><clipPath id="clip-path-23" transform="translate(12.95 20.34)"><path class="cls-9" d="M14.8,27.78l-.73,0A35.93,35.93,0,0,1,1,25.31a7.93,7.93,0,0,1-1-.51A21.35,21.35,0,0,1,9.61,42.43h9.24A28.51,28.51,0,0,0,14.8,27.78"/></clipPath><mask id="mask-6" x="12.95" y="45.14" width="18.85" height="17.63" maskUnits="userSpaceOnUse"><g transform="translate(12.95 20.34)"><rect class="cls-6" y="24.8" width="18.85" height="17.63"/></g></mask><linearGradient id="linear-gradient-21" x1="54.72" y1="-35.22" x2="55.16" y2="-35.22" gradientTransform="matrix(0, 18.42, 18.42, 0, 671.29, -958.03)" xlink:href="#linear-gradient-16"/><clipPath id="clip-path-24" transform="translate(12.95 20.34)"><rect class="cls-9" x="26.02" y="0.09" width="16.41" height="23.59"/></clipPath><clipPath id="clip-path-25" transform="translate(12.95 20.34)"><path class="cls-9" d="M37.84.88l0-.79v0A21.88,21.88,0,0,1,26,16.32l4.62,7.36A32,32,0,0,0,42.43,13.12,28.9,28.9,0,0,1,37.84.88"/></clipPath><mask id="mask-7" x="27.04" y="13.43" width="40.26" height="37.59" maskUnits="userSpaceOnUse"><g transform="translate(12.95 20.34)"><polygon class="cls-7" points="54.35 7.51 37.27 30.68 14.09 16.26 31.18 -6.91 54.35 7.51"/></g></mask><linearGradient id="linear-gradient-22" x1="52.68" y1="-30.6" x2="53.15" y2="-30.6" gradientTransform="matrix(-15.78, 23.3, 23.3, 15.78, 1596.04, -719.1)" xlink:href="#linear-gradient-16"/><mask id="mask-8" x="36.52" y="0" width="75.53" height="68.47" maskUnits="userSpaceOnUse"><g transform="translate(12.95 20.34)"><polygon class="cls-8" points="53.38 -20.34 99.09 9.2 69.28 48.13 23.57 18.59 53.38 -20.34"/></g></mask><linearGradient id="linear-gradient-23" x1="45.32" y1="-35.66" x2="45.81" y2="-35.66" gradientTransform="matrix(54.49, 38.33, 38.33, -54.49, -1044.88, -3657.86)" gradientUnits="userSpaceOnUse"><stop offset="0" stop-color="#12d03d"/><stop offset="1" stop-color="#12d03d"/></linearGradient><clipPath id="clip-path-27" transform="translate(12.95 20.34)"><rect class="cls-9" x="413.57" y="7.5" width="302.41" height="70"/></clipPath></defs><g id="Layer_2" data-name="Layer 2"><g id="Layer_1-2" data-name="Layer 1"><g id="Logo_Color_fdo_Claro"><g class="cls-10"><g class="cls-10"><g class="cls-10"><path class="cls-11" d="M111.74,22.48a5.08,5.08,0,0,1,6.83,0A4.16,4.16,0,0,1,120,25.64a4.1,4.1,0,0,1-1.43,3.11,5.08,5.08,0,0,1-6.83,0,4.1,4.1,0,0,1-1.43-3.11,4.16,4.16,0,0,1,1.43-3.16M111,32.87h8.17v28H111Z" transform="translate(12.95 20.34)"/><path class="cls-11" d="M125.55,56q11.82-9.84,15.57-13.71t3.75-6.72a4.59,4.59,0,0,0-1.46-3.5,6.05,6.05,0,0,0-4.27-1.37q-4,0-8.53,3.81l-4.27-4.88a17.06,17.06,0,0,1,6.8-4.42A21.4,21.4,0,0,1,139.87,24,15.9,15.9,0,0,1,149.62,27a9.47,9.47,0,0,1,4,8q0,4.71-4.51,9.8a56.92,56.92,0,0,1-10.78,9.35H154.8v6.72H125.55Z" transform="translate(12.95 20.34)"/><rect class="cls-11" x="175.19" y="44.36" width="4.63" height="36.84"/><path class="cls-11" d="M177.51,37.18A13.77,13.77,0,0,1,187.71,33q7.14,0,10.85,5.27V33.59h4.63V60.86h-4.63V56.21q-3.65,5.2-10.85,5.21a14.1,14.1,0,0,1-14.32-14.17,13.73,13.73,0,0,1,4.12-10.07m3.59,17.21a10.08,10.08,0,0,0,7.35,2.89,9.92,9.92,0,0,0,7.19-2.86,9.59,9.59,0,0,0,2.92-7.17,9.91,9.91,0,0,0-10.11-10.07,10.06,10.06,0,0,0-7.35,2.91,10.14,10.14,0,0,0,0,14.3" transform="translate(12.95 20.34)"/><path class="cls-11" d="M212.46,37.23H208V33.59h4.45v-6l4.63-.68v6.72h10.18v3.64H217.09V51.9q0,5.72,4.21,5.71a7.91,7.91,0,0,0,2.43-.39,9.92,9.92,0,0,0,1.83-.73l.61-.39,1.53,3.3a12.66,12.66,0,0,1-6.83,2,8.55,8.55,0,0,1-6.16-2.16c-1.5-1.43-2.25-3.63-2.25-6.57Z" transform="translate(12.95 20.34)"/><path class="cls-11" d="M235.1,37.18A13.79,13.79,0,0,1,245.31,33q7.13,0,10.85,5.27V33.59h4.63V60.86h-4.63V56.21q-3.66,5.2-10.85,5.21A14.09,14.09,0,0,1,231,47.25a13.76,13.76,0,0,1,4.11-10.07m3.6,17.21A10.07,10.07,0,0,0,246,57.28a9.9,9.9,0,0,0,7.19-2.86,9.6,9.6,0,0,0,2.93-7.17A9.92,9.92,0,0,0,246,37.18a10.05,10.05,0,0,0-7.34,2.91,10.12,10.12,0,0,0,0,14.3" transform="translate(12.95 20.34)"/><path class="cls-11" d="M268.84,33.59h4.63V38a9.86,9.86,0,0,1,4-3.64A11.65,11.65,0,0,1,282.85,33q7.2,0,9.57,5.43a10.38,10.38,0,0,1,4.36-4A12.94,12.94,0,0,1,302.66,33q5.43,0,8.17,2.89t2.74,8.26V60.86h-4.63v-16a8.92,8.92,0,0,0-1.62-5.71q-1.6-2-5.63-2a8.22,8.22,0,0,0-5.85,2.15A7.32,7.32,0,0,0,293.52,45v15.9h-4.63v-16a8.92,8.92,0,0,0-1.62-5.71q-1.61-2-5.64-2a8,8,0,0,0-8.16,8.17V60.86h-4.63Z" transform="translate(12.95 20.34)"/></g><g class="cls-12"><g class="cls-13"><polygon class="cls-14" points="62.8 79.04 93.45 67.58 102.17 87.25 71.53 98.72 62.8 79.04"/></g></g><g class="cls-15"><polygon class="cls-16" points="37.59 84.39 86.06 58.7 110.97 98.36 62.5 124.05 37.59 84.39"/></g><g class="cls-17"><polygon class="cls-18" points="24.17 58.99 72.98 84.07 48.81 123.76 0 98.68 24.17 58.99"/></g><g class="cls-19"><rect class="cls-20" x="12.95" y="37.84" width="18.85" height="49.87"/></g><g class="cls-21"><polygon class="cls-22" points="66.33 0 112.05 29.54 82.23 68.47 36.52 38.93 66.33 0"/></g><g class="cls-23"><rect class="cls-24" x="78.96" y="37.84" width="18.85" height="49.87"/></g><g class="cls-25"><polygon class="cls-26" points="0.56 26.27 49.97 2.63 72.4 42.2 22.99 65.84 0.56 26.27"/></g><g class="cls-10"><g class="cls-27"><g class="cls-28"><g class="cls-29"><g class="cls-30"><polygon class="cls-31" points="23.75 67.23 48.91 80.16 37.39 99.08 12.23 86.15 23.75 67.23"/></g></g></g></g><g class="cls-27"><g class="cls-32"><g class="cls-33"><g class="cls-34"><polygon class="cls-35" points="43.51 88.66 66.87 74.62 83.67 98.2 60.3 112.24 43.51 88.66"/></g></g></g></g></g><g class="cls-36"><rect class="cls-37" x="92.96" y="87.61" width="0.26" height="0.1"/></g><g class="cls-10"><g class="cls-27"><g class="cls-38"><g class="cls-39"><g class="cls-40"><rect class="cls-41" x="78.96" y="62.77" width="18.85" height="17.63"/></g></g></g></g><g class="cls-42"><g class="cls-43"><g class="cls-44"><g class="cls-45"><polygon class="cls-46" points="91.35 54.29 63.95 47.3 69.03 30.49 96.44 37.48 91.35 54.29"/></g></g></g></g><g class="cls-27"><g class="cls-47"><g class="cls-48"><g class="cls-49"><rect class="cls-50" x="12.95" y="45.14" width="18.85" height="17.63"/></g></g></g></g><g class="cls-27"><g class="cls-51"><g class="cls-52"><g class="cls-53"><polygon class="cls-54" points="67.31 27.85 50.22 51.02 27.05 36.6 44.13 13.43 67.31 27.85"/></g></g></g></g></g><g class="cls-21"><g class="cls-55"><polygon class="cls-56" points="66.33 0 112.05 29.54 82.23 68.47 36.52 38.93 66.33 0"/></g></g></g></g></g><g id="Group_3072" data-name="Group 3072"><g class="cls-57"><rect class="cls-58" x="426.52" y="27.84" width="103.32" height="69.61"/><polygon class="cls-59" points="504.09 61.52 503.01 61.5 501.42 61.47 500.9 60.05 500.56 59.14 500.23 60.05 499.71 61.47 498.12 61.5 497.04 61.52 497.92 62.16 499.17 63.06 498.72 64.49 498.4 65.46 499.25 64.89 500.56 64.03 501.88 64.89 502.72 65.46 502.41 64.49 501.96 63.06 503.21 62.16 504.09 61.52"/><polygon class="cls-60" points="504.09 61.52 503.01 61.5 501.42 61.47 500.9 60.05 500.56 59.14 500.23 60.05 499.71 61.47 498.12 61.5 497.04 61.52 497.92 62.16 499.17 63.06 498.72 64.49 498.4 65.46 499.25 64.89 500.56 64.03 501.88 64.89 502.72 65.46 502.41 64.49 501.96 63.06 503.21 62.16 504.09 61.52"/><polygon class="cls-59" points="496.18 51.84 495.73 53.26 495.42 54.23 496.27 53.67 497.58 52.8 498.9 53.67 499.74 54.23 499.44 53.26 498.98 51.84 500.23 50.93 501.12 50.3 500.04 50.28 498.44 50.25 497.92 48.82 497.58 47.91 497.25 48.82 496.74 50.25 495.14 50.28 494.06 50.3 494.94 50.93 496.18 51.84"/><polygon class="cls-60" points="496.18 51.84 495.73 53.26 495.42 54.23 496.27 53.67 497.58 52.8 498.9 53.67 499.74 54.23 499.44 53.26 498.98 51.84 500.23 50.93 501.12 50.3 500.04 50.28 498.44 50.25 497.92 48.82 497.58 47.91 497.25 48.82 496.74 50.25 495.14 50.28 494.06 50.3 494.94 50.93 496.18 51.84"/><polygon class="cls-59" points="490.31 42.09 489.79 40.67 489.45 39.76 489.12 40.67 488.6 42.09 487.01 42.12 485.93 42.14 486.81 42.78 488.07 43.69 487.61 45.11 487.3 46.08 488.15 45.53 489.46 44.65 490.77 45.53 491.63 46.08 491.31 45.11 490.87 43.69 492.12 42.78 493 42.14 491.93 42.12 490.31 42.09"/><polygon class="cls-60" points="490.31 42.09 489.79 40.67 489.45 39.76 489.12 40.67 488.6 42.09 487.01 42.12 485.93 42.14 486.81 42.78 488.07 43.69 487.61 45.11 487.3 46.08 488.15 45.53 489.46 44.65 490.77 45.53 491.63 46.08 491.31 45.11 490.87 43.69 492.12 42.78 493 42.14 491.93 42.12 490.31 42.09"/><polygon class="cls-59" points="478.95 39.08 478.42 37.66 478.09 36.75 477.76 37.66 477.24 39.08 475.64 39.12 474.56 39.13 475.44 39.77 476.7 40.68 476.24 42.1 475.93 43.07 476.78 42.52 478.09 41.64 479.41 42.52 480.25 43.07 479.95 42.1 479.49 40.68 480.75 39.77 481.62 39.13 480.56 39.12 478.95 39.08"/><polygon class="cls-60" points="478.95 39.08 478.42 37.66 478.09 36.75 477.76 37.66 477.24 39.08 475.64 39.12 474.56 39.13 475.44 39.77 476.7 40.68 476.24 42.1 475.93 43.07 476.78 42.52 478.09 41.64 479.41 42.52 480.25 43.07 479.95 42.1 479.49 40.68 480.75 39.77 481.62 39.13 480.56 39.12 478.95 39.08"/><polygon class="cls-59" points="467.69 42.09 467.17 40.67 466.85 39.76 466.51 40.67 465.99 42.09 464.39 42.12 463.31 42.14 464.19 42.77 465.45 43.68 465 45.1 464.68 46.08 465.54 45.51 466.85 44.65 468.16 45.51 469.01 46.08 468.7 45.1 468.25 43.68 469.5 42.77 470.39 42.14 469.3 42.12 467.69 42.09"/><polygon class="cls-60" points="467.69 42.09 467.17 40.67 466.85 39.76 466.51 40.67 465.99 42.09 464.39 42.12 463.31 42.14 464.19 42.77 465.45 43.68 465 45.1 464.68 46.08 465.54 45.51 466.85 44.65 468.16 45.51 469.01 46.08 468.7 45.1 468.25 43.68 469.5 42.77 470.39 42.14 469.3 42.12 467.69 42.09"/><polygon class="cls-59" points="459.5 50.17 458.99 48.75 458.65 47.84 458.32 48.75 457.8 50.17 456.21 50.2 455.13 50.22 456.01 50.86 457.26 51.76 456.8 53.19 456.5 54.15 457.33 53.6 458.65 52.73 459.97 53.6 460.81 54.15 460.5 53.19 460.05 51.76 461.31 50.86 462.18 50.22 461.1 50.2 459.5 50.17"/><polygon class="cls-60" points="459.5 50.17 458.99 48.75 458.65 47.84 458.32 48.75 457.8 50.17 456.21 50.2 455.13 50.22 456.01 50.86 457.26 51.76 456.8 53.19 456.5 54.15 457.33 53.6 458.65 52.73 459.97 53.6 460.81 54.15 460.5 53.19 460.05 51.76 461.31 50.86 462.18 50.22 461.1 50.2 459.5 50.17"/><polygon class="cls-59" points="456.9 64.87 457.75 65.43 457.44 64.46 456.99 63.04 458.24 62.13 459.12 61.49 458.04 61.47 456.45 61.44 455.93 60.02 455.6 59.11 455.26 60.02 454.74 61.44 453.15 61.47 452.07 61.49 452.94 62.13 454.2 63.04 453.75 64.46 453.44 65.43 454.28 64.87 455.6 64 456.9 64.87"/><polygon class="cls-60" points="456.9 64.87 457.75 65.43 457.44 64.46 456.99 63.04 458.24 62.13 459.12 61.49 458.04 61.47 456.45 61.44 455.93 60.02 455.6 59.11 455.26 60.02 454.74 61.44 453.15 61.47 452.07 61.49 452.94 62.13 454.2 63.04 453.75 64.46 453.44 65.43 454.28 64.87 455.6 64 456.9 64.87"/><polygon class="cls-59" points="459.46 72.58 458.94 71.17 458.61 70.26 458.27 71.17 457.75 72.58 456.16 72.62 455.08 72.64 455.96 73.27 457.21 74.18 456.76 75.6 456.44 76.56 457.3 76.01 458.61 75.14 459.93 76.01 460.76 76.56 460.45 75.6 460.01 74.17 461.26 73.27 462.13 72.64 461.06 72.62 459.46 72.58"/><polygon class="cls-60" points="459.46 72.58 458.94 71.17 458.61 70.26 458.27 71.17 457.75 72.58 456.16 72.62 455.08 72.64 455.96 73.27 457.21 74.18 456.76 75.6 456.44 76.56 457.3 76.01 458.61 75.14 459.93 76.01 460.76 76.56 460.45 75.6 460.01 74.17 461.26 73.27 462.13 72.64 461.06 72.62 459.46 72.58"/><polygon class="cls-59" points="467.59 80.74 467.08 79.31 466.75 78.4 466.41 79.31 465.89 80.74 464.29 80.76 463.21 80.79 464.1 81.43 465.34 82.33 464.89 83.75 464.58 84.72 465.42 84.17 466.74 83.3 468.05 84.17 468.9 84.72 468.59 83.75 468.14 82.33 469.39 81.43 470.27 80.79 469.19 80.76 467.59 80.74"/><polygon class="cls-60" points="467.59 80.74 467.08 79.31 466.75 78.4 466.41 79.31 465.89 80.74 464.29 80.76 463.21 80.79 464.1 81.43 465.34 82.33 464.89 83.75 464.58 84.72 465.42 84.17 466.74 83.3 468.05 84.17 468.9 84.72 468.59 83.75 468.14 82.33 469.39 81.43 470.27 80.79 469.19 80.76 467.59 80.74"/><polygon class="cls-59" points="478.94 83.75 478.43 82.33 478.09 81.42 477.76 82.33 477.24 83.75 475.64 83.78 474.56 83.8 475.44 84.44 476.7 85.34 476.24 86.76 475.94 87.73 476.78 87.17 478.09 86.3 479.41 87.17 480.25 87.73 479.94 86.76 479.49 85.34 480.74 84.44 481.62 83.8 480.55 83.78 478.94 83.75"/><polygon class="cls-60" points="478.94 83.75 478.43 82.33 478.09 81.42 477.76 82.33 477.24 83.75 475.64 83.78 474.56 83.8 475.44 84.44 476.7 85.34 476.24 86.76 475.94 87.73 476.78 87.17 478.09 86.3 479.41 87.17 480.25 87.73 479.94 86.76 479.49 85.34 480.74 84.44 481.62 83.8 480.55 83.78 478.94 83.75"/><polygon class="cls-59" points="490.21 80.79 489.69 79.37 489.35 78.46 489.02 79.37 488.5 80.79 486.91 80.83 485.83 80.84 486.71 81.48 487.96 82.39 487.51 83.81 487.2 84.78 488.04 84.22 489.35 83.36 490.67 84.22 491.5 84.78 491.2 83.81 490.75 82.39 492 81.48 492.88 80.84 491.8 80.83 490.21 80.79"/><polygon class="cls-60" points="490.21 80.79 489.69 79.37 489.35 78.46 489.02 79.37 488.5 80.79 486.91 80.83 485.83 80.84 486.71 81.48 487.96 82.39 487.51 83.81 487.2 84.78 488.04 84.22 489.35 83.36 490.67 84.22 491.5 84.78 491.2 83.81 490.75 82.39 492 81.48 492.88 80.84 491.8 80.83 490.21 80.79"/><polygon class="cls-59" points="498.39 72.68 497.87 71.26 497.54 70.35 497.2 71.26 496.68 72.68 495.08 72.72 494.01 72.73 494.89 73.37 496.14 74.28 495.69 75.7 495.38 76.67 496.22 76.11 497.54 75.24 498.85 76.11 499.69 76.67 499.38 75.7 498.93 74.28 500.18 73.37 501.06 72.73 499.98 72.72 498.39 72.68"/><polygon class="cls-60" points="498.39 72.68 497.87 71.26 497.54 70.35 497.2 71.26 496.68 72.68 495.08 72.72 494.01 72.73 494.89 73.37 496.14 74.28 495.69 75.7 495.38 76.67 496.22 76.11 497.54 75.24 498.85 76.11 499.69 76.67 499.38 75.7 498.93 74.28 500.18 73.37 501.06 72.73 499.98 72.72 498.39 72.68"/><g class="cls-57"><path class="cls-58" d="M539.05,21.43l2,.5a6.6,6.6,0,0,1-2.23,3.7,6.17,6.17,0,0,1-3.94,1.28,7.13,7.13,0,0,1-3.93-1,6.1,6.1,0,0,1-2.3-2.84,10.19,10.19,0,0,1-.79-4,8.8,8.8,0,0,1,.89-4.07,6.11,6.11,0,0,1,2.54-2.64,7.46,7.46,0,0,1,3.61-.9,6.14,6.14,0,0,1,3.77,1.15,5.94,5.94,0,0,1,2.13,3.19l-1.94.46a4.68,4.68,0,0,0-1.51-2.38,4.1,4.1,0,0,0-2.49-.74A4.8,4.8,0,0,0,532,14a4.34,4.34,0,0,0-1.63,2.21,9,9,0,0,0-.47,2.87,9.16,9.16,0,0,0,.56,3.32,4.07,4.07,0,0,0,1.72,2.13,4.84,4.84,0,0,0,2.54.7,4.23,4.23,0,0,0,2.81-1,4.79,4.79,0,0,0,1.55-2.83" transform="translate(12.95 20.34)"/><path class="cls-58" d="M542.54,21.26a5.6,5.6,0,0,1,1.67-4.45,5,5,0,0,1,3.41-1.2,4.85,4.85,0,0,1,3.65,1.46,5.55,5.55,0,0,1,1.41,4,7,7,0,0,1-.63,3.29,4.39,4.39,0,0,1-1.82,1.85,5.31,5.31,0,0,1-2.61.67A4.9,4.9,0,0,1,544,25.46a5.86,5.86,0,0,1-1.41-4.2m1.89,0a4.58,4.58,0,0,0,.9,3.11,3,3,0,0,0,4.26.29,4,4,0,0,0,.29-.29,4.8,4.8,0,0,0,.91-3.17,4.5,4.5,0,0,0-.92-3,3,3,0,0,0-4.25-.28,2.57,2.57,0,0,0-.29.28,4.54,4.54,0,0,0-.9,3.1" transform="translate(12.95 20.34)"/><path class="cls-58" d="M555.26,26.66V17.28h-1.62V15.85h1.62V14.7a5,5,0,0,1,.19-1.62,2.38,2.38,0,0,1,.93-1.15,3.32,3.32,0,0,1,1.87-.44,8.11,8.11,0,0,1,1.7.18l-.27,1.6a6.59,6.59,0,0,0-1.08-.11,1.62,1.62,0,0,0-1.18.36,1.93,1.93,0,0,0-.35,1.34v1h2.11v1.43h-2.11v9.38Z" transform="translate(12.95 20.34)"/><path class="cls-58" d="M560.62,11.74h1.83v2.11h-1.83Zm0,4.11h1.83V26.66h-1.83Z" transform="translate(12.95 20.34)"/><path class="cls-58" d="M565.24,26.66V15.85h1.65v1.54a3.88,3.88,0,0,1,3.45-1.78,4.43,4.43,0,0,1,1.79.35,2.94,2.94,0,0,1,1.23.92,3.56,3.56,0,0,1,.56,1.35A9.73,9.73,0,0,1,574,20v6.65H572.2V20.09a5,5,0,0,0-.22-1.68,1.77,1.77,0,0,0-.76-.88,2.4,2.4,0,0,0-1.28-.33,3,3,0,0,0-2,.74,3.62,3.62,0,0,0-.85,2.82v5.9Z" transform="translate(12.95 20.34)"/><path class="cls-58" d="M583.89,25.33a6.65,6.65,0,0,1-2,1.22,5.55,5.55,0,0,1-2,.36,3.9,3.9,0,0,1-2.73-.87,2.84,2.84,0,0,1-1-2.23,3,3,0,0,1,1.31-2.5,4.45,4.45,0,0,1,1.31-.6,11.31,11.31,0,0,1,1.63-.27,17.35,17.35,0,0,0,3.27-.64v-.48a2,2,0,0,0-.52-1.58,3.12,3.12,0,0,0-2.09-.62,3.3,3.3,0,0,0-1.91.45,2.76,2.76,0,0,0-.91,1.6l-1.79-.24a4.54,4.54,0,0,1,.8-1.86A3.51,3.51,0,0,1,578.94,16a7.3,7.3,0,0,1,2.45-.38,6.81,6.81,0,0,1,2.25.32,3.1,3.1,0,0,1,1.28.82,3,3,0,0,1,.57,1.25,9.58,9.58,0,0,1,.09,1.69v2.45a25,25,0,0,0,.12,3.23,4,4,0,0,0,.47,1.29h-1.92a3.76,3.76,0,0,1-.36-1.32m-.15-4.09a14.09,14.09,0,0,1-3,.69,6.21,6.21,0,0,0-1.6.37,1.55,1.55,0,0,0-.72.59,1.6,1.6,0,0,0,.3,2.09,2.36,2.36,0,0,0,1.62.49,3.82,3.82,0,0,0,1.88-.46,2.86,2.86,0,0,0,1.21-1.27,4.41,4.41,0,0,0,.3-1.83Z" transform="translate(12.95 20.34)"/><path class="cls-58" d="M588.43,26.66V15.85h1.65v1.54a3.9,3.9,0,0,1,3.44-1.78,4.44,4.44,0,0,1,1.8.35,2.85,2.85,0,0,1,1.22.92,3.58,3.58,0,0,1,.57,1.35,9.78,9.78,0,0,1,.1,1.79v6.65h-1.83V20.09a4.79,4.79,0,0,0-.21-1.68,1.77,1.77,0,0,0-.76-.88,2.37,2.37,0,0,0-1.27-.33,2.92,2.92,0,0,0-2,.74,3.66,3.66,0,0,0-.86,2.82v5.9Z" transform="translate(12.95 20.34)"/><path class="cls-58" d="M607.08,22.7l1.8.23a4.7,4.7,0,0,1-1.51,2.92,4.41,4.41,0,0,1-3,1.06,4.65,4.65,0,0,1-3.56-1.46,5.87,5.87,0,0,1-1.35-4.15,7.36,7.36,0,0,1,.58-3.07,4.07,4.07,0,0,1,1.76-2,5.29,5.29,0,0,1,2.58-.65,4.45,4.45,0,0,1,2.88.89A4,4,0,0,1,608.71,19l-1.78.27a2.94,2.94,0,0,0-.9-1.64,2.35,2.35,0,0,0-1.57-.55,2.81,2.81,0,0,0-2.24,1,4.74,4.74,0,0,0-.87,3.14,4.85,4.85,0,0,0,.84,3.16,2.72,2.72,0,0,0,2.17,1,2.57,2.57,0,0,0,1.8-.66,3.26,3.26,0,0,0,.92-2" transform="translate(12.95 20.34)"/><path class="cls-58" d="M610.46,11.74h1.83v2.11h-1.83Zm0,4.11h1.83V26.66h-1.83Z" transform="translate(12.95 20.34)"/><path class="cls-58" d="M622.13,25.33a6.52,6.52,0,0,1-2,1.22,5.55,5.55,0,0,1-2,.36,3.91,3.91,0,0,1-2.73-.87,2.84,2.84,0,0,1-1-2.23,3,3,0,0,1,1.3-2.5,4.37,4.37,0,0,1,1.32-.6,12.91,12.91,0,0,1,1.63-.28,15.9,15.9,0,0,0,3.27-.64c0-.25,0-.41,0-.48a2,2,0,0,0-.52-1.57,3,3,0,0,0-2.09-.62,3.24,3.24,0,0,0-1.92.45,2.88,2.88,0,0,0-.91,1.6l-1.79-.24a4.38,4.38,0,0,1,.81-1.86A3.44,3.44,0,0,1,617.18,16a7.07,7.07,0,0,1,2.46-.38,6.39,6.39,0,0,1,2.25.32,2.91,2.91,0,0,1,1.27.82,2.8,2.8,0,0,1,.57,1.25,9.53,9.53,0,0,1,.09,1.69v2.44a26.75,26.75,0,0,0,.12,3.23,4,4,0,0,0,.47,1.3h-1.92a3.76,3.76,0,0,1-.36-1.32M622,21.24a14,14,0,0,1-3,.69,6.21,6.21,0,0,0-1.6.37,1.55,1.55,0,0,0-.72.59A1.61,1.61,0,0,0,617,25a2.36,2.36,0,0,0,1.62.49,3.82,3.82,0,0,0,1.88-.46,2.86,2.86,0,0,0,1.21-1.27,4.41,4.41,0,0,0,.3-1.83Z" transform="translate(12.95 20.34)"/><path class="cls-58" d="M633.69,26.66V25.3a3.38,3.38,0,0,1-3,1.61,4.39,4.39,0,0,1-2.38-.71,4.62,4.62,0,0,1-1.67-2,6.8,6.8,0,0,1-.6-2.94,7.77,7.77,0,0,1,.53-2.94,4.26,4.26,0,0,1,4-2.72,3.6,3.6,0,0,1,3,1.48V11.73h1.82V26.66Zm-5.8-5.39a4.72,4.72,0,0,0,.88,3.1,2.64,2.64,0,0,0,2.07,1,2.59,2.59,0,0,0,2-1,4.47,4.47,0,0,0,.84-3,5,5,0,0,0-.85-3.26,2.6,2.6,0,0,0-2.1-1,2.53,2.53,0,0,0-2,1,4.91,4.91,0,0,0-.83,3.15" transform="translate(12.95 20.34)"/><path class="cls-58" d="M637.59,21.26a5.56,5.56,0,0,1,1.66-4.45,5,5,0,0,1,3.41-1.2,4.82,4.82,0,0,1,3.64,1.46,5.51,5.51,0,0,1,1.42,4,7.16,7.16,0,0,1-.63,3.29,4.45,4.45,0,0,1-1.82,1.85,5.31,5.31,0,0,1-2.61.67A4.9,4.9,0,0,1,639,25.46a5.8,5.8,0,0,1-1.4-4.2m1.88,0a4.56,4.56,0,0,0,.9,3.11,3,3,0,0,0,4.26.29,4,4,0,0,0,.29-.29,4.69,4.69,0,0,0,.91-3.17,4.49,4.49,0,0,0-.91-3,3,3,0,0,0-4.26-.28,3.83,3.83,0,0,0-.29.28,4.54,4.54,0,0,0-.9,3.1" transform="translate(12.95 20.34)"/><path class="cls-58" d="M655.65,30.8V15.85h1.67v1.41A4.15,4.15,0,0,1,658.65,16a3.66,3.66,0,0,1,1.8-.41,4.27,4.27,0,0,1,2.45.71,4.39,4.39,0,0,1,1.6,2,7.72,7.72,0,0,1-.06,5.82,4.54,4.54,0,0,1-4.12,2.75,3.48,3.48,0,0,1-1.64-.39,3.78,3.78,0,0,1-1.2-1V30.8Zm1.66-9.48a4.71,4.71,0,0,0,.85,3.08,2.6,2.6,0,0,0,2.05,1,2.64,2.64,0,0,0,2.09-1,4.9,4.9,0,0,0,.87-3.19,4.78,4.78,0,0,0-.85-3.09,2.58,2.58,0,0,0-2-1,2.63,2.63,0,0,0-2.07,1.1,4.84,4.84,0,0,0-.91,3.17Z" transform="translate(12.95 20.34)"/><path class="cls-58" d="M666.57,21.26a5.6,5.6,0,0,1,1.67-4.45,5,5,0,0,1,3.41-1.2,4.83,4.83,0,0,1,3.64,1.46,5.55,5.55,0,0,1,1.41,4,7.15,7.15,0,0,1-.62,3.29,4.47,4.47,0,0,1-1.83,1.85,5.25,5.25,0,0,1-2.6.67A4.92,4.92,0,0,1,668,25.46a5.85,5.85,0,0,1-1.4-4.2m1.88,0a4.62,4.62,0,0,0,.91,3.11,3,3,0,0,0,4.26.29,4,4,0,0,0,.29-.29,4.8,4.8,0,0,0,.91-3.17,4.55,4.55,0,0,0-.91-3,3,3,0,0,0-4.26-.28,3.83,3.83,0,0,0-.29.28,4.55,4.55,0,0,0-.91,3.1Z" transform="translate(12.95 20.34)"/><path class="cls-58" d="M678.81,26.66V15.85h1.65v1.64A4.7,4.7,0,0,1,681.63,16a2.05,2.05,0,0,1,1.18-.36,3.61,3.61,0,0,1,1.88.58l-.64,1.71a2.69,2.69,0,0,0-1.35-.4,1.84,1.84,0,0,0-1.08.36,2.07,2.07,0,0,0-.68,1,7,7,0,0,0-.3,2.12v5.67Z" transform="translate(12.95 20.34)"/><path class="cls-58" d="M699,23.18l1.9.24A4.66,4.66,0,0,1,699.21,26a5,5,0,0,1-3.1.92,5,5,0,0,1-3.76-1.47A5.71,5.71,0,0,1,691,21.35a6,6,0,0,1,1.41-4.24,4.77,4.77,0,0,1,3.64-1.5,4.62,4.62,0,0,1,3.55,1.47,5.89,5.89,0,0,1,1.37,4.16c0,.11,0,.27,0,.48h-8.07a4.19,4.19,0,0,0,1,2.73,3,3,0,0,0,2.26.95,2.76,2.76,0,0,0,1.72-.53A3.48,3.48,0,0,0,699,23.18m-6-3h6a3.56,3.56,0,0,0-.69-2A2.81,2.81,0,0,0,696,17.11a2.93,2.93,0,0,0-2.13.85,3.36,3.36,0,0,0-.94,2.26" transform="translate(12.95 20.34)"/><rect class="cls-58" x="716.08" y="32.08" width="1.83" height="14.92"/><path class="cls-58" d="M528.17,54.16v-15h1.67v1.41a4.15,4.15,0,0,1,1.33-1.24A3.66,3.66,0,0,1,533,39a4.27,4.27,0,0,1,2.45.71,4.32,4.32,0,0,1,1.59,2,7.81,7.81,0,0,1,0,5.83,4.57,4.57,0,0,1-1.74,2,4.39,4.39,0,0,1-2.38.71,3.45,3.45,0,0,1-1.64-.39,3.67,3.67,0,0,1-1.2-1v5.27Zm1.66-9.49a4.74,4.74,0,0,0,.85,3.09,2.62,2.62,0,0,0,2,1,2.65,2.65,0,0,0,2.1-1,4.9,4.9,0,0,0,.87-3.19,4.78,4.78,0,0,0-.85-3.09,2.52,2.52,0,0,0-2-1,2.64,2.64,0,0,0-2.08,1.09,4.88,4.88,0,0,0-.9,3.18" transform="translate(12.95 20.34)"/><path class="cls-58" d="M539.74,50V39.2h1.65v1.64a4.7,4.7,0,0,1,1.17-1.52,2,2,0,0,1,1.17-.36,3.52,3.52,0,0,1,1.89.59l-.64,1.7a2.65,2.65,0,0,0-1.34-.4,1.76,1.76,0,0,0-1.08.37,2,2,0,0,0-.69,1,7,7,0,0,0-.3,2.13V50Z" transform="translate(12.95 20.34)"/><path class="cls-58" d="M546,44.61a5.6,5.6,0,0,1,1.67-4.45A5,5,0,0,1,551.1,39a4.83,4.83,0,0,1,3.64,1.46,5.55,5.55,0,0,1,1.42,4,7.25,7.25,0,0,1-.63,3.28,4.41,4.41,0,0,1-1.82,1.86,5.3,5.3,0,0,1-2.61.66,4.81,4.81,0,0,1-3.67-1.46A5.79,5.79,0,0,1,546,44.61m1.88,0a4.6,4.6,0,0,0,.91,3.1,3,3,0,0,0,4.25.3,2.13,2.13,0,0,0,.3-.3,4.76,4.76,0,0,0,.91-3.16,4.49,4.49,0,0,0-.91-3,3,3,0,0,0-4.27-.28l-.28.28a4.65,4.65,0,0,0-.91,3.1" transform="translate(12.95 20.34)"/><path class="cls-58" d="M558,50.91l1.78.26a1.7,1.7,0,0,0,.63,1.2,3,3,0,0,0,1.86.51,3.23,3.23,0,0,0,2-.51,2.42,2.42,0,0,0,.94-1.42,11.49,11.49,0,0,0,.13-2.34,3.76,3.76,0,0,1-3,1.41,4.06,4.06,0,0,1-3.45-1.6,6.19,6.19,0,0,1-1.22-3.86,7.19,7.19,0,0,1,.56-2.86,4.4,4.4,0,0,1,1.62-2,4.33,4.33,0,0,1,2.5-.71,3.88,3.88,0,0,1,3.16,1.54v-1.3h1.68v9.35a8.85,8.85,0,0,1-.51,3.57A3.71,3.71,0,0,1,565,53.8a5.67,5.67,0,0,1-2.74.61,5.25,5.25,0,0,1-3.13-.87A3,3,0,0,1,558,50.91m1.52-6.5a4.74,4.74,0,0,0,.85,3.11,2.81,2.81,0,0,0,4.26,0,4.57,4.57,0,0,0,.85-3.05,4.42,4.42,0,0,0-.88-3,2.74,2.74,0,0,0-2.13-1,2.65,2.65,0,0,0-2.07,1,4.41,4.41,0,0,0-.88,2.95" transform="translate(12.95 20.34)"/><path class="cls-58" d="M569.87,50V39.2h1.65v1.64a4.56,4.56,0,0,1,1.17-1.52,2,2,0,0,1,1.17-.36,3.54,3.54,0,0,1,1.89.59l-.64,1.7a2.66,2.66,0,0,0-1.35-.4,1.76,1.76,0,0,0-1.08.37,2,2,0,0,0-.68,1,7,7,0,0,0-.3,2.13V50Z" transform="translate(12.95 20.34)"/><path class="cls-58" d="M583.89,48.68a6.86,6.86,0,0,1-2,1.22,5.77,5.77,0,0,1-2,.36,4,4,0,0,1-2.73-.87,2.84,2.84,0,0,1-1-2.23,3,3,0,0,1,1.31-2.5,4.21,4.21,0,0,1,1.31-.6,12.91,12.91,0,0,1,1.63-.28,16.59,16.59,0,0,0,3.27-.64v-.47a2,2,0,0,0-.52-1.58,3,3,0,0,0-2.09-.62,3.22,3.22,0,0,0-1.91.45,2.73,2.73,0,0,0-.91,1.6l-1.79-.24a4.54,4.54,0,0,1,.8-1.86,3.59,3.59,0,0,1,1.62-1.09,7.05,7.05,0,0,1,2.45-.38,6.33,6.33,0,0,1,2.25.33,2.83,2.83,0,0,1,1.28.82,2.87,2.87,0,0,1,.57,1.24,9.58,9.58,0,0,1,.09,1.69v2.44a24.85,24.85,0,0,0,.12,3.23,4,4,0,0,0,.47,1.3h-1.92a3.76,3.76,0,0,1-.36-1.32m-.15-4.09a14.09,14.09,0,0,1-3,.69,7.15,7.15,0,0,0-1.6.36,1.57,1.57,0,0,0-.72.6,1.6,1.6,0,0,0,.3,2.09,2.36,2.36,0,0,0,1.62.49,3.82,3.82,0,0,0,1.88-.46,2.81,2.81,0,0,0,1.21-1.27,4.41,4.41,0,0,0,.3-1.83Z" transform="translate(12.95 20.34)"/><path class="cls-58" d="M588.43,50V39.2h1.64v1.52A3.78,3.78,0,0,1,593.35,39a3.52,3.52,0,0,1,2,.5,2.66,2.66,0,0,1,1.08,1.39A3.85,3.85,0,0,1,599.74,39a3.23,3.23,0,0,1,2.47.89,3.79,3.79,0,0,1,.87,2.74V50h-1.83V43.2a4.92,4.92,0,0,0-.17-1.58,1.49,1.49,0,0,0-.64-.78,2.12,2.12,0,0,0-1.1-.3,2.57,2.57,0,0,0-1.89.76,3.34,3.34,0,0,0-.75,2.43V50h-1.84V43a3.1,3.1,0,0,0-.44-1.83,1.72,1.72,0,0,0-1.47-.61,2.67,2.67,0,0,0-1.43.41,2.32,2.32,0,0,0-.95,1.19,6.64,6.64,0,0,0-.3,2.26V50Z" transform="translate(12.95 20.34)"/><path class="cls-58" d="M612.85,48.68a6.86,6.86,0,0,1-2,1.22,5.77,5.77,0,0,1-2,.36,4,4,0,0,1-2.74-.87,3.1,3.1,0,0,1-.59-3.68,3,3,0,0,1,.94-1.05,4.37,4.37,0,0,1,1.32-.6,12.91,12.91,0,0,1,1.63-.28,16.59,16.59,0,0,0,3.27-.64v-.47a2,2,0,0,0-.52-1.58,3,3,0,0,0-2.08-.62,3.24,3.24,0,0,0-1.92.45,2.73,2.73,0,0,0-.91,1.6l-1.79-.24a4.41,4.41,0,0,1,.8-1.86,3.59,3.59,0,0,1,1.62-1.09,7.05,7.05,0,0,1,2.45-.38,6.33,6.33,0,0,1,2.25.33,2.83,2.83,0,0,1,1.28.82,2.87,2.87,0,0,1,.57,1.24,10.64,10.64,0,0,1,.09,1.69v2.44a24.85,24.85,0,0,0,.12,3.23,4,4,0,0,0,.46,1.3H613.2a4,4,0,0,1-.35-1.32m-.15-4.09a14,14,0,0,1-3,.69,7.4,7.4,0,0,0-1.6.36,1.68,1.68,0,0,0-.72.6,1.61,1.61,0,0,0,.3,2.09,2.38,2.38,0,0,0,1.62.49,3.89,3.89,0,0,0,1.89-.46,2.91,2.91,0,0,0,1.21-1.27,4.41,4.41,0,0,0,.3-1.83Z" transform="translate(12.95 20.34)"/><polygon class="cls-58" points="636.41 70.35 636.41 55.43 647.2 55.43 647.2 57.19 638.39 57.19 638.39 61.76 646.64 61.76 646.64 63.51 638.39 63.51 638.39 68.59 647.54 68.59 647.54 70.35 636.41 70.35"/><path class="cls-58" d="M637.06,50V39.2h1.65v1.64a4.7,4.7,0,0,1,1.17-1.52,2,2,0,0,1,1.17-.36,3.54,3.54,0,0,1,1.89.59l-.64,1.7a2.65,2.65,0,0,0-1.34-.4,1.76,1.76,0,0,0-1.08.37,1.88,1.88,0,0,0-.68,1,7,7,0,0,0-.32,2.13V50Z" transform="translate(12.95 20.34)"/><path class="cls-58" d="M651.08,48.68a6.86,6.86,0,0,1-2,1.22,5.77,5.77,0,0,1-2,.36,4,4,0,0,1-2.74-.87,2.91,2.91,0,0,1-1-2.23,3,3,0,0,1,1.31-2.5,4.37,4.37,0,0,1,1.32-.6,12.91,12.91,0,0,1,1.63-.28,16.59,16.59,0,0,0,3.27-.64c0-.25,0-.41,0-.47a2,2,0,0,0-.52-1.58,3,3,0,0,0-2.09-.62,3.26,3.26,0,0,0-1.91.45,2.73,2.73,0,0,0-.91,1.6l-1.79-.24a4.54,4.54,0,0,1,.8-1.86,3.59,3.59,0,0,1,1.62-1.09,7.05,7.05,0,0,1,2.45-.38,6.33,6.33,0,0,1,2.25.33,2.83,2.83,0,0,1,1.28.82,2.76,2.76,0,0,1,.57,1.24,10.65,10.65,0,0,1,.1,1.69v2.44a26.75,26.75,0,0,0,.11,3.23,4,4,0,0,0,.47,1.3h-1.92a4,4,0,0,1-.37-1.32m-.15-4.09a13.87,13.87,0,0,1-3,.69,7.27,7.27,0,0,0-1.6.36,1.59,1.59,0,0,0-.43,2.69,2.41,2.41,0,0,0,1.63.49,3.85,3.85,0,0,0,1.88-.46,2.81,2.81,0,0,0,1.21-1.27,4.41,4.41,0,0,0,.3-1.83Z" transform="translate(12.95 20.34)"/><path class="cls-58" d="M654.89,46.78l1.81-.28a2.54,2.54,0,0,0,.85,1.67,3,3,0,0,0,2,.58,2.89,2.89,0,0,0,1.87-.51A1.56,1.56,0,0,0,662,47a1.12,1.12,0,0,0-.54-1,8.05,8.05,0,0,0-1.87-.62,16.75,16.75,0,0,1-2.79-.88,2.67,2.67,0,0,1-1.59-2.48,2.79,2.79,0,0,1,.33-1.33,3,3,0,0,1,.91-1,3.71,3.71,0,0,1,1.16-.53,5.33,5.33,0,0,1,1.58-.21,6.12,6.12,0,0,1,2.24.36,3,3,0,0,1,1.42,1,4,4,0,0,1,.64,1.67l-1.8.24a1.91,1.91,0,0,0-.71-1.3,2.54,2.54,0,0,0-1.65-.47,3.06,3.06,0,0,0-1.8.42,1.22,1.22,0,0,0-.54,1,1,1,0,0,0,.22.64,1.6,1.6,0,0,0,.71.49c.18.07.72.23,1.61.47a21.47,21.47,0,0,1,2.72.86,2.55,2.55,0,0,1,1.64,2.52,3,3,0,0,1-.53,1.73,3.39,3.39,0,0,1-1.55,1.25,5.56,5.56,0,0,1-2.28.45,5.16,5.16,0,0,1-3.21-.88,4.07,4.07,0,0,1-1.41-2.62" transform="translate(12.95 20.34)"/><path class="cls-58" d="M666,50V39.2h1.64v1.52A3.83,3.83,0,0,1,671,39a3.5,3.5,0,0,1,2,.5A2.66,2.66,0,0,1,674,40.85,3.85,3.85,0,0,1,677.35,39a3.29,3.29,0,0,1,2.48.89,3.82,3.82,0,0,1,.86,2.74V50h-1.82V43.2a4.66,4.66,0,0,0-.18-1.58,1.49,1.49,0,0,0-.64-.78,2,2,0,0,0-1.1-.3,2.59,2.59,0,0,0-1.89.76,3.34,3.34,0,0,0-.75,2.43V50h-1.84V43a3,3,0,0,0-.44-1.83,1.72,1.72,0,0,0-1.47-.61,2.7,2.7,0,0,0-1.43.41,2.28,2.28,0,0,0-1,1.19,6.64,6.64,0,0,0-.3,2.26V50Z" transform="translate(12.95 20.34)"/><path class="cls-58" d="M690.49,50V48.42a4,4,0,0,1-3.43,1.83,4.37,4.37,0,0,1-1.79-.36A3,3,0,0,1,684,49a3.41,3.41,0,0,1-.57-1.36,9.83,9.83,0,0,1-.11-1.71V39.21h1.83v6a11.25,11.25,0,0,0,.11,1.93,2,2,0,0,0,.74,1.14,2.27,2.27,0,0,0,1.39.41,3,3,0,0,0,1.54-.42,2.4,2.4,0,0,0,1-1.15,5.85,5.85,0,0,0,.29-2.12V39.2h1.84V50Z" transform="translate(12.95 20.34)"/><path class="cls-58" d="M694.27,46.78l1.81-.28a2.58,2.58,0,0,0,.85,1.67,3,3,0,0,0,2,.58,2.92,2.92,0,0,0,1.88-.51,1.6,1.6,0,0,0,.61-1.21,1.14,1.14,0,0,0-.54-1,8.29,8.29,0,0,0-1.88-.62,17.05,17.05,0,0,1-2.79-.88,2.74,2.74,0,0,1-1.25-3.81,2.87,2.87,0,0,1,.9-1,3.81,3.81,0,0,1,1.16-.53,5.33,5.33,0,0,1,1.58-.21,6.09,6.09,0,0,1,2.24.36,3,3,0,0,1,1.42,1,3.88,3.88,0,0,1,.64,1.67l-1.79.24a2,2,0,0,0-.71-1.3,2.57,2.57,0,0,0-1.65-.47,3.09,3.09,0,0,0-1.81.42,1.22,1.22,0,0,0-.54,1,1,1,0,0,0,.23.64,1.55,1.55,0,0,0,.7.49c.19.07.72.23,1.62.47a21.33,21.33,0,0,1,2.71.86,2.66,2.66,0,0,1,1.21,1,2.7,2.7,0,0,1,.44,1.56,3.05,3.05,0,0,1-.54,1.73,3.37,3.37,0,0,1-1.54,1.25,5.56,5.56,0,0,1-2.28.45,5.14,5.14,0,0,1-3.21-.88,4.08,4.08,0,0,1-1.42-2.62" transform="translate(12.95 20.34)"/><polygon class="cls-58" points="722.22 67.93 722.22 63.84 718.16 63.84 718.16 62.13 722.22 62.13 722.22 58.08 723.96 58.08 723.96 62.13 728.02 62.13 728.02 63.84 723.96 63.84 723.96 67.93 722.22 67.93"/><path class="cls-58" d="M535.19,73.36V72a3.36,3.36,0,0,1-3,1.61,4.23,4.23,0,0,1-2.38-.71,4.71,4.71,0,0,1-1.68-2,6.91,6.91,0,0,1-.59-2.94,7.54,7.54,0,0,1,.54-2.93,4.14,4.14,0,0,1,1.62-2,4.27,4.27,0,0,1,2.41-.7,3.56,3.56,0,0,1,3,1.47V58.43h1.82V73.35Zm-5.8-5.4a4.73,4.73,0,0,0,.88,3.11,2.63,2.63,0,0,0,2.06,1,2.61,2.61,0,0,0,2-1,4.47,4.47,0,0,0,.84-3,5,5,0,0,0-.85-3.26,2.63,2.63,0,0,0-2.1-1,2.54,2.54,0,0,0-2,1,4.86,4.86,0,0,0-.83,3.14" transform="translate(12.95 20.34)"/><path class="cls-58" d="M547.16,69.88l1.9.23a4.69,4.69,0,0,1-1.66,2.58,5.63,5.63,0,0,1-6.86-.55,5.73,5.73,0,0,1-1.39-4.1,6,6,0,0,1,1.41-4.23,4.75,4.75,0,0,1,3.65-1.51,4.64,4.64,0,0,1,3.54,1.48,5.85,5.85,0,0,1,1.37,4.15v.49h-8.06a4.1,4.1,0,0,0,1,2.73,3,3,0,0,0,2.25.95,2.85,2.85,0,0,0,1.72-.53,3.53,3.53,0,0,0,1.12-1.69m-6-3h6a3.68,3.68,0,0,0-.69-2,2.83,2.83,0,0,0-2.27-1.07,2.9,2.9,0,0,0-2.13.86,3.33,3.33,0,0,0-.94,2.26" transform="translate(12.95 20.34)"/><rect class="cls-58" x="570.06" y="78.77" width="1.83" height="14.92"/><path class="cls-58" d="M568.83,72a7.19,7.19,0,0,1-2,1.22,5.63,5.63,0,0,1-2,.35,3.85,3.85,0,0,1-2.73-.87,2.89,2.89,0,0,1-1-2.22,3,3,0,0,1,.36-1.45,3,3,0,0,1,1-1,4.53,4.53,0,0,1,1.32-.61,12.59,12.59,0,0,1,1.63-.27,16.74,16.74,0,0,0,3.27-.64V66a2,2,0,0,0-.52-1.57,3.07,3.07,0,0,0-2.09-.63,3.2,3.2,0,0,0-1.91.46,2.73,2.73,0,0,0-.91,1.6l-1.8-.25a4.52,4.52,0,0,1,.81-1.85,3.42,3.42,0,0,1,1.62-1.09,7.05,7.05,0,0,1,2.45-.38,6.39,6.39,0,0,1,2.25.32,2.53,2.53,0,0,1,1.84,2.07,10.58,10.58,0,0,1,.1,1.69v2.44a27,27,0,0,0,.11,3.24,4.25,4.25,0,0,0,.47,1.29h-1.92a4,4,0,0,1-.36-1.32m-.15-4.1a13.25,13.25,0,0,1-3,.69,7.91,7.91,0,0,0-1.6.37,1.56,1.56,0,0,0-.72.6,1.61,1.61,0,0,0,.3,2.09,2.42,2.42,0,0,0,1.62.49,3.79,3.79,0,0,0,1.89-.47,2.91,2.91,0,0,0,1.21-1.27,4.27,4.27,0,0,0,.29-1.83Z" transform="translate(12.95 20.34)"/><path class="cls-58" d="M589.19,58.43h2v8.63a10.3,10.3,0,0,1-.51,3.57,4.35,4.35,0,0,1-1.84,2.15,6.52,6.52,0,0,1-3.48.83,7.3,7.3,0,0,1-3.44-.72A4.06,4.06,0,0,1,580,70.8a9.74,9.74,0,0,1-.58-3.74V58.43h2v8.62a8.13,8.13,0,0,0,.36,2.86A2.7,2.7,0,0,0,583,71.33a4.23,4.23,0,0,0,2.15.5,4.15,4.15,0,0,0,3.11-1,5.6,5.6,0,0,0,.92-3.8Z" transform="translate(12.95 20.34)"/><path class="cls-58" d="M594.22,73.36V62.55h1.65v1.54a3.86,3.86,0,0,1,3.44-1.78,4.28,4.28,0,0,1,1.8.35,2.75,2.75,0,0,1,1.22.91,3.74,3.74,0,0,1,.58,1.36,10.62,10.62,0,0,1,.09,1.78v6.65h-1.83V66.78A4.79,4.79,0,0,0,601,65.1a1.72,1.72,0,0,0-.76-.88,2.41,2.41,0,0,0-1.28-.34,3,3,0,0,0-2,.75,3.62,3.62,0,0,0-.85,2.82v5.9Z" transform="translate(12.95 20.34)"/><path class="cls-58" d="M605.83,58.43h1.83v2.11h-1.83Zm0,4.12h1.83V73.36h-1.83Z" transform="translate(12.95 20.34)"/><path class="cls-58" d="M609.77,68a5.55,5.55,0,0,1,1.67-4.45,5,5,0,0,1,3.4-1.19,4.85,4.85,0,0,1,3.64,1.45,5.54,5.54,0,0,1,1.42,4.05,7,7,0,0,1-.63,3.28A4.36,4.36,0,0,1,617.45,73a5.28,5.28,0,0,1-2.61.66,4.85,4.85,0,0,1-3.67-1.45,5.87,5.87,0,0,1-1.4-4.21m1.88,0a4.57,4.57,0,0,0,.91,3.11,3,3,0,0,0,4.25.3,2.13,2.13,0,0,0,.3-.3,4.71,4.71,0,0,0,.9-3.16,4.41,4.41,0,0,0-.91-3,3,3,0,0,0-4.26-.29,2.57,2.57,0,0,0-.28.29,4.5,4.5,0,0,0-.91,3.09Zm2.17-6.75,1.35-2.84h2.41l-2.24,2.84Z" transform="translate(12.95 20.34)"/><path class="cls-58" d="M622,73.36V62.55h1.65v1.54a3.86,3.86,0,0,1,3.44-1.78,4.28,4.28,0,0,1,1.8.35,2.84,2.84,0,0,1,1.23.91,3.54,3.54,0,0,1,.56,1.36,10.64,10.64,0,0,1,.11,1.78v6.65H629V66.78a5,5,0,0,0-.22-1.68,1.72,1.72,0,0,0-.76-.88,2.41,2.41,0,0,0-1.28-.34,3,3,0,0,0-2,.75,3.66,3.66,0,0,0-.85,2.82v5.9Z" transform="translate(12.95 20.34)"/><polygon class="cls-58" points="652.65 93.7 652.65 78.77 663.44 78.77 663.44 80.53 654.63 80.53 654.63 85.1 662.88 85.1 662.88 86.86 654.63 86.86 654.63 91.93 663.78 91.93 663.78 93.69 652.65 93.7"/><path class="cls-58" d="M660.41,73.36V71.77A3.94,3.94,0,0,1,657,73.6a4.22,4.22,0,0,1-1.79-.36,2.83,2.83,0,0,1-1.23-.93A3.35,3.35,0,0,1,653.4,71a9.65,9.65,0,0,1-.11-1.7V62.56h1.83v6a10.48,10.48,0,0,0,.12,1.94,1.86,1.86,0,0,0,.73,1.13,2.26,2.26,0,0,0,1.38.41,3,3,0,0,0,1.55-.42,2.38,2.38,0,0,0,1-1.15,5.63,5.63,0,0,0,.3-2.11v-5.8h1.84V73.36Z" transform="translate(12.95 20.34)"/><path class="cls-58" d="M664.9,73.36V62.55h1.65v1.64a4.59,4.59,0,0,1,1.17-1.52,2,2,0,0,1,1.17-.36,3.53,3.53,0,0,1,1.89.58l-.64,1.7a2.75,2.75,0,0,0-1.34-.39,1.76,1.76,0,0,0-1.08.36,1.88,1.88,0,0,0-.68,1,7,7,0,0,0-.32,2.13v5.66Z" transform="translate(12.95 20.34)"/><path class="cls-58" d="M671.18,68a5.6,5.6,0,0,1,1.67-4.45,5,5,0,0,1,3.41-1.19,4.79,4.79,0,0,1,3.64,1.45,5.58,5.58,0,0,1,1.42,4.05,7.25,7.25,0,0,1-.63,3.28A4.41,4.41,0,0,1,678.87,73a5.3,5.3,0,0,1-2.61.66,4.84,4.84,0,0,1-3.67-1.45A5.82,5.82,0,0,1,671.18,68m1.89,0a4.56,4.56,0,0,0,.9,3.11,3,3,0,0,0,4.25.3,2.13,2.13,0,0,0,.3-.3,4.77,4.77,0,0,0,.91-3.16,4.51,4.51,0,0,0-.91-3,3,3,0,0,0-4.26-.29,2.65,2.65,0,0,0-.29.29,4.51,4.51,0,0,0-.9,3.09" transform="translate(12.95 20.34)"/><path class="cls-58" d="M683.46,77.5v-15h1.67V64a4,4,0,0,1,1.33-1.23,3.79,3.79,0,0,1,1.81-.42,4.25,4.25,0,0,1,4,2.73,7.47,7.47,0,0,1,.54,2.84,7.28,7.28,0,0,1-.6,3,4.53,4.53,0,0,1-4.12,2.75,3.6,3.6,0,0,1-1.64-.39,3.78,3.78,0,0,1-1.2-1v5.26ZM685.12,68A4.67,4.67,0,0,0,686,71.1a2.58,2.58,0,0,0,2,1,2.71,2.71,0,0,0,2.1-1,5,5,0,0,0,.87-3.19,4.82,4.82,0,0,0-.86-3.1,2.54,2.54,0,0,0-2-1A2.62,2.62,0,0,0,686,64.84a4.85,4.85,0,0,0-.9,3.17" transform="translate(12.95 20.34)"/><path class="cls-58" d="M702.45,69.88l1.9.23a4.69,4.69,0,0,1-1.66,2.58,5.63,5.63,0,0,1-6.86-.55,5.73,5.73,0,0,1-1.39-4.1,6,6,0,0,1,1.41-4.23,4.74,4.74,0,0,1,3.64-1.51A4.64,4.64,0,0,1,703,63.78a5.9,5.9,0,0,1,1.37,4.15c0,.11,0,.27,0,.49h-8a4.14,4.14,0,0,0,1,2.73,3,3,0,0,0,2.26.95,2.85,2.85,0,0,0,1.72-.53,3.48,3.48,0,0,0,1.13-1.69m-6-3h6a3.61,3.61,0,0,0-.69-2,2.81,2.81,0,0,0-2.27-1.07,2.91,2.91,0,0,0-2.13.86,3.28,3.28,0,0,0-.94,2.26Z" transform="translate(12.95 20.34)"/><path class="cls-58" d="M713.7,72a7.09,7.09,0,0,1-2,1.22,5.54,5.54,0,0,1-2,.35,3.89,3.89,0,0,1-2.74-.87,2.85,2.85,0,0,1-1-2.22,3,3,0,0,1,1.31-2.5,4.35,4.35,0,0,1,1.31-.61,13.19,13.19,0,0,1,1.63-.27,16.45,16.45,0,0,0,3.27-.64c0-.25,0-.41,0-.48a2,2,0,0,0-.52-1.57,3.09,3.09,0,0,0-2.09-.63,3.22,3.22,0,0,0-1.91.46,2.73,2.73,0,0,0-.91,1.6l-1.79-.25a4.5,4.5,0,0,1,.8-1.85,3.51,3.51,0,0,1,1.62-1.09,7.05,7.05,0,0,1,2.45-.38,6.33,6.33,0,0,1,2.25.32,3,3,0,0,1,1.28.82,2.86,2.86,0,0,1,.57,1.25,9.53,9.53,0,0,1,.09,1.69v2.44a29.24,29.24,0,0,0,.12,3.24,4,4,0,0,0,.47,1.29h-1.92A4,4,0,0,1,713.7,72m-.15-4.1a13.3,13.3,0,0,1-3,.69A7.91,7.91,0,0,0,709,69a1.56,1.56,0,0,0-.72.6,1.62,1.62,0,0,0,.3,2.09,2.42,2.42,0,0,0,1.62.49,3.79,3.79,0,0,0,1.89-.47,2.81,2.81,0,0,0,1.21-1.27,4.43,4.43,0,0,0,.29-1.83Z" transform="translate(12.95 20.34)"/></g></g></g></g></g></svg>