<?xml version="1.0" encoding="utf-8"?>
<!-- Generator: Adobe Illustrator 26.3.1, SVG Export Plug-In . SVG Version: 6.00 Build 0)  -->
<svg version="1.1" id="Layer_1" xmlns="http://www.w3.org/2000/svg" xmlns:xlink="http://www.w3.org/1999/xlink" x="0px" y="0px"
	 viewBox="0 0 728.9 124.1" style="enable-background:new 0 0 728.9 124.1;" xml:space="preserve">
<style type="text/css">
	.st0{fill:#C1E623;}
	.st1{fill:#FFFFFF;}
	.st2{fill:#F5F50A;}
</style>
<g id="Layer_2_00000111155976590679105980000012957564158470983312_">
	<g id="Layer_1-2">
		<g>
			<g>
				<path class="st0" d="M149.2,43.9c-2.7-1.2-3.7-0.3-4.4,2.1c-5.8,19.4-11.7,38.8-17.5,58.2c-1.4,4.9-5.3,7-9.4,4.8
					c-1.6-0.9-3.2-2.9-3.8-4.7C107.9,85,101.9,65.5,95.9,46c-0.3-1-0.6-1.8-0.9-2.9c-2.6-0.7-3.6,0.1-3.6,3
					c0.1,18.8,0.1,37.6,0,56.4c0,6.4-5.1,9.6-10.9,6.6c-1.3-0.7-2.1-2.2-2.8-3.6c-0.5-1-0.2-2.3-0.2-3.5c0-25.6,0-51.3,0-76.9
					c0-6.2,1.3-8,7.4-9.3c2.4-0.5,4.9-0.8,7.3-0.4c5.4,0.8,9.1,3.7,10.7,9.3c5.5,19.1,11.1,38.1,16.7,57.1c0.3,1,0.6,1.8,1.2,3.6
					c1.5-5.5,2.8-10.2,4.1-14.8c4.2-14.9,8.8-29.8,12.4-44.9c2-8.1,9.4-11.5,16.8-10.1c7.1,1.3,8.8,3.3,8.8,10.5
					c0,25.6,0,51.3,0,76.9c0,5.5-1.9,7.3-7.4,7.1c-4.5-0.1-6.4-1.9-6.4-6.6c0-18.6,0-37.1,0-55.7C149.2,46.3,149.2,45.1,149.2,43.9z
					"/>
				<path class="st0" d="M210.8,27.3c-1.4,4.4-2.8,8.3-4,12.1c-7,21.7-14.2,43.5-21.2,65.1c-1.8,5.6-4.4,6.8-9.7,4.9
					c-4.3-1.6-5.4-3.9-4-8.3c6.4-19.4,12.7-38.7,19.1-58c2.4-7.3,4.9-14.6,7.2-22c1.1-3.4,3.1-5.4,6.6-5.6c4-0.2,8.1-0.3,12.1-0.1
					c3.5,0.2,5.6,2.7,6.6,5.9c8.9,26.8,17.6,53.6,26.3,80.4c1.3,4-0.3,6.6-4.6,8c-4.6,1.4-7.3,0.3-8.8-4.2
					c-4.6-13.9-9.1-27.8-13.6-41.5c-3.7-11.1-7.2-22.2-10.9-33.3C211.7,29.6,211.4,28.8,210.8,27.3z"/>
				<path class="st0" d="M278.2,27.4c-6.8,0-13.2,0-19.5,0c-4,0-5.6-1.7-5.6-6.1c0-4.2,1.3-5.8,5.4-5.8c17.7,0,35.5,0,53.1,0
					c4.2,0,5.4,1.3,5.4,5.8c0,4.7-1.3,6.1-5.4,6.2c-6.1,0-12.2,0-18.3,0.1c-0.2,0-0.4,0.1-1.1,0.4c0,1.1,0,2.3,0,3.6
					c0,23.8,0,47.7,0,71.5c0,5.4-1.9,7.2-7.1,7.2c-5.1,0-6.9-1.8-6.9-7c0-23.8,0-47.7,0-71.5C278.2,30.3,278.2,29.1,278.2,27.4z"/>
				<path class="st0" d="M20,62.5c0,13.4,0,26.8,0,40.3c0,2.5,0.1,5.6-2.8,6.2c-2.9,0.7-6.2,0.5-8.9-0.4c-1.3-0.4-2.2-3.6-2.2-5.5
					C5.8,94.5,6,85.9,6,77.3c0-18.2,0-36.5,0-54.7c0-6.1,2.2-8.1,8.3-7.5c4,0.4,5.7,2,5.7,6.3C20.1,34.9,20,48.7,20,62.5z"/>
				<path class="st0" d="M49.3,68.5c-3.9,0-7.7,0.1-11.6,0c-4-0.1-5.7-1.9-5.7-5.8c0-4,1.7-6.1,5.7-6.2c7.7-0.1,15.4-0.1,23.1,0
					c4,0.1,5.6,1.9,5.6,6.2c0,4-1.5,5.7-5.6,5.8C57,68.6,53.1,68.5,49.3,68.5z"/>
				<path class="st0" d="M210.3,89.9c-4.9-0.1-8.8-4.2-8.7-9.3c0.1-5,4.1-8.9,9.2-8.9c5.1,0.1,9.1,4.2,8.9,9.4
					C219.5,86.2,215.3,90.1,210.3,89.9z"/>
			</g>
		</g>
		<g>
			<path class="st1" d="M454.1,29c14.2,0,28.4,0,42.6,0c0,21.9,0,43.8,0,65.7c-32.8,0-65.6,0-98.4,0c0-21.9,0-43.7,0-65.7
				C416.9,29,435.5,29,454.1,29 M426.6,53.7c0.6-0.5,1.3-0.9,1.9-1.4c0.7,0.5,1.3,1,2.1,1.6c-0.3-1-0.6-1.8-0.8-2.5
				c0.7-0.5,1.3-1,2.1-1.6c-0.7,0-1.1-0.1-1.5,0c-1,0.2-1.4-0.3-1.6-1.2c-0.1-0.4-0.3-0.8-0.5-1.4c-0.2,0.7-0.4,1.3-0.6,1.8
				c-0.1,0.6-0.4,0.8-1,0.7s-1.1,0-1.9,0c0.8,0.6,1.8,1,1.9,1.6c0.2,0.6-0.3,1.5-0.5,2.3C426.5,53.7,426.5,53.7,426.6,53.7
				C426.5,53.7,426.5,53.6,426.6,53.7 M424.2,62.3c-0.2,0.8-0.4,1.6-0.7,2.5c0.8-0.6,1.5-1,2.1-1.5c0.7,0.5,1.3,1,2.2,1.6
				c-0.2-0.8-0.4-1.3-0.6-1.8s-0.2-0.9,0.4-1.2c0.5-0.3,0.9-0.7,1.6-1.2c-1.1,0-1.9,0-2.7,0c-0.3-0.8-0.5-1.5-0.8-2.5
				c-0.3,1-0.6,1.7-0.8,2.5c-0.8,0-1.6,0-2.4,0c0,0.1,0,0.2,0.1,0.2C423,61.3,423.5,61.8,424.2,62.3 M469.2,58.8
				c-0.1,0.2-0.1,0.3-0.2,0.5c-0.4,1.4-0.4,1.4-1.8,1.4c-0.4,0-0.7,0-1.3,0c0.6,0.5,1.1,0.8,1.6,1.1s0.6,0.7,0.4,1.2
				s-0.4,1.1-0.6,1.8c0.8-0.6,1.5-1.1,2.2-1.5c0.7,0.5,1.3,0.9,2.1,1.5c-0.2-0.8-0.4-1.3-0.6-1.8s-0.1-0.8,0.4-1.1s0.9-0.7,1.5-1.1
				c-1-0.1-2,0.2-2.5-0.2s-0.6-1.4-0.9-2.2C469.3,58.5,469.3,58.6,469.2,58.8 M427.8,74.8c0.2-0.2,0.5-0.3,0.8-0.5
				c0.4,0.3,0.7,0.5,1,0.7s0.6,0.5,1.1,0.8c-0.2-0.7-0.3-1.2-0.5-1.6c-0.4-0.7-0.1-1.1,0.5-1.5c0.4-0.3,0.8-0.6,1.4-1.1
				c-0.8,0-1.4,0-1.9,0.1c-0.6,0.1-1-0.2-1.1-0.8c-0.1-0.6-0.4-1.1-0.6-1.8c-0.2,0.7-0.4,1.2-0.5,1.8c-0.1,0.7-0.5,0.9-1.2,0.8
				c-0.5,0-1,0-1.7,0c0.7,0.5,1.7,0.9,1.9,1.5c0.2,0.6-0.3,1.5-0.5,2.3c0,0,0,0.1,0.1,0.2C427,75.4,427.3,75.1,427.8,74.8
				 M459.9,81.6c0.1-0.2,0.2-0.6,0.4-0.7c0.5-0.4,1-0.8,1.6-1.2c-1,0-1.8,0-2.6,0c-0.3-0.8-0.5-1.6-0.8-2.5c-0.3,1-0.6,1.7-0.9,2.6
				c-0.8,0-1.6,0-2.5,0c0.8,0.6,1.4,1,2.1,1.5c-0.3,0.8-0.5,1.6-0.8,2.5c0.8-0.6,1.5-1.1,2.2-1.5c0.7,0.5,1.3,1,2.2,1.6
				C460.3,83,460.1,82.4,459.9,81.6 M464.6,52.8c-0.1,0.3-0.2,0.6-0.4,1.1c0.8-0.6,1.5-1.1,2.2-1.6c0.7,0.5,1.4,1,2.2,1.6
				c-0.2-0.8-0.4-1.3-0.6-1.9c-0.2-0.5-0.1-0.8,0.4-1.1s0.9-0.7,1.4-1c-0.9-0.2-1.8,0.1-2.3-0.3c-0.5-0.4-0.6-1.4-0.9-2.1
				c0,0-0.1,0-0.3-0.2c0.1,2.2-1.1,2.8-2.9,2.5c0,0-0.1,0.1-0.2,0.1c0.7,0.5,1.3,1,1.9,1.5C464.9,51.9,464.8,52.3,464.6,52.8
				 M448,37.8c-0.1-0.4-0.3-0.9-0.5-1.5c-0.2,0.7-0.5,1.2-0.6,1.7c-0.1,0.7-0.5,0.9-1.1,0.8c-0.5-0.1-1.1,0-1.8,0
				c0.8,0.6,1.5,1.1,2.1,1.6c-0.3,0.8-0.5,1.6-0.8,2.5c0.8-0.6,1.5-1.1,2.2-1.6c0.7,0.5,1.3,1,2.2,1.6c-0.3-0.8-0.5-1.4-0.6-1.9
				c0-0.3,0.1-0.7,0.3-1c0.4-0.4,0.9-0.7,1.6-1.2c-0.8,0-1.3,0-1.8,0C448.5,38.9,448.1,38.7,448,37.8 M449.7,82.6
				c-1.4,0-1.4,0-1.9-1.4c-0.1-0.3-0.2-0.6-0.3-1c-0.1,0.1-0.1,0.1-0.1,0.1c-0.1,0.2-0.2,0.4-0.2,0.6c-0.5,1.6-0.5,1.6-2.2,1.6
				c-0.2,0-0.5,0-0.8,0c0.7,0.6,1.6,1,1.8,1.6c0.2,0.6-0.3,1.5-0.6,2.4c0.7-0.5,1.4-1,2.1-1.5c0.7,0.5,1.3,1,2,1.4
				c-0.9-1.7-0.6-3,1.2-3.8c0,0,0-0.1,0-0.2C450.4,82.6,450.2,82.6,449.7,82.6 M468.1,75.5c0.1,0.1,0.2,0.1,0.4,0.2
				c-0.2-0.7-0.3-1.3-0.6-1.8c-0.2-0.5-0.1-0.8,0.3-1.1c0.5-0.3,1-0.7,1.4-1c-0.6-0.1-1-0.1-1.5-0.1c-0.7,0.1-1.1-0.1-1.3-0.8
				c-0.1-0.5-0.3-1.1-0.5-1.7c-0.2,0.7-0.5,1.3-0.6,1.8c-0.1,0.7-0.5,0.8-1.1,0.8c-0.5-0.1-1-0.1-1.6-0.1c0.4,0.5,0.8,0.9,1.3,1.1
				c0.5,0.3,0.7,0.6,0.4,1.2c-0.2,0.5-0.4,1.1-0.6,1.8c0.8-0.6,1.5-1.1,2.2-1.6C467,74.6,467.5,75,468.1,75.5 M434.2,80.5
				c0.9,0.4,1.1,1.1,0.6,2c-0.2,0.3-0.2,0.7-0.4,1.1c0,0.1,0.1,0.2,0.1,0.3c1.3-1.8,2.5-1.6,3.8-0.3c0,0,0.1,0,0.2,0
				c-0.2-0.5-0.3-1.1-0.5-1.6c-0.3-0.6-0.1-0.9,0.4-1.2c0.5-0.3,0.9-0.6,1.5-1.1c-0.8,0-1.3-0.1-1.9,0c-0.7,0.1-0.9-0.2-1-0.7
				s-0.3-1.1-0.6-1.9c-0.3,0.9-0.5,1.4-0.6,2c-0.1,0.5-0.4,0.6-0.9,0.6c-0.6-0.1-1.2,0-2,0C433.5,80.1,433.8,80.3,434.2,80.5
				 M436,40.9c-0.1,0.3-0.2,0.5-0.3,0.8c-0.8,0-1.6,0-2.7,0c0.8,0.6,1.5,1.1,2.1,1.6c-0.2,0.8-0.5,1.6-0.8,2.5
				c0.8-0.6,1.5-1.1,2.1-1.5c0.7,0.5,1.3,0.9,2.2,1.5c-0.2-0.8-0.4-1.3-0.6-1.8s-0.1-0.8,0.4-1.1s1-0.7,1.6-1.2c-1.1,0-1.9,0-2.7,0
				c-0.3-0.8-0.5-1.5-0.8-2.5C436.3,39.9,436.2,40.4,436,40.9 M455.7,41.8c-0.2,0-0.3,0-0.7,0c0.8,0.6,1.5,1.1,2.1,1.6
				c-0.3,0.8-0.5,1.6-0.8,2.5c0.8-0.6,1.5-1.1,2.2-1.6c0.7,0.5,1.3,1,2.1,1.5c-0.2-0.7-0.3-1.2-0.6-1.7c-0.3-0.6-0.2-1,0.4-1.3
				c0.5-0.3,0.9-0.6,1.4-1c0-0.1-0.1-0.1-0.1-0.2c-0.8,0-1.6,0-2.4,0c-0.3-0.8-0.5-1.5-0.8-2.5c-0.3,1-0.6,1.7-0.8,2.5
				C457,41.8,456.4,41.8,455.7,41.8z"/>
			<g>
				<path class="st1" d="M583,85.9c-2.1,0-4.2,0-6.3,0c0,1.7,0,3.3,0,5c3,0,6.1,0,9.1,0c0,0.6,0,1.2,0,1.8c-3.7,0-7.5,0-11.3,0
					c0-4.9,0-9.9,0-15c3.6,0,7.3,0,10.9,0c0,0.6,0,1.2,0,1.8c-2.9,0-5.8,0-8.8,0c0,1.5,0,2.9,0,4.5c2.7,0,5.4,0,8.2,0
					c0,0.7,0,1.2,0,1.9C584.3,85.9,583.7,85.9,583,85.9z"/>
				<path class="st1" d="M566.7,58c1.2-1.5,2.8-1.9,4.5-1.4c1.2,0.3,2,1.2,2,2.4c0.1,2.8,0,5.7,0,8.5c-0.6,0-1.2,0-1.9,0
					c0-2.3,0-4.6,0-6.9c0-1.7-0.5-2.5-1.7-2.6c-1.5-0.1-2.6,0.7-2.7,2.3c-0.2,1.6-0.1,3.1-0.2,4.7c0,0.8,0,1.6,0,2.5
					c-0.6,0-1.2,0-1.9,0c0-2.1,0-4.2,0-6.3c0-0.4,0-0.7,0-1.1c-0.1-1.2-0.5-1.8-1.4-2c-1.1-0.2-2.3,0.3-2.7,1.3
					c-0.3,0.6-0.4,1.4-0.4,2.1c-0.1,2,0,4,0,6.1c-0.7,0-1.3,0-2,0c0-3.6,0-7.2,0-10.9c0.6,0,1.1,0,1.7,0c0,0.4,0,0.8,0.1,1.2
					c1-1,2.1-1.6,3.4-1.5c1.2,0,2.1,0.4,2.8,1.5C566.5,58,566.6,58,566.7,58z"/>
				<path class="st1" d="M688.5,57.7c1-1.1,2.3-1.4,3.7-1.2c1.5,0.2,2.6,1.3,2.7,2.9c0.1,2.7,0,5.4,0,8.2c-0.6,0-1.2,0-1.9,0
					c0-1.7,0-3.3,0-4.9c0-0.8,0-1.7-0.1-2.5c-0.1-1.3-0.5-1.8-1.4-2s-2.2,0.2-2.7,1.1c-0.3,0.5-0.4,1.2-0.5,1.7
					c-0.1,2.1,0,4.3,0,6.4c0,0.1,0,0.1-0.1,0.2c-0.6,0-1.2,0-1.9,0c0-1.6,0-3.1,0-4.6c0-0.9,0-1.8,0-2.7c0-1.4-0.5-2.1-1.5-2.2
					c-1.2-0.2-2.4,0.5-2.7,1.7c-0.2,0.6-0.2,1.2-0.2,1.8c0,2,0,3.9,0,6c-0.7,0-1.3,0-1.9,0c0-3.6,0-7.2,0-10.9c0.6,0,1.1,0,1.7,0
					c0,0.4,0.1,0.7,0.1,1.1c1-0.9,2-1.4,3.3-1.4s2.3,0.6,3,1.7C688.3,58,688.4,57.9,688.5,57.7z"/>
				<path class="st1" d="M705.7,67.7c-0.6,0-1.1,0-1.7,0c0-1.6,0-3.2,0-4.8c0-0.8,0-1.7,0-2.5c0-1.4-0.5-2.1-1.4-2.3
					c-1.2-0.2-2.5,0.5-2.8,1.6c-0.2,0.8-0.3,1.8-0.3,2.6c0,1.7,0,3.4,0,5.2c-0.7,0-1.2,0-1.9,0c0-3.6,0-7.2,0-10.9c0.5,0,1,0,1.6,0
					c0,0.3,0.1,0.7,0.2,1.1c1-0.9,2-1.4,3.3-1.4s2.3,0.5,3,1.8c0.9-1.2,2.1-1.8,3.6-1.8c1.9,0.1,3.2,1.1,3.2,3c0.1,2.7,0,5.4,0,8.2
					c-0.7,0-1.3,0-2,0c0-2.4,0-4.7,0-7c0-1.7-0.5-2.4-1.8-2.5c-1.5-0.1-2.6,1-2.7,2.5c-0.1,2,0,4,0,6C706,67,705.9,67.3,705.7,67.7z
					"/>
				<path class="st1" d="M515.7,67.7c-0.2-0.1-0.4-0.2-0.4-0.4c0-4.9,0-9.7,0-14.7c3.7,0,7.2,0,10.9,0c0,0.6,0,1.1,0,1.8
					c-2.9,0-5.8,0-8.8,0c0,1.5,0,2.9,0,4.4c2.7,0,5.4,0,8.2,0c0,0.7,0,1.2,0,1.9c-2.7,0-5.4,0-8.2,0c0,1.7,0,3.3,0,5
					c3,0,6.1,0,9.1,0c0,0.7,0,1.2,0,1.9C523,67.7,519.4,67.7,515.7,67.7z"/>
				<path class="st1" d="M653.9,56.5c0.9,0.3,1.8,0.6,2.6,1c0-0.1,0-0.4,0.1-0.7c0.6,0,1.1,0,1.8,0c0,2.4,0,4.7,0,7
					c0,1.5,0,3.1-0.2,4.6c-0.2,2-1.4,3.2-3.2,3.5c-1.2,0.2-2.4,0.2-3.5-0.1c-1.6-0.4-2.3-1.4-2.4-3.3c0.9,0.1,1.8-0.1,2.4,1.1
					c0.6,1.2,2,0.9,3.1,0.8c1-0.1,1.8-1.1,1.9-2.1c0-0.5,0-1,0-1.5c-0.7,0.3-1.3,0.7-2,0.8c-2.5,0.5-4.6-0.8-5.4-3.2
					c-0.5-1.7-0.5-3.4,0.2-5C650.1,57.3,651.6,56.3,653.9,56.5 M654.3,58.2c-1.9-0.3-3.1,0.8-3.4,2.2c-0.2,1.1-0.2,2.3,0,3.5
					c0.3,1.4,1.4,2.2,2.7,2.2s2.4-0.9,2.7-2.3c0.2-0.7,0.2-1.5,0.2-2.3C656.5,60,655.9,58.8,654.3,58.2z"/>
				<path class="st1" d="M674.3,88.6c0.9,2.5,4.5,3.4,6.3,1.6c1-1,1-2.3,1-3.6c0-2.9,0-5.7,0-8.6c0-0.1,0-0.1,0-0.3
					c0.7,0,1.4,0,2.1,0c0,1.2,0,2.5,0,3.7c0,2.1,0,4.2-0.1,6.3c-0.1,3.9-2.7,5.4-6.2,5.3c-0.8,0-1.5-0.2-2.3-0.4c-2-0.6-3-2-3.2-4
					c-0.2-2.5-0.2-5-0.2-7.6c0-1.1,0-2.2,0-3.3c0.7,0,1.4,0,2.1,0C674.2,81.4,674.2,85,674.3,88.6z"/>
				<path class="st1" d="M616.7,59.3c0-2.2,0-4.3,0-6.4c0-0.1,0-0.1,0.1-0.3c1.5,0,3.1,0,4.7,0c1.2,0,2.4,0,3.6,0.2
					c2.1,0.3,3.3,1.9,3.4,3.9c0.1,2.4-1.1,4.2-3.1,4.6c-1.7,0.3-3.4,0.2-5.1,0.3c-0.4,0-0.7,0-1.2,0c0,2,0,4,0,6.1
					c-0.8,0-1.4,0-2.2,0C616.7,64.8,616.7,62.1,616.7,59.3 M625.8,55.5c-0.6-0.3-1.1-1-1.7-1c-1.7-0.1-3.5,0-5.2,0
					c0,1.8,0,3.4,0,5.2c1.5,0,3,0,4.5,0C625.7,59.6,626.8,57.8,625.8,55.5z"/>
				<path class="st1" d="M568.1,42.1c-1.5-0.8-2.4-1.9-2.9-3.4c-0.9-2.2-1-4.4-0.3-6.7c0.9-3.1,3.9-5.1,7.1-4.8
					c3.1,0.2,5.1,1.8,5.6,4.4c-0.5,0.1-1,0.3-1.6,0.4c-0.2,0-0.5-0.2-0.6-0.4c-0.8-2.2-2.5-2.9-4.8-2.6c-1.8,0.2-3.2,1.6-3.7,3.7
					c-0.4,1.7-0.3,3.4,0.2,5.1c0.7,2,2.2,3,4.3,3c2,0,3.4-1.1,4.1-3c0.1-0.2,0.1-0.5,0.3-0.8c0.7,0.2,1.4,0.3,2.1,0.5
					c-0.4,2.8-2.6,4.9-5.4,5.1C571,42.9,569.6,42.7,568.1,42.1z"/>
				<path class="st1" d="M637.2,42.3c-0.6,0.2-1.1,0.3-1.7,0.4c-0.1-0.4-0.1-0.8-0.2-1.2c-1.5,1.5-3.2,1.7-4.9,0.9
					c-2-0.9-2.7-2.7-2.8-4.7c-0.1-0.8,0-1.7,0.2-2.5c0.7-3.5,4.6-5.1,7.5-2.5c0-1.7,0-3.4,0-5.1c0.7,0,1.2,0,1.9,0
					C637.2,32.3,637.2,37.3,637.2,42.3 M634.3,33.8c-1.7-1.5-3.8-0.9-4.5,1.2c-0.5,1.4-0.5,2.9,0.1,4.2c0.4,1.1,1.2,1.8,2.4,1.9
					c1.2,0.1,2.2-0.4,2.6-1.5C635.7,37.6,635.7,35.7,634.3,33.8z"/>
				<path class="st1" d="M669.3,39.4c0-4,0-8,0-12c0.6,0,1.2,0,1.9,0c0,1.6,0,3.3,0,5.1c0.2,0,0.3,0,0.3-0.1c2.1-1.8,5.2-1.4,6.6,1
					c1.3,2.3,1.3,4.8,0,7.1c-1.4,2.5-4.1,2.8-6.8,1c-0.1,0.3-0.1,0.6-0.2,0.9c-0.6,0-1.1,0-1.7,0C669.3,41.5,669.3,40.5,669.3,39.4
					 M676,34c-1.3-1.7-3.8-1.2-4.6,0.8c-0.6,1.5-0.6,3.1,0,4.6c0.4,1,1.2,1.7,2.4,1.7s2.1-0.5,2.6-1.6C677.2,37.7,677.2,35.8,676,34
					z"/>
				<path class="st1" d="M660.6,34.2c0,2.8,0,5.5,0,8.3c-0.6,0-1.2,0-1.8,0c0-0.3-0.1-0.6-0.1-1c-1.4,1.5-3.1,1.7-4.8,0.9
					c-1.9-0.9-2.8-2.6-2.8-4.5c-0.1-1.3,0.1-2.7,0.6-3.9c1-2.8,4.7-3.5,6.7-1.7c0.1,0.1,0.1,0.1,0.3,0.1c0-0.9,0-1.7,0-2.5
					s0-1.6,0-2.5c0.7,0,1.3,0,2,0C660.6,29.7,660.6,31.9,660.6,34.2 M654.6,33.3c-0.4,0.4-1,0.8-1.2,1.3c-0.6,1.5-0.6,3.1-0.1,4.6
					c0.5,1.3,1.5,1.9,2.7,1.9c1.1,0,2.2-0.8,2.5-2.1c0.2-1.2,0.2-2.6,0-3.8C658.2,33.3,656.6,32.6,654.6,33.3z"/>
				<path class="st1" d="M618.8,87.6c0-1.9,0-3.8,0-5.7c0.6,0,1.2,0,1.8,0c0,0.3,0,0.6,0.1,1c0.9-0.9,1.8-1.4,3-1.4
					c2.1,0,3.7,1.1,4.4,3c0.6,1.7,0.6,3.4,0,5.2c-0.8,2.5-4.1,4.6-7.2,2.2c0,1.7,0,3.3,0,5c-0.7,0-1.3,0-2,0
					C618.8,93.9,618.8,90.8,618.8,87.6 M621.5,90.7c1.8,1.4,4,0.7,4.5-1.5c0.3-1.2,0.2-2.5,0-3.7c-0.2-1.3-1.3-2.2-2.4-2.3
					c-1.2-0.1-2.4,0.6-2.8,2C620.3,87,620.2,88.9,621.5,90.7z"/>
				<path class="st1" d="M677.3,60.6c0.1,2.4-0.3,4.7,0.4,7c-1.6,0.4-1.9,0.3-2.2-0.8c-1.1,0.4-2.1,0.9-3.2,1.1
					c-0.9,0.2-1.9,0-2.8-0.2c-1.1-0.3-1.8-1.2-1.9-2.4c-0.2-1.2,0.2-2.3,1.2-2.9c0.9-0.5,2-0.8,3.1-1c1.1-0.3,2.2-0.4,3.3-0.5
					c0.3-1.8-0.3-2.6-2.1-2.7c-2.1-0.1-2.5,0.1-3.4,2c-0.6-0.1-1.2-0.1-1.8-0.2c0.1-1.7,1.2-2.9,3.1-3.2c1-0.2,2.1-0.3,3.1-0.2
					C676.4,56.8,677.3,57.9,677.3,60.6 M669.7,65.1c0.4,0.4,0.7,0.9,1.1,1.1c1.3,0.4,2.5,0.2,3.5-0.7c1-0.8,1-1.9,0.9-3.1
					c-1.4,0.3-2.8,0.5-4.2,0.8C670,63.4,669.6,63.9,669.7,65.1z"/>
				<path class="st1" d="M538.7,61.5c1.6-0.2,3-0.5,4.5-0.7c0.3-1.4-0.1-2.1-1.3-2.5c-2-0.6-3.3-0.1-4.2,1.9
					c-0.6-0.1-1.2-0.1-1.8-0.2c0.2-1.5,1-2.5,2.4-3c1.6-0.6,3.2-0.6,4.8-0.2c1.5,0.4,2.1,1.4,2.2,2.9c0,2,0,4,0.1,6
					c0,0.6,0.2,1.3,0.4,1.9c-1.4,0.4-1.8,0.2-2.3-0.8c-1.1,0.4-2.2,0.9-3.3,1.1c-0.9,0.1-1.9,0-2.8-0.3c-1.1-0.4-1.7-1.3-1.8-2.5
					c-0.1-1.2,0.4-2.2,1.5-2.9C537.4,61.8,538.1,61.7,538.7,61.5 M539.9,66.3c2.4-0.1,3.5-1.4,3.4-4c-0.9,0.2-1.7,0.3-2.6,0.5
					c-0.6,0.1-1.3,0.2-1.9,0.4c-0.7,0.2-1.2,0.7-1.2,1.5c0,0.9,0.6,1.3,1.3,1.6C539.2,66.3,539.5,66.3,539.9,66.3z"/>
				<path class="st1" d="M643.6,87c1.5-0.3,3-0.6,4.5-0.9h0.1c0.5-0.2,1.1-0.4,1.3-0.7c0.3-0.7-0.3-1.6-1.1-1.9
					c-1.9-0.8-3.6-0.2-4.5,1.7c-0.4,0-0.8,0-1.2-0.1c-0.2,0-0.5-0.1-0.7-0.2c0.6-2.1,1.7-3.1,3.8-3.2c1.1-0.1,2.3,0,3.4,0.2
					c1.5,0.3,2.2,1.3,2.2,2.9s0,3.2,0,4.8c0,1,0.2,2.1,0.3,3.1c-1.5,0.3-1.7,0.2-2.2-1c-1.4,1.1-2.9,1.6-4.7,1.3
					c-1.5-0.2-2.7-1-3-2.3C641.4,89.1,642,87.9,643.6,87 M648.2,87.8c-1.1,0.2-2.2,0.4-3.3,0.6c-0.7,0.2-1.2,0.6-1.2,1.4
					c-0.1,0.8,0.4,1.3,1.1,1.6c2.6,0.9,4.9-1,4.5-3.9C649,87.5,648.7,87.6,648.2,87.8z"/>
				<path class="st1" d="M715.5,65.9c-1.3-2.2-1.3-4.4-0.4-6.6c0.8-2.1,3-3.1,5.5-2.8c2,0.2,3.7,1.9,4,4c0.1,0.7,0.2,1.4,0.2,2.3
					c-2.8,0-5.5,0-8.1,0c-0.3,1.5,1,3.1,2.2,3.4c1.6,0.4,2.9-0.1,3.6-1.5c0.3-0.5,0.5-0.6,1-0.5c0.4,0.1,0.7,0.1,1.1,0.2
					c-0.1,1.5-1.2,2.8-2.9,3.3C719.4,68.4,717.1,67.8,715.5,65.9 M717.6,61.1c1.7,0,3.4,0,5,0c-0.3-2.1-1.4-3.1-3.4-3
					c-1.5,0.1-2.9,1.7-2.6,3C716.9,61.1,717.2,61.1,717.6,61.1z"/>
				<path class="st1" d="M639.4,91.2c-1.6,2-3.7,2.2-5.9,1.6s-3.3-2.1-3.4-4.3c-0.1-1-0.1-2.1,0.1-3.1c0.6-2.5,2.6-4,5.3-3.8
					c2.5,0.1,4.2,1.7,4.6,4.4c0.1,0.6,0.1,1.1,0.2,1.8c-2.8,0-5.5,0-8.2,0c0,2.4,1.7,3.9,3.9,3.4c0.6-0.1,1.3-0.6,1.7-1.1
					c0.8-1,1-1.1,2.5-0.6C639.9,90.1,639.7,90.6,639.4,91.2 M638,85.5c-0.6-1.8-1.9-2.5-3.7-2.1c-1.4,0.3-2.3,1.5-2.2,2.9
					c2,0,4,0,6,0C638.1,86,638.1,85.8,638,85.5z"/>
				<path class="st1" d="M559.1,87.9c-0.4,0-0.7,0-1.1,0c0.1,3,2.6,4.1,4.5,3.3c0.4-0.2,0.8-0.5,1.1-0.9c0.8-1.1,1.1-1.2,2.5-0.7
					c-0.5,1.7-1.5,2.9-3.2,3.3c-3,0.7-5.8-0.4-6.7-3.3c-0.8-2.7,0-5.8,1.9-7.1c3.3-2.2,7.5-0.3,8,3.6c0.2,1.8,0.2,1.8-1.6,1.8
					C562.8,87.9,561,87.9,559.1,87.9 M560.9,83.2c-1.9,0.4-2.8,1.4-2.7,3c1,0,2,0,2.9,0c1,0,2,0,3,0C564,84.2,563,83.4,560.9,83.2z"
					/>
				<path class="st1" d="M648.1,41.6c-1.9,1.5-4,1.6-6.1,0.6c-2-0.9-2.7-2.8-2.7-4.9c-0.1-2.1,0.4-4.1,2.4-5.3c3.4-2.1,7.5,0,7.8,4
					c0,0.5,0.1,1,0.1,1.5c-1.5,0-2.8,0-4.2,0s-2.7,0-4.1,0c0.1,1.9,1,3.2,2.5,3.5c1.6,0.4,2.8-0.3,3.7-2.2c0.6,0.1,1.2,0.1,2.2,0.3
					C649.2,40,648.7,40.8,648.1,41.6 M645.3,35.9c0.7,0,1.4,0,2.1,0c0.2-1.7-1.2-2.9-2.7-3c-1.8-0.1-3.1,1.1-3.3,3
					C642.7,35.9,643.9,35.9,645.3,35.9z"/>
				<path class="st1" d="M714.5,36.4c0.1-3.2,2.4-5.3,5.4-5.1c3.1,0.2,5,2.7,4.7,6.2c-2.7,0-5.4,0-8.1,0c0,1.8,0.8,3,2.3,3.4
					c1.6,0.5,2.6-0.1,3.9-2.1c0.6,0.1,1.2,0.2,1.8,0.2c-0.3,2-2.1,3.5-4.3,3.6C716.4,42.9,714.2,40.6,714.5,36.4 M716.6,35.4
					c0.1,0.2,0.2,0.5,0.4,0.5c1.9,0,3.8,0,5.7,0c-0.2-1.5-0.8-2.4-1.9-2.8C719,32.5,717.4,33.3,716.6,35.4z"/>
				<path class="st1" d="M551.9,88.9c0-1.1,0-2.2,0-3.2c0-1.4-0.6-2.2-1.6-2.3c-1.5-0.2-2.8,0.5-3.2,1.7c-0.1,0.5-0.2,1.1-0.2,1.6
					c0,2,0,4,0,6c-0.7,0-1.3,0-2,0c0-5,0-9.9,0-15c0.6,0,1.2,0,1.9,0c0,1.6,0,3.3,0,5.1c1.2-1,2.4-1.4,3.8-1.3
					c2,0.2,3.1,1.2,3.2,3.2c0.1,2.6,0,5.2,0,7.9c-0.6,0-1.3,0-2,0C551.9,91.5,551.9,90.3,551.9,88.9z"/>
				<path class="st1" d="M703.4,33.5c0-2.1,0-4,0-6.1c0.6,0,1.2,0,1.9,0c0,1.6,0,3.3,0,5c0.8-0.4,1.5-0.8,2.2-0.9
					c2.8-0.7,4.7,0.7,4.8,3.5c0.1,2.5,0,5,0,7.5c-0.6,0-1.2,0-1.9,0c0-1.6,0-3.1,0-4.7c0-0.9,0-1.8-0.1-2.7
					c-0.2-1.4-0.9-2.1-2.2-2.2c-1.4,0-2.6,0.9-2.7,2.3c-0.1,1.6-0.1,3.1-0.1,4.7c0,0.8,0,1.7,0,2.6c-0.6,0-1.2,0-1.9,0
					C703.4,39.6,703.4,36.6,703.4,33.5z"/>
				<path class="st1" d="M703,89.9c-0.5-1.6-0.5-3.2-0.1-4.7c0.6-2.3,2.6-3.6,5.1-3.5s4.5,1.6,4.9,4c0.2,1.2,0.2,2.5,0,3.7
					c-0.4,2.4-2.7,4-5.2,3.8C705.4,92.9,703.8,92,703,89.9 M705.1,89.7c0.6,1.2,1.6,1.8,3,1.7c1.4-0.1,2.2-0.9,2.6-2.2
					c0.4-1.3,0.4-2.7-0.1-4c-0.5-1.2-1.6-2-2.9-1.9c-1.3,0-2.5,0.8-2.9,2.1C704.5,86.7,704.5,88.2,705.1,89.7z"/>
				<path class="st1" d="M644,56.7c2.1,0.9,3.3,2.6,3.3,4.8c0,0.9,0,1.7-0.2,2.6c-0.5,2.4-2.5,3.8-5.1,3.8c-2.5,0-4.5-1.6-4.9-3.9
					c-0.2-1.3-0.2-2.6,0-3.8c0.6-2.8,3.4-4.3,6.3-3.6C643.7,56.6,643.8,56.7,644,56.7 M643.6,58.5c-1.4-0.9-3.9-0.4-4.4,1.8
					c-0.3,1.2-0.2,2.5,0,3.7c0.2,1.3,1.2,2,2.5,2.2c1.1,0.2,2.1-0.3,2.7-1.2C645.9,63.3,645.5,59.9,643.6,58.5z"/>
				<path class="st1" d="M581.4,41.8c-2.6-1.7-2.6-7.5-0.3-9.3c1.7-1.3,3.5-1.6,5.5-0.8c1.9,0.7,2.9,2.1,3.1,4.1
					c0.2,1.8,0.2,3.5-0.9,5C587.1,43,583.9,43.4,581.4,41.8 M585.5,33.1c-1.6-0.5-3.3,0.2-3.7,1.8c-0.3,1.2-0.3,2.6-0.1,3.8
					c0.3,1.7,1.6,2.5,3.2,2.4c1.4-0.1,2.5-1.2,2.7-2.7c0.1-0.4,0.1-0.8,0.1-1.2C587.7,35.5,587.4,33.9,585.5,33.1z"/>
				<path class="st1" d="M520.9,93c-5,0.6-7-3.6-5.8-7.9c0.7-2.6,2.9-3.8,5.9-3.4c2.2,0.3,4,2.3,4.1,4.8c0,0.8,0,1.5-0.1,2.3
					C524.7,91.1,523.3,92.5,520.9,93 M522.8,85.3c-0.6-1.4-1.7-2.2-3.1-2c-1.4,0.1-2.5,1-2.8,2.5c-0.2,0.9-0.2,1.8-0.1,2.7
					c0.3,1.8,1.5,2.9,3,2.9s2.8-1,3.1-2.8C523.2,87.6,523,86.5,522.8,85.3z"/>
				<path class="st1" d="M613.9,82.1c1.9,1,2.9,2.6,2.8,4.8c0,1,0,2-0.3,2.9c-0.6,2.1-2.7,3.4-5,3.3c-2.5-0.1-4.5-1.6-4.8-3.9
					c-0.2-1.3-0.2-2.7,0.1-4C607.4,82.1,610.5,80.8,613.9,82.1 M614.7,86.3c-0.1-0.3-0.1-0.6-0.2-0.9c-0.4-1.3-1.5-2.2-2.9-2.2
					s-2.5,0.8-2.9,2.1c-0.4,1.3-0.4,2.6,0,3.9c0.4,1.4,1.6,2.2,3,2.2s2.5-0.9,2.9-2.3C614.7,88.3,614.6,87.4,614.7,86.3z"/>
				<path class="st1" d="M590.9,66.2c0.8-0.1,1.7,0,2.4-0.3c0.4-0.2,0.7-0.9,0.7-1.4c0-0.3-0.5-0.8-0.9-1c-1.1-0.4-2.2-0.6-3.3-1
					c-1.9-0.6-2.8-1.7-2.7-3.2s1.3-2.7,3.1-2.9c0.9-0.1,1.9,0,2.8,0.2c1.5,0.3,2.3,1.3,2.5,2.8c-0.4,0.1-0.7,0.2-1.1,0.2
					c-0.5,0.1-0.8,0.1-1.1-0.5c-0.5-1.3-3.1-1.6-4.1-0.6c-0.6,0.6-0.4,1.5,0.5,1.8s1.9,0.5,2.8,0.8c0.4,0.1,0.8,0.2,1.2,0.4
					c1,0.3,1.8,1,2,2.1c0.2,1.3-0.1,2.4-1.2,3.2c-1.6,1.2-4.5,1.3-6.2,0.2c-1-0.7-1.4-1.6-1.7-2.9c0.7-0.1,1.3-0.2,1.9-0.3
					C589.2,65.1,589.7,66,590.9,66.2z"/>
				<path class="st1" d="M683,34c0.7,2,1.5,4,2.2,6c0.9-2.4,1.7-4.7,2.5-7c0.6-1.6,0.6-1.6,2.5-1.4c-0.5,1.4-1,2.8-1.5,4.2
					c-1.2,3.1-2.3,6.1-3.5,9.2c-0.4,0.9-1,1.7-2.1,1.9c-2.1,0.2-2,0-2.1-1.8c0.2,0,0.4,0,0.5,0c2.1,0.1,3.2-1.5,2.4-3.4
					c-1.2-3.1-2.4-6.2-3.6-9.3c-0.1-0.2-0.1-0.4-0.2-0.6c0.1-0.1,0.1-0.1,0.2-0.1C682.1,31.4,682.1,31.4,683,34z"/>
				<path class="st1" d="M554.9,57.5c0.4,0.7,0.7,1.3,1.1,2.1c-0.8,0.1-1.4,0.2-2,0.3c-0.8-1.6-2-2.2-3.6-1.6
					c-0.5,0.2-1.1,0.7-1.1,1.1c0,0.4,0.6,0.9,1.1,1.1c1,0.4,2.1,0.6,3.2,0.9c1.9,0.6,2.7,1.4,2.7,2.9c0,1.6-1,2.8-2.7,3.3
					c-1.3,0.4-2.7,0.4-4-0.1c-1.5-0.5-2.2-1.7-2.4-3.3c0.6-0.1,1.2-0.2,1.8-0.3c0.9,2,2.1,2.7,4,2.1c0.7-0.2,1.2-0.6,1.3-1.4
					c0.1-0.9-0.6-1.1-1.2-1.3c-1-0.3-2-0.5-3-0.8c-1.9-0.6-2.7-1.5-2.7-3.1c0-1.4,1.1-2.6,2.9-2.9C551.9,56.3,553.5,56.4,554.9,57.5
					z"/>
				<path class="st1" d="M617.9,31.5c0.2,0.4,0.4,0.7,0.5,1c0.8-0.4,1.6-0.9,2.4-1.1c2.5-0.6,4.5,0.8,4.6,3.3c0.1,2.6,0,5.2,0,7.8
					c-0.7,0-1.3,0-2,0c0-1.8,0-3.5,0-5.2c0-0.6,0-1.3,0-1.9c-0.1-1.6-0.9-2.4-2.2-2.4c-1.5,0-2.6,1-2.7,2.5c-0.1,2-0.1,3.9-0.1,5.9
					c0,0.4,0,0.7,0,1.1c-0.7,0-1.2,0-1.9,0c0-3.6,0-7.3,0-11C617,31.5,617.4,31.5,617.9,31.5z"/>
				<path class="st1" d="M606.7,35.9c0,1,0,1.9,0,2.8c0,1.4,0.7,2.2,1.9,2.4c1.3,0.2,2.7-0.7,2.9-1.9c0.2-0.8,0.2-1.6,0.2-2.5
					c0-1.7,0-3.4,0-5.2c0.6,0,1.2,0,1.9,0c0,3.6,0,7.2,0,10.9c-0.5,0-1.1,0-1.7,0c0-0.4,0-0.7-0.1-1.2c-0.3,0.2-0.5,0.4-0.7,0.6
					c-1.9,1.5-5,1.1-6-0.7c-0.2-0.4-0.4-0.9-0.4-1.3c0-2.7,0-5.5,0-8.3c0.7,0,1.3,0,2,0C606.7,33,606.7,34.4,606.7,35.9z"/>
				<path class="st1" d="M583,58.9c0-0.8,0-1.4,0-2.2c0.7,0,1.3,0,1.9,0c0,3.6,0,7.2,0,10.9c-0.5,0-1.1,0-1.7,0c0-0.4-0.1-0.7-0.1-1
					c-0.8,0.4-1.6,1-2.5,1.2c-2.2,0.6-4.8-0.6-4.7-3.7c0-2.4,0-4.9,0-7.3c0.7,0,1.3,0,2,0c0,1.5,0,2.9,0,4.3c0,0.9,0,1.9,0,2.8
					c0,1.5,0.6,2.2,1.9,2.4c1.3,0.1,2.7-0.6,2.9-1.9c0.2-1.2,0.2-2.4,0.2-3.7C583,60.1,583,59.5,583,58.9z"/>
				<path class="st1" d="M656,83c1.4-1.5,3.1-1.7,4.9-1.1c1.4,0.4,2.1,1.5,2.1,2.9c0,2.6,0,5.2,0,7.9c-0.6,0-1.3,0-2,0
					c0-1.7,0-3.4,0-5.1c0-0.6,0-1.3,0-1.9c0-1.5-0.6-2.3-1.8-2.4c-1.7-0.2-2.9,0.6-3.1,2.1c-0.1,1-0.2,2-0.2,2.9c0,1.4,0,2.9,0,4.4
					c-0.6,0-1.2,0-1.9,0c0-3.6,0-7.2,0-10.8c0.6,0,1.1,0,1.6,0C655.8,82.3,655.9,82.7,656,83z"/>
				<path class="st1" d="M717.1,90.2c0,0.9,0,1.7,0,2.5c-0.7,0-1.3,0-1.9,0c0-3.6,0-7.2,0-10.8c0.5,0,1.1,0,1.7,0
					c0,0.3,0,0.7,0.1,1.1c1.5-1.5,3.3-1.8,5.2-1.1c1.1,0.4,1.8,1.3,1.9,2.5c0.1,2.7,0,5.5,0,8.3c-0.5,0-1.1,0-1.9,0
					c0-1.8,0-3.6,0-5.4c0-0.6,0-1.3-0.1-1.9c-0.2-1.7-1.5-2.5-3.2-1.9c-1.2,0.4-1.7,1.3-1.7,2.5C717.1,87.3,717.1,88.7,717.1,90.2z"
					/>
				<path class="st1" d="M588.5,90.9c-0.1-1.2-0.3-2.3-0.3-3.4c0-1.9,0-3.7,0-5.7c0.7,0,1.3,0,2,0c0,2,0,4,0,6c0,0.2,0,0.5,0,0.7
					c0,1.8,0.7,2.7,2.1,2.7c1.7,0.1,2.9-1,2.9-2.7c0.1-2,0-4.1,0-6.1c0-0.2,0-0.4,0-0.6c0.7,0,1.3,0,1.9,0c0,3.6,0,7.2,0,10.8
					c-0.5,0-1.1,0-1.7,0c0-0.4,0-0.7-0.1-1.3c-1.3,1.5-2.9,1.9-4.6,1.4C589.7,92.6,588.9,92.1,588.5,90.9z"/>
				<path class="st1" d="M688.9,88.4c0,1.5,0,2.9,0,4.3c-0.6,0-1.2,0-1.9,0c0-3.6,0-7.2,0-10.8c0.6,0,1.1,0,1.7,0
					c0,0.4,0,0.7,0.1,1.2c1.2-1.3,2.6-1.7,4.2-1.4c1.7,0.2,2.8,1.2,2.9,3c0.1,2.7,0,5.4,0,8.1c-0.6,0-1.2,0-1.9,0c0-1.6,0-3.1,0-4.6
					c0-0.8,0-1.5,0-2.3c0-1.7-0.7-2.5-2.1-2.5c-1.7,0-2.7,0.9-2.9,2.4C688.9,86.6,688.9,87.5,688.9,88.4z"/>
				<path class="st1" d="M600,28.1c1.2-1.2,2.7-0.9,4.2-0.7c-0.1,0.6-0.2,1.1-0.2,1.6c-2.7,0.2-2.9,0.4-2.6,2.5c0.6,0,1.3,0,2,0
					c0,0.5,0,1,0,1.6c-0.6,0-1.3,0-2.1,0c0,3.2,0,6.3,0,9.4c-0.7,0-1.3,0-1.9,0c0-3.1,0-6.2,0-9.4c-0.6,0-1-0.1-1.6-0.1
					c0-0.5,0-1,0-1.5c0.5,0,1,0,1.3,0C599.3,30.3,599.6,29.2,600,28.1z"/>
				<path class="st1" d="M528,78.8c1.1-1.4,2.4-1.7,4.6-1.1c-0.1,0.5-0.2,1-0.2,1.3c-0.9,0.2-1.8,0.2-2.3,0.6
					c-0.4,0.3-0.3,1.3-0.5,2.1c0.8,0,1.5,0,2.3,0c0,0.5,0,1,0,1.5c-0.7,0-1.4,0-2.1,0c0,3.2,0,6.3,0,9.4c-0.7,0-1.3,0-2,0
					c0-3.1,0-6.2,0-9.4c-0.6,0-1,0-1.6-0.1c0-0.5,0-0.9,0-1.4c0.5,0,1-0.1,1.4-0.1C527.7,80.8,527.8,79.8,528,78.8z"/>
				<path class="st1" d="M697.8,30.7c0-0.2,0-0.2,0-0.3c0-1.8,0-1.9,1.9-2.6c0,1.2,0,2.4,0,3.6c0.6,0,1.2,0,1.9,0c0,0.5,0,1,0,1.6
					c-0.6,0-1.2,0-1.9,0c0,0.9,0,1.8,0,2.6c0,1.3,0,2.6,0,3.9c0,0.8,0.3,1.3,1.2,1.2c0.6-0.1,0.9,0.1,0.9,0.8c0,0.3,0.1,0.6,0.1,1.1
					c-0.9,0-1.7,0.1-2.5,0s-1.4-0.7-1.4-1.7c0-2.2-0.1-4.4-0.1-6.6c0-0.4,0-0.7,0-1.1c-0.5,0-0.9-0.1-1.3-0.1c0-0.5,0-1,0-1.5
					C696.8,31.2,697.9,32,697.8,30.7z"/>
				<path class="st1" d="M541.3,88.3c0,0.4,0,0.7,0,1c0,1.7,0.1,1.8,1.9,1.8c0.1,0.5,0.2,1,0.3,1.8c-0.8,0-1.5,0.1-2.2,0
					c-1.3-0.2-1.9-0.9-1.9-2.5c0-2,0-4.1,0-6.1c0-0.3,0-0.6,0-1c-0.5,0-0.9,0-1.3,0c0-0.5,0-0.9,0-1.5c0.4,0,0.8-0.1,1.3-0.1
					c-0.1-1.6-0.4-3.3,2-3.6c0,1.2,0,2.4,0,3.6c0.6,0,1.2,0,1.9,0c0,0.5,0,1,0,1.5c-0.5,0-1.1,0-1.8,0
					C541.3,85,541.3,86.6,541.3,88.3z"/>
				<path class="st1" d="M602.3,57.6c0-0.8,0-1.6,0-2.3c0.6,0,1.2,0,1.8,0c0,1.3,0,2.7,0,4.1c1.4,0,2.7,0,4.1,0c0,0.6,0,1.2,0,1.8
					c-1.3,0-2.6,0-4.1,0c0,1.4,0,2.7,0,4.1c-0.6,0-1.2,0-1.8,0c0-1.3,0-2.6,0-4.1c-1.5,0-2.8,0-4.2,0c0-0.7,0-1.2,0-1.8
					c1.4,0,2.7,0,4.2,0C602.3,58.8,602.3,58.2,602.3,57.6z"/>
				<path class="st1" d="M663.4,57.4c1.1-1.2,2.3-1.3,3.7-0.3c-0.2,0.5-0.4,1.1-0.6,1.6c-2.2-0.6-3-0.1-3.3,2.1
					c-0.2,1.8-0.1,3.7-0.2,5.5c0,0.4,0,0.8,0,1.2c-0.6,0-1.2,0-1.9,0c0-3.6,0-7.2,0-10.9c0.5,0,1.1,0,1.7,0c0,0.4,0,0.8,0,1.4
					C663.1,57.8,663.2,57.6,663.4,57.4z"/>
				<path class="st1" d="M534.9,57.5c-0.2,0.5-0.4,0.9-0.5,1.3c-1-0.4-2.1-0.7-2.8,0.5c-0.3,0.6-0.5,1.3-0.5,1.9
					c-0.1,1.8,0,3.6,0,5.5c0,0.3,0,0.6,0,1c-0.7,0-1.3,0-2,0c0-3.6,0-7.3,0-10.9c0.6,0,1.1,0,1.7,0c0,0.4,0.1,0.7,0.1,1
					c0.6-0.4,1-1,1.7-1.2c0.6-0.2,1.3,0.1,2,0.2C534.7,56.8,534.8,57.2,534.9,57.5z"/>
				<path class="st1" d="M632.5,64.1c0,1.2,0,2.2,0,3.3c0,0.1,0,0.1-0.1,0.2c-0.6,0-1.2,0-1.8,0c0-3.6,0-7.2,0-10.9
					c0.5,0,1.1,0,1.7,0c0,0.4,0.1,0.7,0.2,1.2c0.8-1.3,1.8-1.8,3.1-1.4c1.1,0.3,1.1,0.4,0.7,1.4c-0.1,0.3-0.2,0.5-0.3,0.7
					c-0.1,0-0.1,0-0.2,0c-1.9-0.6-2.9,0.1-3.1,2.1C632.6,61.9,632.6,62.9,632.5,64.1z"/>
				<path class="st1" d="M602.2,85.1c-0.1,1.2-0.2,2.3-0.3,3.5c0,1.4,0,2.8,0,4.2c-0.7,0-1.3,0-1.9,0c0-3.6,0-7.2,0-10.8
					c0.5,0,1.1,0,1.6,0c0,0.3,0.1,0.7,0.1,0.9c0.6-0.4,1.2-1,1.9-1.1s1.5,0.2,2.3,0.3c-0.3,0.8-0.5,1.3-0.7,1.9
					C603.3,83.4,602.9,83.6,602.2,85.1z"/>
				<path class="st1" d="M700.7,87.6c0,1.8,0,3.4,0,5.1c-0.7,0-1.3,0-2,0c0-3.6,0-7.2,0-10.8c0.6,0,1.2,0,2,0
					C700.7,83.8,700.7,85.7,700.7,87.6z"/>
				<path class="st1" d="M596.1,38c-1.7,0-3.3,0-5,0c0-0.6,0-1.2,0-1.9c1.8,0,3.7,0,5.6,0C597.1,37.4,597,37.9,596.1,38z"/>
				<path class="st1" d="M700.2,77.7c0.2,0.2,0.4,0.4,0.4,0.7c0.1,0.5,0,0.9,0,1.4c-0.7,0-1.3,0-2,0c0-0.7,0-1.3,0-2.1
					C699.2,77.7,699.7,77.7,700.2,77.7z"/>
			</g>
			<path d="M424.1,62.2c-0.6-0.5-1.2-0.9-1.8-1.3c0,0,0-0.1-0.1-0.2c0.8,0,1.6,0,2.4,0c0.3-0.8,0.5-1.5,0.8-2.5
				c0.3,0.9,0.6,1.7,0.8,2.5c0.8,0,1.6,0,2.7,0c-0.7,0.5-1.1,0.9-1.6,1.2s-0.6,0.7-0.4,1.2s0.3,1,0.6,1.8c-0.8-0.6-1.5-1-2.2-1.6
				c-0.6,0.5-1.3,0.9-2.1,1.5C423.8,63.9,424,63.1,424.1,62.2z"/>
			<path d="M469.2,58.7c0.1-0.2,0.2-0.3,0.2-0.4c0.3,0.8,0.3,1.8,0.9,2.2c0.5,0.4,1.5,0.2,2.5,0.2c-0.6,0.4-1,0.8-1.5,1.1
				s-0.6,0.6-0.4,1.1s0.4,1.1,0.6,1.8c-0.8-0.6-1.5-1-2.1-1.5c-0.7,0.5-1.3,0.9-2.2,1.5c0.2-0.7,0.4-1.3,0.6-1.8s0.1-0.9-0.4-1.2
				s-0.9-0.7-1.6-1.1c0.6,0,1,0,1.3,0c1.4,0,1.4,0,1.8-1.4C469,59.1,469.1,59,469.2,58.7z"/>
			<path d="M427.7,74.8c-0.4,0.3-0.8,0.6-1.2,0.9c0-0.1-0.1-0.2-0.1-0.2c0.2-0.8,0.7-1.6,0.5-2.3c-0.2-0.6-1.1-0.9-1.9-1.5
				c0.7,0,1.2,0,1.7,0c0.6,0.1,1-0.1,1.2-0.8c0.1-0.5,0.3-1,0.5-1.8c0.2,0.7,0.5,1.2,0.6,1.8c0.1,0.6,0.5,0.9,1.1,0.8
				c0.5-0.1,1.1-0.1,1.9-0.1c-0.6,0.5-1,0.8-1.4,1.1c-0.6,0.4-0.9,0.8-0.5,1.5c0.2,0.4,0.3,1,0.5,1.6c-0.5-0.4-0.8-0.6-1.1-0.8
				c-0.3-0.2-0.6-0.5-1-0.7C428.3,74.4,428,74.6,427.7,74.8z"/>
			<path d="M459.9,81.7c0.2,0.7,0.4,1.3,0.7,2.1c-0.8-0.6-1.5-1.1-2.2-1.6c-0.7,0.5-1.3,0.9-2.2,1.5c0.3-0.9,0.5-1.7,0.8-2.5
				c-0.6-0.5-1.3-0.9-2.1-1.5c0.9,0,1.7,0,2.5,0c0.3-0.8,0.6-1.6,0.9-2.6c0.3,0.9,0.6,1.7,0.8,2.5c0.8,0,1.6,0,2.6,0
				c-0.7,0.5-1.2,0.8-1.6,1.2C460.1,81.1,460,81.4,459.9,81.7z"/>
			<path d="M464.7,52.8c0.1-0.5,0.3-0.9,0.4-1.4c-0.6-0.5-1.3-1-1.9-1.5c0.1-0.1,0.1-0.1,0.2-0.1c1.8,0.3,3.1-0.2,2.9-2.5
				c0.2,0.1,0.3,0.2,0.3,0.2c0.3,0.7,0.3,1.8,0.9,2.1c0.5,0.4,1.5,0.1,2.3,0.3c-0.5,0.3-0.9,0.7-1.4,1s-0.6,0.6-0.4,1.1
				s0.4,1.1,0.6,1.9c-0.8-0.6-1.5-1.1-2.2-1.6c-0.7,0.5-1.3,1-2.2,1.6C464.4,53.4,464.5,53.1,464.7,52.8z"/>
			<path d="M448,37.9c0.1,0.8,0.5,1,1.2,1c0.5-0.1,1,0,1.8,0c-0.7,0.5-1.2,0.8-1.6,1.2c-0.2,0.2-0.4,0.7-0.3,1
				c0.1,0.6,0.3,1.2,0.6,1.9c-0.8-0.6-1.5-1.1-2.2-1.6c-0.7,0.5-1.3,1-2.2,1.6c0.3-0.9,0.5-1.7,0.8-2.5c-0.6-0.5-1.3-1-2.1-1.6
				c0.7,0,1.3,0,1.8,0c0.7,0.1,1-0.1,1.1-0.8c0.1-0.5,0.3-1,0.6-1.7C447.7,37,447.9,37.4,448,37.9z"/>
			<path d="M449.8,82.6c0.4,0,0.6,0,0.9,0c0,0.1,0,0.2,0,0.2c-1.8,0.8-2.1,2-1.2,3.8c-0.6-0.5-1.3-0.9-2-1.4
				c-0.7,0.5-1.3,0.9-2.1,1.5c0.2-0.9,0.8-1.7,0.6-2.4c-0.2-0.6-1.1-1-1.8-1.6c0.3,0,0.6,0,0.8,0c1.7,0,1.7,0,2.2-1.6
				c0.1-0.2,0.1-0.4,0.2-0.6c0,0,0,0,0.1-0.1c0.1,0.3,0.2,0.7,0.3,1C448.3,82.6,448.3,82.6,449.8,82.6z"/>
			<path d="M468.1,75.4c-0.6-0.4-1.1-0.8-1.6-1.2c-0.7,0.5-1.4,1-2.2,1.6c0.2-0.7,0.4-1.3,0.6-1.8c0.3-0.6,0.1-0.9-0.4-1.2
				c-0.5-0.3-0.9-0.6-1.3-1.1c0.5,0,1,0,1.6,0.1s1-0.1,1.1-0.8c0.1-0.6,0.4-1.1,0.6-1.8c0.2,0.7,0.4,1.2,0.5,1.7
				c0.1,0.8,0.6,0.9,1.3,0.8c0.5-0.1,1-0.1,1.5,0.1c-0.5,0.3-0.9,0.7-1.4,1s-0.6,0.6-0.3,1.1c0.2,0.5,0.4,1.1,0.6,1.8
				C468.3,75.6,468.2,75.5,468.1,75.4z"/>
			<path d="M434.1,80.5c-0.3-0.2-0.6-0.4-1.1-0.8c0.8,0,1.4,0,2,0c0.5,0.1,0.7-0.1,0.9-0.6c0.2-0.6,0.4-1.2,0.6-2
				c0.3,0.8,0.4,1.3,0.6,1.9c0.1,0.5,0.4,0.8,1,0.7c0.5-0.1,1.1,0,1.9,0c-0.6,0.4-1,0.8-1.5,1.1c-0.5,0.3-0.7,0.6-0.4,1.2
				c0.2,0.5,0.3,1,0.5,1.6c-0.1,0-0.2,0-0.2,0c-1.3-1.4-2.6-1.5-3.8,0.3c0-0.1-0.1-0.2-0.1-0.3c0.1-0.4,0.2-0.7,0.4-1.1
				C435.3,81.6,435.1,81,434.1,80.5z"/>
			<path d="M426.5,53.6c0.2-0.8,0.7-1.6,0.5-2.3c-0.2-0.6-1.1-1-1.9-1.6c0.8,0,1.3,0,1.9,0c0.6,0.1,0.9-0.2,1-0.7s0.3-1.1,0.6-1.8
				c0.2,0.6,0.4,1,0.5,1.4c0.2,0.9,0.6,1.4,1.6,1.2c0.4-0.1,0.8,0,1.5,0c-0.8,0.6-1.4,1.1-2.1,1.6c0.2,0.8,0.5,1.5,0.8,2.5
				c-0.8-0.6-1.5-1.1-2.1-1.6C427.9,52.8,427.3,53.3,426.5,53.6L426.5,53.6z"/>
			<path d="M436,40.9c0.2-0.5,0.3-0.9,0.6-1.6c0.3,1,0.6,1.7,0.8,2.5c0.8,0,1.6,0,2.7,0c-0.7,0.5-1.1,0.9-1.6,1.2s-0.6,0.6-0.4,1.1
				s0.4,1.1,0.6,1.8c-0.8-0.6-1.5-1.1-2.2-1.5c-0.7,0.5-1.3,0.9-2.1,1.5c0.3-1,0.5-1.7,0.8-2.5c-0.7-0.5-1.3-1-2.1-1.6
				c1,0,1.8,0,2.7,0C435.8,41.5,435.9,41.2,436,40.9z"/>
			<path d="M455.7,41.8c0.7,0,1.2,0,1.9,0c0.3-0.8,0.5-1.5,0.8-2.5c0.3,0.9,0.6,1.7,0.8,2.5c0.8,0,1.6,0,2.4,0
				c0,0.1,0.1,0.1,0.1,0.2c-0.5,0.3-0.9,0.7-1.4,1c-0.6,0.3-0.7,0.7-0.4,1.3c0.2,0.5,0.3,1,0.6,1.7c-0.8-0.6-1.5-1-2.1-1.5
				c-0.7,0.5-1.3,1-2.2,1.6c0.3-1,0.6-1.7,0.8-2.5c-0.7-0.5-1.3-1-2.1-1.6C455.3,41.8,455.5,41.8,455.7,41.8z"/>
			<path class="st2" d="M426.5,53.6L426.5,53.6C426.5,53.7,426.5,53.7,426.5,53.6L426.5,53.6z"/>
		</g>
	</g>
</g>
</svg>
