<?xml version="1.0" encoding="utf-8"?>
<!-- Generator: Adobe Illustrator 26.3.1, SVG Export Plug-In . SVG Version: 6.00 Build 0)  -->
<svg version="1.1" id="Layer_1" xmlns="http://www.w3.org/2000/svg" xmlns:xlink="http://www.w3.org/1999/xlink" x="0px" y="0px"
	 viewBox="0 0 1024 542.7" style="enable-background:new 0 0 1024 542.7;" xml:space="preserve">
<style type="text/css">
	.st0{fill:#042354;}
	.st1{fill:#FFFFFF;}
	.st2{fill:#002969;}
</style>
<image style="overflow:visible;enable-background:new    ;" width="548" height="223" xlink:href="E9B14BFF.png"  transform="matrix(0.4913 0 0 0.4913 713.6855 69.7975)">
</image>
<image style="overflow:visible;enable-background:new    ;" width="453" height="600" xlink:href="../../../../Downloads/I-MAT/I-MAT/PUJ-Logo-vertical.png"  transform="matrix(0.2652 0 0 0.2652 449.595 20.235)">
</image>
<image style="overflow:visible;enable-background:new    ;" width="3500" height="1120" xlink:href="../../../../Downloads/I-MAT/I-MAT/ufrn-logo.png"  transform="matrix(7.402155e-02 0 0 7.402155e-02 718.7793 389.1587)">
</image>
<image style="overflow:visible;enable-background:new    ;" width="400" height="400" xlink:href="../../../../Downloads/I-MAT/I-MAT/uni_agh-logo.png"  transform="matrix(0.5463 0 0 0.5463 400.3948 315.6582)">
</image>
<image style="overflow:visible;enable-background:new    ;" width="975" height="377" xlink:href="../../../../Downloads/I-MAT/I-MAT/uniandes-logo.png"  transform="matrix(0.2562 0 0 0.2562 48.4483 70)">
</image>
<image style="overflow:visible;enable-background:new    ;" width="300" height="122" xlink:href="../../../../Downloads/I-MAT/I-MAT/universidad-catolica-san-pablo-ucsp-logo.png"  transform="matrix(0.8505 0 0 0.8505 45.7584 378.7289)">
</image>
<image style="overflow:visible;enable-background:new    ;" width="800" height="275" xlink:href="../../../../Downloads/I-MAT/I-MAT/VILNIUS-TECH-logo.png"  transform="matrix(0.3153 0 0 0.3153 722.2012 228.9536)">
</image>
<g>
	<path class="st0" d="M465.3,260.8c0,7.7-2.3,15.2-6.6,21.7c-4.3,6.4-10.4,11.4-17.5,14.4s-15,3.7-22.5,2.2
		c-7.6-1.5-14.5-5.2-20-10.7s-9.2-12.4-10.7-20s-0.7-15.4,2.2-22.5c3-7.1,7.9-13.2,14.4-17.5c6.4-4.3,13.9-6.6,21.7-6.6
		c5.1,0,10.2,1,14.9,3c4.7,2,9,4.8,12.6,8.5c3.6,3.6,6.5,7.9,8.5,12.6S465.3,255.6,465.3,260.8"/>
	<path class="st1" d="M426.4,219.8c-8.1,0-16,2.4-22.7,6.9s-12,10.9-15.1,18.4s-3.9,15.7-2.3,23.7c1.6,7.9,5.5,15.2,11.2,21
		c5.7,5.7,13,9.6,21,11.2c7.9,1.6,16.2,0.8,23.7-2.3s13.9-8.3,18.4-15.1c4.5-6.7,6.9-14.7,6.9-22.8c0-5.4-1.1-10.7-3.1-15.7
		s-5.1-9.5-8.9-13.3s-8.3-6.8-13.3-8.9C437.1,220.9,431.7,219.8,426.4,219.8L426.4,219.8z M427.5,298.1
		c-18.7,1.2-32.7-13.2-35.6-22.1c0.1-0.1,0.3-0.2,0.3-0.2c4.5-1.3,8.9,1,13.9,5.2c3.6,3,10.8,11.3,19.6,15.3
		c0.7,0.4,1.4,0.7,2.1,0.9C427.7,297.4,427.6,297.9,427.5,298.1L427.5,298.1z M440.7,295.3c-0.6,0.2-5.2,1.7-8.7,0.7
		c-0.7-0.2-1.3-0.4-2-0.7c-4.9-1.8-9.4-4.8-13.6-8.1c-5.4-4.2-9.3-9.6-16.4-13c0-0.1,0.1-0.2,0.1-0.4c4,0.5,9,1,15.6,5
		c2.5,1.6,13,7.7,14.4,8.4c2.8,1.4,5.7,2.5,8.7,3.4c1.7,0.5,3.4,0.9,5.2,1.2c0,0,1.4,0.2,1.8,0.2l0.3,0.6
		C444.3,293.7,442.6,294.6,440.7,295.3L440.7,295.3z M453.5,286.9c-4.1,3.5-10,2.8-14,1.8c-6.1-1.5-15.9-7-18.5-8.7
		c0.1-0.1,0.2-0.3,0.3-0.4c4.8,1.7,24.1,6.6,36.6,0.2c0.1,0.1,0.2,0.2,0.3,0.3c0.1,0.1,0.3,0.3,0.4,0.4
		C457.1,282.8,455.4,284.9,453.5,286.9L453.5,286.9z M451.1,279.6c0.5-0.5,0.9-1.2,1.2-1.9l1.8-5.5h-2.8c-2.2,3.3-7.4,2.8-11.7,0.1
		c-6.8-4.2-11.5-6.9-14.9-7.1c-0.4,0-0.9,0-1.3,0.1l0,0c0.5,5.2,1.6,8.5,2.1,10c0.1,0.3,0.3,0.7,0.4,1l-0.7-0.1
		c-0.2-0.2-0.4-0.5-0.5-0.7c-0.8-1.2-2.4-4.1-3.7-9c-1,0.8-1.6,1.9-1.8,3.1c0,0.4-0.1,0.7-0.1,1.1l1.4,3.2l1.8,4.2
		c-0.6-0.2-1.5-0.6-2.4-1c-6.4-2.7-19.4-8.1-29.3-3.5c-1.9-5.2-2.6-10.8-2.1-16.3s2.2-10.8,5-15.6s6.6-8.9,11.1-12.1
		c4.5-3.2,9.7-5.3,15.2-6.2c5.4-1,11-0.7,16.4,0.7c5.3,1.4,10.3,4,14.5,7.6s7.6,8,10,13c2.3,5,3.6,10.5,3.6,16
		c0,3.4-0.7,8.4-1.3,9.9C460.9,275.3,456.6,278.1,451.1,279.6"/>
	<path class="st1" d="M446.7,256.3c0.5-3,1.5-6,3-8.7c-3.5-2-7.4-3.2-11.4-3.2c-4-0.1-8,0.9-11.5,2.8c-0.6,1.1-1.1,2.3-1.5,3.5l0,0
		l0,0c-1.4,0.4-2.7,0.9-3.9,1.6c-1.3,2-2,4.3-2.1,6.7s0.6,4.7,1.8,6.8l-0.3-2.1c1.1-0.7,2.3-1,3.5-1c3.7,0,8.7,2.2,14.1,6.1
		c0-0.1-0.1-0.2-0.1-0.3c-1.9-5.3-1.7-11,0.4-16.2c-1.8-1-3.8-1.7-5.9-2l0.1-0.3c2.5,0.2,4.9,0.8,7.2,1.8c-1.6,4.7-1.5,9.9,0.3,14.5
		c3.3,1.3,6.3,3.3,8.6,5.9l0.3-0.1C446.8,267.3,445.9,261.7,446.7,256.3"/>
	<path class="st1" d="M408.8,248.3c0.2,2.6,0.7,7.1,0.7,7.1h0.8c0,0,0.4-4.5,0.7-7.1c0.1-1.6,0.8-2.3,1.9-2.6
		c0.9-0.2,3.8-0.6,3.8-0.6v-0.8c-1.3-0.1-2.7-0.3-4-0.6c-0.5-0.1-0.9-0.3-1.2-0.6c-0.3-0.3-0.6-0.7-0.7-1.2c-0.3-1-0.6-4.2-0.6-4.2
		h-0.7c-0.1,1.4-0.4,2.8-0.6,4.2c-0.1,0.5-0.3,0.9-0.6,1.2c-0.3,0.3-0.7,0.6-1.2,0.6c-1,0.3-4,0.6-4,0.6v0.8c0,0,2.9,0.4,3.8,0.6
		C408,246,408.6,246.7,408.8,248.3"/>
	<path class="st1" d="M439.6,240.8l-0.6,2.8c-1.9-1.6-4.4-2.6-6.9-2.8l-0.1-0.4c1.2-0.5,2.5-0.8,3.9-0.7
		C437.1,239.8,438.4,240.1,439.6,240.8"/>
	<path class="st0" d="M502.2,241c4.3,0,7.7,1.3,10.4,3.9c2.7,2.6,4,5.8,4,9.8c0,4-1.4,7.2-4,9.8c-2.7,2.6-6.2,3.9-10.4,3.9h-7V280
		h-10.6v-39H502.2z M495.2,250.4v8.4h6.4c0.6,0,1.2-0.1,1.7-0.3c0.5-0.2,1-0.5,1.5-0.9c0.4-0.4,0.7-0.8,1-1.3c0.2-0.5,0.3-1,0.3-1.6
		s-0.1-1.1-0.3-1.6c-0.2-0.5-0.6-1-1-1.3c-0.4-0.4-0.9-0.7-1.5-0.9c-0.5-0.2-1.1-0.3-1.7-0.3h-6.4V250.4z"/>
	<path class="st0" d="M543.4,269.4c0.7-0.7,1.3-1.6,1.6-2.6c0.4-1,0.5-2,0.5-3V241h10.6v22.9c0,4.9-1.7,9-5.1,12.3
		c-3.4,3.3-7.6,5-12.8,5c-5.1,0-9.4-1.7-12.8-5c-3.4-3.3-5.1-7.4-5.1-12.3V241H531v22.9c-0.1,2.1,0.7,4.1,2.1,5.6
		c0.6,0.7,1.4,1.3,2.3,1.7c0.9,0.4,1.8,0.6,2.8,0.6s1.9-0.2,2.8-0.6C541.9,270.6,542.7,270.1,543.4,269.4"/>
	<path class="st0" d="M573.6,268.4c1,1,2.3,1.9,3.7,2.4s2.8,0.8,4.3,0.8c1.9,0,3.9-0.4,5.6-1.2c1.8-0.8,3-1.7,3.8-2.5l1.2-1.2
		l6.1,6.7c-0.2,0.3-0.4,0.6-0.6,0.9c-0.6,0.7-1.3,1.3-1.9,1.9c-1,0.9-2.1,1.7-3.3,2.4c-1.5,0.8-3.1,1.4-4.7,1.9
		c-2,0.6-4,0.8-6.1,0.8c-6.1,0-11.2-2-15.4-6.1s-6.3-8.9-6.3-14.5s2.1-10.5,6.3-14.5s9.3-6.1,15.4-6.1c2,0,4,0.3,6,0.8
		c1.6,0.4,3.2,1.1,4.7,2c1.1,0.7,2.2,1.5,3.2,2.3c0.7,0.6,1.4,1.2,2,2l0.6,0.8l-6.4,6.7c-0.1-0.2-0.2-0.3-0.4-0.6
		c-0.4-0.4-0.8-0.8-1.2-1.2c-0.6-0.6-1.3-1.1-2.1-1.5c-1.9-1.1-4.1-1.7-6.3-1.7c-1.5,0-2.9,0.2-4.3,0.8c-1.4,0.5-2.6,1.4-3.7,2.4
		c-1,1-1.9,2.3-2.4,3.6c-0.6,1.4-0.8,2.8-0.8,4.3s0.2,2.9,0.8,4.3C571.7,266.2,572.6,267.4,573.6,268.4"/>
	<path class="st0" d="M619.4,241c4.3,0,7.8,1.3,10.4,3.9c2.7,2.6,4,5.8,4,9.8c0,4-1.3,7.2-4,9.8s-6.2,3.9-10.4,3.9h-7V280h-10.6v-39
		H619.4z M612.5,250.4v8.4h6.4c0.6,0,1.2-0.1,1.7-0.3c0.5-0.2,1-0.5,1.5-0.9c0.4-0.4,0.7-0.8,1-1.3c0.2-0.5,0.3-1,0.3-1.6
		s-0.1-1.1-0.3-1.6s-0.6-1-1-1.3c-0.4-0.4-0.9-0.7-1.4-0.9s-1.1-0.3-1.7-0.3h-6.5V250.4z"/>
</g>
<g>
	<g>
		<g>
			<path class="st2" d="M140.8,279.2h-13.6l0,0c3.3-5.7,5.3-12.5,5.3-19.8c0-6.6-1.5-12.7-4.4-18h0.2H141c2.9,0,4-3.7,1.8-5.5
				l-46.3-30.5c-2.4-1.8-5.7-1.8-8.3,0L42.4,236c-2.4,1.5-1.1,5.5,1.8,5.5h12.7h0.2c-2.9,5.5-4.4,11.6-4.4,18c0,7.2,2,13.8,5.3,19.8
				l0,0H44c-2.9,0-4,3.7-1.8,5.5l45.9,30.5c2.4,1.8,5.7,1.8,8.3,0l45.9-30.5C144.7,282.9,143.6,279.2,140.8,279.2z M104.3,283.6
				c-0.2,0.4-0.7,0.4-0.9,0c-1.1-5-4.8-9.7-11-9.7s-9.9,4.8-11,9.7c0,0.4-0.7,0.4-0.9,0c-0.7-1.5-0.9-3.1-0.9-4.8
				c0-7,5.7-12.7,12.7-12.7s12.7,5.7,12.7,12.7C105.4,280.3,105,282.1,104.3,283.6z M114.4,278.1c-0.9,2-2,4-3.5,5.5
				c-0.4,0.7-1.5,0-1.1-0.7l0,0c3.1-8.8-1.3-18.7-10.1-22.4c-8.8-3.7-18.9,0.2-23.1,8.6l0,0c-0.2,0.7-1.3,0.4-1.3-0.4
				c0.2-2.2,0.7-4.2,1.5-6.4c4.4-10.3,16.2-15.1,26.8-11C114,255.9,118.8,267.8,114.4,278.1z M122.5,264.3c-0.2,1.1-1.8,1.1-2,0
				c-0.2-1.8-0.7-3.3-1.3-5c-5-12.7-20.4-19.8-33.4-14.7s-18.4,20-13.4,32.7c0.7,1.8,1.5,3.3,2.4,4.6c0.7,1.1-0.7,2.2-1.5,1.3
				c-4-3.1-7-7.5-9-12.3c-6.1-15.6,1.5-32.9,17.1-39.1c15.6-6.1,33.1,1.5,39.3,17.1C122.5,254.2,123.2,259.5,122.5,264.3z"/>
		</g>
		<g>
			<path class="st2" d="M194.1,264.9c0,2.6-0.7,4.6-2.2,5.9c-1.3,1.3-3.3,2.2-5.9,2.2s-4.6-0.7-5.9-2.2c-1.3-1.3-2.2-3.5-2.2-6.1
				v-22.6h-6.4v23.3c0,2.9,0.7,5.3,1.8,7.5s2.9,3.7,5,4.8c2.2,1.1,4.6,1.8,7.7,1.8c3.1,0,5.5-0.7,7.7-1.8c2.2-1.1,3.7-2.9,5-4.8
				c1.1-2,1.8-4.6,1.8-7.5v-23.3h-6.4C194.1,242.1,194.1,264.9,194.1,264.9z"/>
			<path class="st2" d="M220.5,253.3c-1.8,0-3.3,0.4-4.6,1.1c-1.3,0.7-2.4,1.8-3.3,2.9l-0.4-3.3h-5.7v24.8h6.1v-13.4
				c0-2,0.4-3.5,1.5-4.8c1.1-1.1,2.6-1.8,4.4-1.8c1.5,0,2.9,0.4,3.7,1.5c0.9,1.1,1.3,2.6,1.3,4.6v13.8h6.4v-15.4
				c0-3.1-0.9-5.7-2.4-7.5C225.9,254.2,223.5,253.3,220.5,253.3z"/>
			<path class="st2" d="M238,241.7c-1.1,0-2,0.4-2.6,1.1c-0.7,0.7-1.1,1.5-1.1,2.6s0.4,2,1.1,2.6s1.5,1.1,2.6,1.1s2-0.4,2.6-1.1
				s1.1-1.5,1.1-2.6s-0.4-2-1.1-2.6C239.8,242.1,238.9,241.7,238,241.7z"/>
			<rect x="234.9" y="254" class="st2" width="6.1" height="24.6"/>
			<path class="st2" d="M256.2,241.5c-1.8,0-3.3,0.2-4.6,0.9s-2.4,1.8-3.1,3.1c-0.7,1.3-1.1,3.3-1.1,5.5v3.1h-3.5v5h3.5v19.8h6.1
				V259h5.9v-5h-5.9v-3.1c0-1.3,0.2-2.2,0.9-2.9c0.4-0.7,1.5-1.1,3.1-1.1c0.4,0,0.7,0,1.1,0s0.7,0,1.1,0v-5.3
				c-0.4,0-1.1-0.2-1.5-0.2C257.3,241.5,256.7,241.5,256.2,241.5z"/>
			<path class="st2" d="M280.2,254.8c-2-1.1-4.2-1.8-6.8-1.8s-4.8,0.7-6.8,1.8s-3.5,2.6-4.6,4.6s-1.8,4.2-1.8,6.8
				c0,2.6,0.7,4.8,1.8,6.8s2.6,3.5,4.6,4.6s4.2,1.8,6.8,1.8s4.8-0.7,6.8-1.8c2-1.1,3.5-2.6,4.6-4.6s1.8-4.2,1.8-6.8
				s-0.7-4.8-1.8-6.8S282.1,255.9,280.2,254.8z M279.5,270.2c-0.7,1.1-1.5,2-2.4,2.6c-1.1,0.7-2.2,0.9-3.7,0.9s-2.6-0.2-3.7-0.9
				s-2-1.5-2.4-2.6c-0.7-1.1-0.9-2.4-0.9-4c0-1.5,0.2-2.9,0.9-4c0.7-1.1,1.5-2,2.4-2.6c1.1-0.7,2.2-0.9,3.7-0.9s2.6,0.2,3.7,0.9
				s2,1.5,2.4,2.6c0.7,1.1,0.9,2.4,0.9,4C280.4,267.8,280.2,269.1,279.5,270.2z"/>
			<path class="st2" d="M304.3,253.7c-0.4,0-0.9,0-1.3,0c-2,0-3.5,0.4-4.8,1.5c-0.9,0.7-1.5,1.5-2,2.6l-0.4-3.7h-5.7v24.6h6.1v-12.1
				c0-2.4,0.7-4.2,2-5.3s3.1-1.8,5.3-1.8h2.2V254C305.4,253.7,304.8,253.7,304.3,253.7z"/>
		</g>
	</g>
</g>
</svg>
