<?xml version="1.0" encoding="UTF-8"?><svg id="Layer_1" xmlns="http://www.w3.org/2000/svg" viewBox="0 0 322.77 98.93"><defs><style>.cls-1{fill:#c1e623;}</style></defs><path class="cls-1" d="M148.66,30.09c-2.78-1.23-3.82-.31-4.55,2.16-5.98,20.15-12.07,40.26-18.15,60.38-1.54,5.09-5.48,7.3-9.84,5.04-1.72-.89-3.31-3.02-3.91-4.92-6.39-20.14-12.56-40.34-18.8-60.53-.29-.95-.6-1.9-.93-2.96-2.71-.73-3.74,.13-3.72,3.06,.09,19.49,.05,38.98,.04,58.47,0,6.63-5.28,9.96-11.27,6.91-1.28-.65-2.22-2.33-2.86-3.74-.47-1.04-.24-2.41-.24-3.63,0-26.62-.01-53.23,0-79.85,0-6.41,1.36-8.29,7.67-9.68,2.45-.54,5.12-.78,7.59-.43,5.63,.8,9.41,3.82,11.07,9.61,5.66,19.78,11.53,39.49,17.33,59.23,.28,.95,.61,1.89,1.18,3.68,1.58-5.66,2.94-10.55,4.31-15.45,4.37-15.52,9.13-30.95,12.95-46.6,2.06-8.45,9.79-11.88,17.36-10.51,7.43,1.34,9.12,3.37,9.12,10.93,0,26.62,0,53.23,0,79.85,0,5.66-2.04,7.58-7.71,7.4-4.74-.15-6.61-2-6.62-6.82-.03-19.27-.02-38.53-.02-57.8,0-1.31,0-2.63,0-3.78Z"/><path class="cls-1" d="M212.58,12.81c-1.52,4.57-2.86,8.56-4.16,12.55-7.35,22.52-14.68,45.05-22.04,67.57-1.9,5.8-4.61,7.13-10.07,5.09-4.47-1.67-5.63-3.96-4.12-8.57,6.57-20.09,13.18-40.16,19.78-60.24,2.5-7.61,5.09-15.19,7.51-22.82,1.1-3.48,3.24-5.62,6.88-5.81,4.21-.21,8.45-.35,12.64-.06,3.59,.25,5.79,2.82,6.86,6.05,9.16,27.78,18.27,55.58,27.34,83.4,1.36,4.18-.29,6.81-4.82,8.27-4.78,1.55-7.58,.3-9.13-4.38-4.76-14.36-9.42-28.75-14.13-43.13-3.77-11.52-7.55-23.04-11.33-34.56-.3-.92-.65-1.82-1.2-3.37Z"/><path class="cls-1" d="M282.46,12.92c-7.09,0-13.65,.02-20.22,0-4.21-.02-5.81-1.77-5.84-6.29-.04-4.36,1.42-6.03,5.64-6.04,18.38-.04,36.76-.04,55.14,0,4.41,0,5.62,1.39,5.59,5.96-.03,4.86-1.31,6.34-5.62,6.37-6.35,.04-12.7,.04-19.05,.06-.2,0-.41,.13-1.08,.36,0,1.13,0,2.42,0,3.7,0,24.73,.01,49.46-.01,74.19,0,5.57-1.97,7.51-7.37,7.5-5.27,0-7.17-1.89-7.17-7.27-.01-24.73,0-49.46,0-74.19,0-1.31,0-2.62,0-4.35Z"/><path class="cls-1" d="M14.6,49.31c0,13.92-.01,27.85,.01,41.77,0,2.64,.08,5.78-2.88,6.43-2.96,.65-6.4,.54-9.24-.4-1.3-.43-2.29-3.66-2.34-5.65-.25-8.9-.11-17.82-.11-26.73,0-18.94,0-37.87,0-56.81C.05,1.6,2.33-.45,8.67,.08c4.21,.35,5.91,2.13,5.92,6.45,.03,14.26,.01,28.52,.01,42.77Z"/><path class="cls-1" d="M44.93,55.59c-4,0-8,.08-12-.02-4.13-.1-5.9-1.99-5.89-6,0-4.22,1.83-6.34,5.95-6.39,8-.11,16-.11,24,0,4.18,.06,5.78,2,5.78,6.44,0,4.14-1.6,5.85-5.84,5.95-4,.09-8,.02-12,.02Z"/><path class="cls-1" d="M212.09,77.79c-5.13-.12-9.15-4.4-9.02-9.62,.13-5.21,4.31-9.24,9.49-9.16,5.3,.09,9.37,4.43,9.19,9.79-.18,5.15-4.43,9.09-9.66,8.98Z"/></svg>